<?xml version="1.0" standalone="no"?>
<!DOCTYPE svg PUBLIC "-//W3C//DTD SVG 1.1//EN" "http://www.w3.org/Graphics/SVG/1.1/DTD/svg11.dtd" >
<svg xmlns="http://www.w3.org/2000/svg">
<metadata>
This is a custom SVG webfont generated by Font Squirrel.
Copyright   : Copyright c 2003 by This Font is designed by Ralph Oliver du Carrois All rights reserved
Foundry     : This Font is designed by Ralph Oliver du Carrois
</metadata>
<defs>
<font id="ColaborateMediumRegular" horiz-adv-x="1105" >
<font-face units-per-em="2048" ascent="1638" descent="-410" />
<missing-glyph horiz-adv-x="552" />
<glyph unicode=" "  horiz-adv-x="552" />
<glyph unicode="&#x09;" horiz-adv-x="552" />
<glyph unicode="&#xa0;" horiz-adv-x="552" />
<glyph unicode="!" horiz-adv-x="552" d="M154 0v225h245v-225h-245zM162 373v952h229v-952h-229z" />
<glyph unicode="&#x22;" horiz-adv-x="819" d="M154 1325h204l-16 -444h-172zM463 1325h203l-17 -444h-170z" />
<glyph unicode="#" d="M33 350v162h215l49 285h-184v161h215l63 367h193l-64 -367h166l64 367h192l-63 -367h194v-161h-225l-49 -285h194v-162h-223l-61 -350h-193l62 350h-166l-62 -350h-192l61 350h-186zM440 512h166l49 285h-166z" />
<glyph unicode="$" d="M78 987q0 158 104.5 247t268.5 112v182h180v-178q174 -12 303 -56l-80 -217q-133 59 -223 72v-379q78 -29 132 -57.5t111.5 -77.5t87 -122t29.5 -169q0 -178 -95 -263t-265 -110v-172h-180v162q-143 2 -365 64l80 217q12 -4 53 -20.5l60.5 -24t52.5 -17.5t61.5 -14 t57.5 -6v424q-88 35 -137.5 59.5t-113 71.5t-93 114.5t-29.5 157.5zM332 987q0 -84 123 -145v299q-123 -33 -123 -154zM627 182q111 41 110 158q0 94 -110 162v-320z" />
<glyph unicode="%" horiz-adv-x="1699" d="M88 999q0 352 295 353q162 0 229.5 -89t67.5 -264q0 -176 -68.5 -271t-230.5 -95q-160 0 -226.5 94t-66.5 272zM254 999q0 -133 24.5 -190t102.5 -57t105.5 61t27.5 186t-26.5 179.5t-104.5 54.5t-103.5 -59.5t-25.5 -174.5zM369 0l741 1288h201l-744 -1288h-198z M1022 340q0 352 295 352q162 0 228.5 -89t66.5 -263q0 -176 -67.5 -271.5t-229.5 -95.5q-160 0 -226.5 94.5t-66.5 272.5zM1188 340q0 -133 24.5 -190.5t102.5 -57.5t105.5 61.5t27.5 186.5t-26.5 179t-104.5 54t-103.5 -59t-25.5 -174z" />
<glyph unicode="&#x26;" d="M94 371q0 266 221 379l-32 24q-31 23 -41.5 32t-37 36.5t-37.5 49t-21.5 54.5t-10.5 68q0 152 92 248t283 96q178 0 276.5 -85t98.5 -251q0 -182 -357 -336q-106 -45 -151 -117.5t-45 -193.5q0 -94 49 -163t162 -69q100 0 207 138v161h-181v164h410v-319q0 -55 17.5 -166 t17.5 -121h-217l-33 92q-35 -49 -109.5 -87t-136.5 -38q-178 0 -301 95.5t-123 308.5zM367 1016q0 -25 7 -46.5t21.5 -41t25.5 -31.5t30.5 -29.5t25.5 -23.5q80 35 128 76t48 104q0 158 -147 158q-139 0 -139 -166z" />
<glyph unicode="'" horiz-adv-x="552" d="M174 1325h205l-17 -444h-172z" />
<glyph unicode="(" horiz-adv-x="645" d="M111 520q0 266 46 432t160 373h211q-109 -199 -147.5 -371t-38.5 -434q0 -229 39 -398t158 -384h-211q-129 223 -173 386t-44 396z" />
<glyph unicode=")" horiz-adv-x="645" d="M111 -262q119 215 157.5 384t38.5 398q0 262 -39 434t-147 371h211q115 -207 161 -373t46 -432q0 -233 -44 -396t-173 -386h-211z" />
<glyph unicode="*" horiz-adv-x="880" d="M20 971l48 145l303 -112l18 14l-14 313h143l-14 -319l16 -11l301 111l39 -143l-307 -74l-2 -18l201 -263l-119 -84l-174 271h-21l-180 -273l-119 90l203 259l-6 18z" />
<glyph unicode="+" d="M106 365v176h349v342h196v-342h348v-176h-348v-365h-196v365h-349z" />
<glyph unicode="," horiz-adv-x="552" d="M57 -211l97 365h245l-166 -365h-176z" />
<glyph unicode="-" horiz-adv-x="716" d="M55 365v192h607v-192h-607z" />
<glyph unicode="." horiz-adv-x="552" d="M154 0v225h245v-225h-245z" />
<glyph unicode="/" horiz-adv-x="614" d="M-8 -23l436 1369h195l-433 -1369h-198z" />
<glyph unicode="0" d="M78 631q0 313 110.5 477t362.5 164q266 0 371.5 -161t105.5 -480q0 -158 -22.5 -273.5t-74.5 -208t-147.5 -138.5t-234.5 -46q-264 0 -367.5 169t-103.5 497zM336 631q0 -100 3 -161.5t14.5 -128.5t34 -101.5t63.5 -58t98 -23.5t98 23.5t64.5 62.5t37 103.5t17.5 128 t4 155.5q0 242 -41 345t-178 103q-72 0 -117 -33.5t-65.5 -103.5t-26.5 -137.5t-6 -173.5z" />
<glyph unicode="1" d="M233 997l320 246h250v-1245h-258v999l-234 -186z" />
<glyph unicode="2" d="M98 211l73 52l88 65l90 67q60 45 96 77l87 77q51 45 81 82l61 78q31 41 45 78.5t14 72.5q0 221 -201 221q-125 0 -317 -102l-76 211q154 53 225.5 68.5t172.5 15.5q90 0 166.5 -19.5t144 -63.5t105.5 -126t38 -197q0 -92 -55 -194.5t-146.5 -193.5t-175.5 -159.5 t-172 -127.5h574v-193h-846z" />
<glyph unicode="3" d="M82 18l76 211q45 -23 138 -47t181 -24q104 0 164.5 55t60.5 137q0 55 -18 94t-49 61.5t-84 35t-105.5 15.5t-132.5 3v189q199 0 279 30.5t80 145.5q0 158 -183 157q-117 0 -309 -94l-76 211q63 31 186.5 53.5t207.5 22.5q432 0 432 -346q0 -121 -80 -189.5t-201 -83.5 q129 -20 220.5 -94t91.5 -213q0 -109 -44.5 -187.5t-118 -118.5t-154.5 -58.5t-173 -18.5q-235 0 -389 53z" />
<glyph unicode="4" d="M31 526l555 717h278v-719h197v-194h-197v-330h-254v330h-495zM240 524h370v480z" />
<glyph unicode="5" d="M96 14l76 211q168 -68 328 -67q248 0 248 248q0 207 -187 206q-31 0 -60.5 -4t-47 -8t-45 -16.5t-34.5 -16.5l-36 -20q-29 -16 -31 -19l-166 64v651h809v-192h-555v-273q80 31 185 31q195 0 308 -102.5t113 -305.5q0 -205 -144 -320.5t-359 -115.5q-252 0 -402 49z" />
<glyph unicode="6" d="M92 580q0 129 31 247.5t93.5 221t172 164t250.5 61.5q152 0 297 -39l-76 -211q-115 57 -211 57q-164 0 -239.5 -118.5t-75.5 -284.5q39 76 116.5 113.5t139.5 37.5q211 0 316.5 -116.5t105.5 -335.5q0 -180 -131 -296t-314 -116q-475 1 -475 615zM352 483 q0 -190 55.5 -257.5t161.5 -67.5q80 0 132.5 55t52.5 164v12q0 49 -4.5 81t-19.5 76t-55 67.5t-104 23.5q-160 0 -219 -154z" />
<glyph unicode="7" d="M109 1051v190h782l80 -164l-441 -1077h-274l485 1051h-632z" />
<glyph unicode="8" d="M78 317q0 270 299 338q-129 49 -180 101q-76 72 -76 178q0 162 110.5 251t327.5 89q231 0 334.5 -81t103.5 -257q0 -88 -53 -153.5t-108.5 -92t-106.5 -37.5q150 -39 224.5 -117.5t74.5 -218.5q0 -352 -479 -352q-471 0 -471 352zM330 324q0 -76 53 -122t166 -46 q227 0 227 168q0 96 -59.5 150t-161.5 89q-111 -37 -168 -87t-57 -152zM371 926q0 -123 180 -185q197 63 197 185q0 76 -40 116.5t-149 40.5q-106 0 -147 -39.5t-41 -117.5z" />
<glyph unicode="9" d="M94 860q0 180 134.5 297t310.5 117q117 0 203.5 -36t137 -92t82 -140t42 -165t10.5 -182q0 -129 -31 -247.5t-93.5 -221t-172 -164t-250.5 -61.5q-152 0 -297 39l76 211q115 -57 211 -57q164 0 239.5 118.5t75.5 284.5q-39 -76 -116.5 -113.5t-139.5 -37.5 q-211 0 -316.5 115.5t-105.5 334.5zM352 848q0 -37 2 -62.5t11.5 -63.5t28 -61.5t54 -41t87.5 -17.5q160 0 219 154q0 190 -55.5 257.5t-161.5 67.5q-80 0 -132.5 -56t-52.5 -165v-12z" />
<glyph unicode=":" horiz-adv-x="552" d="M154 0v225h245v-225h-245zM154 700v226h245v-226h-245z" />
<glyph unicode=";" horiz-adv-x="552" d="M57 -211l97 365h245l-166 -365h-176zM154 700v226h245v-226h-245z" />
<glyph unicode="&#x3c;" d="M92 377v246l922 305v-223l-690 -205l690 -201v-223z" />
<glyph unicode="=" d="M92 141v176h922v-176h-922zM92 496v176h922v-176h-922z" />
<glyph unicode="&#x3e;" d="M92 76v223l690 205l-690 201v223l922 -301v-246z" />
<glyph unicode="?" horiz-adv-x="942" d="M104 1284q68 23 178.5 42.5t182.5 19.5q61 0 109.5 -5.5t108.5 -26t100 -55t68 -100t28 -155.5q0 -68 -35 -124.5t-85 -96.5l-100 -77q-49 -38 -83.5 -84.5t-34.5 -97.5v-164h-230v175q0 78 33 138t80 99t94 72t80 72.5t33 87.5q0 76 -36 109.5t-130 33.5 q-59 0 -164.5 -22.5t-159.5 -49.5zM303 0v225h246v-225h-246z" />
<glyph unicode="@" horiz-adv-x="1843" d="M164 655q0 233 113.5 394t295 232t414.5 71q90 0 181.5 -17.5t184.5 -59.5t164.5 -105.5t116.5 -164t45 -225.5q0 -147 -55 -252.5t-152.5 -162t-210 -82t-245.5 -25.5q-233 0 -356 103.5t-123 297.5q0 172 106.5 281t323.5 109q131 0 223 -29v-313h41l63 -168l-313 -27 v350q-16 10 -33 10q-184 0 -184 -213q0 -233 256 -233q102 0 169.5 11.5t132 46t95.5 107.5t31 187.5t-41 196.5t-111.5 123t-145.5 58.5t-163 17.5q-70 0 -137.5 -9.5t-153.5 -42t-149.5 -86t-107.5 -152t-44 -229.5q0 -133 45 -232t109.5 -152.5t154 -84t155 -39 t136.5 -8.5q180 0 437 66l79 -191q-242 -53 -522 -53q-373 0 -599 175t-226 519z" />
<glyph unicode="A" horiz-adv-x="1394" d="M59 0l539 1325h238l499 -1325h-284l-119 354h-473l-125 -354h-275zM530 549h336l-161 489z" />
<glyph unicode="B" horiz-adv-x="1280" d="M193 0v1325h469q446 0 446 -364q0 -100 -58.5 -170t-152.5 -97q127 -18 199.5 -95t72.5 -212q0 -387 -440 -387h-536zM451 199h266q188 0 188 188q0 197 -211 197h-243v-385zM451 780h239q70 0 113 46t43 132q0 168 -184 168h-211v-346z" />
<glyph unicode="C" horiz-adv-x="1177" d="M121 662q0 145 31.5 263.5t100.5 218t192.5 154t293.5 54.5q186 0 351 -54l-80 -217q-168 72 -271 72q-188 0 -270 -124t-82 -365q0 -254 79 -379t261 -125q23 0 44.5 2t45 7t39.5 9t43 13.5t38 14.5t44 18l43 18l80 -217q-180 -63 -373 -64q-610 1 -610 701z" />
<glyph unicode="D" horiz-adv-x="1378" d="M193 0v1325h432q328 0 480 -151.5t152 -505.5q0 -360 -150.5 -514t-481.5 -154h-432zM451 199h192q172 0 260 98t88 369q0 152 -26.5 248t-82 140t-112.5 58t-145 14h-174v-927z" />
<glyph unicode="E" horiz-adv-x="1189" d="M193 0v1325h786v-199h-528v-342h485v-198h-485v-387h546v-199h-804z" />
<glyph unicode="F" horiz-adv-x="1085" d="M193 0v1325h786v-201h-528v-348h503v-196h-503v-580h-258z" />
<glyph unicode="G" horiz-adv-x="1298" d="M121 664q0 322 153.5 505t475.5 183q129 0 333 -54l-79 -217q-164 72 -252 72q-176 0 -270.5 -108.5t-94.5 -380.5q0 -254 78 -379t272 -125q123 0 211 51v299h-293v199h523v-629q-109 -63 -207.5 -91t-239.5 -28q-610 1 -610 703z" />
<glyph unicode="H" horiz-adv-x="1417" d="M193 0v1325h258v-541h516v541h258v-1325h-258v584h-516v-584h-258z" />
<glyph unicode="I" horiz-adv-x="593" d="M168 0v1325h258v-1325h-258z" />
<glyph unicode="J" horiz-adv-x="907" d="M29 0q14 2 56 10t60.5 12.5t56.5 14.5t57.5 19.5l51 25.5t49 35.5t39 47.5t31.5 60.5t18.5 76.5t8.5 95v928h258v-907q0 -94 -21.5 -174t-52.5 -136.5t-85 -104.5t-100 -77.5t-119 -59.5t-119 -44.5t-122 -34.5z" />
<glyph unicode="K" horiz-adv-x="1349" d="M193 0v1325h258v-559l489 559h291l-541 -623l631 -702h-334l-536 604v-604h-258z" />
<glyph unicode="L" horiz-adv-x="1013" d="M193 0v1325h258v-1120h550v-205h-808z" />
<glyph unicode="M" horiz-adv-x="1894" d="M193 0v1325h423l336 -979l344 979h406v-1325h-254v1051l-373 -1051h-264l-373 1051v-1051h-245z" />
<glyph unicode="N" horiz-adv-x="1488" d="M193 0v1325h382l467 -1020v1020h254v-1325h-387l-471 1020v-1020h-245z" />
<glyph unicode="O" horiz-adv-x="1484" d="M121 657q0 315 149.5 505t477.5 190q616 0 616 -695q0 -319 -146.5 -507.5t-472.5 -188.5q-624 0 -624 696zM387 657q0 -268 85 -382.5t273 -114.5q186 0 269.5 121.5t83.5 375.5q0 262 -85 379t-268 117q-184 0 -271 -119t-87 -377z" />
<glyph unicode="P" horiz-adv-x="1228" d="M193 0v1325h464q469 0 469 -397q0 -410 -446 -410h-229v-518h-258zM451 717h213q201 0 200 211q0 123 -56 160.5t-155 37.5h-202v-409z" />
<glyph unicode="Q" horiz-adv-x="1484" d="M121 657q0 317 148.5 506t478.5 189q616 0 616 -695q0 -319 -146.5 -507.5t-472.5 -188.5q-624 0 -624 696zM387 657q0 -268 85 -382.5t273 -114.5q186 0 269.5 121.5t83.5 375.5q0 262 -85 379t-268 117q-184 0 -271 -119t-87 -377zM662 -231l88 143l462 -43l-88 -170z " />
<glyph unicode="R" horiz-adv-x="1314" d="M193 0v1325h495q88 0 161 -16.5t141.5 -56.5t107.5 -118.5t39 -191.5q0 -147 -77 -251.5t-251 -131.5l418 -559h-316l-403 551h-57v-551h-258zM451 750h249q86 0 130 53t44 139t-44 135t-132 49h-247v-376z" />
<glyph unicode="S" horiz-adv-x="1216" d="M131 987q0 125 80 210t191.5 120t242.5 35q205 0 373 -58l-80 -217q-176 76 -299 76q-131 0 -188.5 -48t-57.5 -118q0 -29 14.5 -54.5t32 -42t56.5 -34.5l63.5 -28.5t77.5 -28.5q14 -6 22 -8q92 -33 148.5 -59.5t127.5 -78t105.5 -129.5t34.5 -180q0 -383 -547 -383 q-164 0 -397 64l80 217q219 -82 319 -82q139 0 211 38t72 142q0 20 -5 39.5t-12.5 35t-22.5 31t-26.5 25.5t-35 24.5t-37 21.5t-44.5 20l-45 17l-49 19l-49 19q-80 31 -132 58.5t-109.5 73.5t-86 111.5t-28.5 151.5z" />
<glyph unicode="T" horiz-adv-x="1077" d="M45 1124v201h987v-201h-364v-1124h-258v1124h-365z" />
<glyph unicode="U" horiz-adv-x="1480" d="M193 489v836h258v-815q0 -205 79.5 -277.5t223.5 -72.5q276 0 276 350v815h258v-840q0 -260 -137 -392t-397 -132q-561 0 -561 528z" />
<glyph unicode="V" horiz-adv-x="1335" d="M57 1325h285l340 -1008l322 1008h274l-483 -1325h-238z" />
<glyph unicode="W" horiz-adv-x="1980" d="M70 1325h272l221 -1012l291 957h320l241 -957l244 1012h252l-340 -1325h-320l-258 926l-303 -926h-319z" />
<glyph unicode="X" horiz-adv-x="1294" d="M61 0l443 684l-389 641h297l243 -416l260 416h277l-406 -631l435 -694h-306l-274 479l-303 -479h-277z" />
<glyph unicode="Y" horiz-adv-x="1267" d="M29 1325h293l321 -508l318 508h278l-477 -729v-596h-258v588z" />
<glyph unicode="Z" horiz-adv-x="1148" d="M88 209l694 915h-618v201h829l68 -209l-692 -915h675v-201h-888z" />
<glyph unicode="[" horiz-adv-x="624" d="M170 -260v1644h358v-163h-161v-1311h161v-170h-358z" />
<glyph unicode="\" horiz-adv-x="614" d="M-8 1346h194l437 -1369h-199z" />
<glyph unicode="]" horiz-adv-x="624" d="M117 -90h162v1311h-162v163h358v-1644h-358v170z" />
<glyph unicode="^" d="M66 551l370 774h226l378 -774h-215l-274 598l-277 -598h-208z" />
<glyph unicode="_" horiz-adv-x="1024" d="M-2 -61h1028v-177h-1028v177z" />
<glyph unicode="`" horiz-adv-x="505" d="M39 1325h231l197 -240h-160z" />
<glyph unicode="a" horiz-adv-x="1069" d="M88 246q0 342 514 342h78v45q0 68 -26.5 109.5t-106.5 41.5q-170 0 -342 -82l-80 191q193 70 434 70q162 0 258 -76t96 -223v-377q0 -43 17 -152l20 -135h-219l-35 94q-125 -121 -243 -121q-178 0 -271.5 70t-93.5 203zM330 256q0 -104 166 -104q117 0 186 96v184h-51 q-160 0 -230.5 -44t-70.5 -132z" />
<glyph unicode="b" horiz-adv-x="1087" d="M111 0q25 190 24 287v1059h232v-533q109 150 245 150q199 0 293 -138.5t94 -351.5t-109.5 -356.5t-309.5 -143.5q-78 0 -134.5 38t-85.5 83l-36 -94h-213zM362 283q61 -131 181 -131q219 0 219 317q0 315 -193 315q-68 0 -113.5 -47t-93.5 -133v-321z" />
<glyph unicode="c" horiz-adv-x="950" d="M88 461q0 233 119 367.5t350 134.5q59 0 159.5 -21.5t155.5 -44.5l-79 -190q-156 78 -238 77q-119 0 -174 -73.5t-55 -249.5q0 -309 227 -309q96 0 248 77l80 -190q-51 -25 -161 -45.5t-169 -20.5q-223 0 -343 133.5t-120 354.5z" />
<glyph unicode="d" horiz-adv-x="1087" d="M88 473q0 211 98.5 350.5t288.5 139.5q137 0 246 -150v533h231v-1059q0 -96 25 -287h-213l-37 94q-29 -45 -85 -83t-134 -38q-219 0 -319.5 139.5t-100.5 360.5zM326 469q0 -178 53 -247.5t166 -69.5q119 0 180 131v321q-47 86 -93 133t-114 47q-192 0 -192 -315z" />
<glyph unicode="e" horiz-adv-x="1067" d="M88 459q0 88 21.5 171t69.5 160.5t139.5 125t213.5 47.5q240 0 341.5 -141.5t101.5 -442.5h-643q14 -113 71.5 -173.5t153.5 -60.5q133 0 293 80l76 -178q-162 -74 -385 -74q-217 0 -335 139.5t-118 346.5zM332 545h420q-14 240 -222 239q-74 0 -133 -54t-65 -185z" />
<glyph unicode="f" horiz-adv-x="684" d="M23 758v178h141v27q0 102 44 183t115.5 129t148.5 74.5t155 32.5l57 -190q-145 -14 -217 -63.5t-72 -147.5v-45h213v-178h-213v-758h-231v758h-141z" />
<glyph unicode="g" horiz-adv-x="1116" d="M78 -147q0 117 151 178q-119 53 -118 174q0 84 108 164q-94 119 -94 239q0 51 16.5 103.5t56.5 113t131 99.5t220 39q66 0 158 -19q252 20 352 25l-60 -156h-114q94 -94 94 -207q0 -66 -21.5 -125t-67.5 -113.5t-133 -87t-204 -32.5q-35 0 -103.5 10t-101.5 25 q-43 -23 -43 -68q0 -37 54.5 -53.5t226.5 -30.5q266 -20 362 -84.5t96 -187.5q0 -74 -40.5 -128.5t-111.5 -84t-152 -44t-175 -14.5q-264 0 -375.5 69t-111.5 196zM315 -139q0 -47 74 -75t176 -28q137 0 189.5 21.5t52.5 79.5q0 84 -424 94q-68 -33 -68 -92zM362 604 q0 -182 193 -182q98 0 142 56.5t44 133.5q0 84 -47 130t-141 46q-191 0 -191 -184z" />
<glyph unicode="h" horiz-adv-x="1083" d="M135 0v1346h232v-533q113 152 243 152q193 0 265.5 -97.5t72.5 -277.5v-590h-231v600q0 43 -4 69.5t-17.5 56.5t-44 45t-80.5 15q-115 0 -204 -176v-610h-232z" />
<glyph unicode="i" horiz-adv-x="505" d="M131 1124v201h244v-201h-244zM137 0v936h232v-936h-232z" />
<glyph unicode="j" horiz-adv-x="499" d="M-61 -211q106 23 148 68t42 137v942h231v-924q0 -166 -91 -262t-251 -151zM121 1124v201h248v-201h-248z" />
<glyph unicode="k" horiz-adv-x="997" d="M135 0v1346h232v-779l307 369h250l-340 -406l389 -530h-266l-340 469v-469h-232z" />
<glyph unicode="l" horiz-adv-x="501" d="M135 0v1346h232v-1346h-232z" />
<glyph unicode="m" horiz-adv-x="1658" d="M111 936h213l36 -125q35 51 105 102.5t143 51.5q117 0 176.5 -33t122.5 -119q94 152 287 152q330 0 330 -367v-598h-232v594q0 104 -30.5 148t-102.5 44q-78 0 -134 -53t-85 -133v-600h-231v594q0 113 -33 152.5t-111 39.5q-63 0 -116.5 -56t-81.5 -118v-612h-232v721 q0 45 -11 120t-13 95z" />
<glyph unicode="n" horiz-adv-x="1083" d="M111 936h213l36 -123q4 4 22.5 25.5t31 33t37 32t46 31.5t52.5 20.5t61 9.5q193 0 265.5 -97.5t72.5 -277.5v-590h-231v600q0 43 -4 69.5t-17.5 56.5t-44 45t-80.5 15q-119 0 -204 -176v-610h-232v737q0 35 -4 68t-11 70.5t-9 60.5z" />
<glyph unicode="o" horiz-adv-x="1099" d="M88 473q0 215 113.5 353.5t349.5 138.5q240 0 350.5 -135.5t110.5 -356.5q0 -104 -25.5 -192t-78 -159t-144.5 -111t-213 -40q-238 0 -350.5 140.5t-112.5 361.5zM326 473q0 -324 225 -323q223 0 223 323q0 170 -52 241.5t-171 71.5q-115 0 -170 -72.5t-55 -240.5z" />
<glyph unicode="p" horiz-adv-x="1087" d="M111 936h213l41 -123q109 152 233 152q207 0 304 -140.5t97 -361.5q0 -211 -98 -351.5t-289 -140.5q-68 0 -137 34t-108 87v-461h-232v1018q1 97 -24 287zM362 285q76 -135 207 -135q193 0 193 317q0 178 -53.5 248.5t-165.5 70.5q-98 0 -181 -174v-327z" />
<glyph unicode="q" horiz-adv-x="1087" d="M88 463q0 217 101.5 359.5t299.5 142.5q78 0 140.5 -48.5t93.5 -103.5l41 123h213q-25 -190 -25 -287v-1018h-231v461q-39 -53 -108.5 -87t-137.5 -34q-137 0 -227 71t-125 176.5t-35 244.5zM326 467q0 -317 192 -317q131 0 207 135v327q-82 174 -184 174 q-111 0 -163 -70.5t-52 -248.5z" />
<glyph unicode="r" horiz-adv-x="798" d="M111 936h213l36 -160q35 61 101.5 125t132.5 64q92 0 178 -45l-80 -191q-76 57 -135 57q-18 0 -34.5 -5t-30.5 -17l-27 -24q-12 -11 -25 -30l-20 -32q-8 -12 -18.5 -36t-14.5 -32t-12 -28l-8 -23v-559h-232v727q0 41 -4 80t-11 79t-9 50z" />
<glyph unicode="s" horiz-adv-x="923" d="M78 37l80 190q18 -6 69.5 -26.5t73 -27.5t61 -15t78.5 -8q98 0 130 27.5t32 76.5q0 29 -28.5 50.5t-59.5 32.5t-94 30q-72 20 -115 38.5t-98 53.5t-83 92t-28 135q0 279 398 279q135 0 321 -60l-80 -190q-6 4 -28.5 14t-28.5 12t-25.5 10.5t-26.5 10.5t-22.5 8t-26 8 t-24.5 4t-28.5 3t-28.5 1q-162 0 -162 -94q0 -41 42 -64.5t132 -49.5q59 -18 92 -29.5t86 -39.5t81 -58.5t50.5 -81t22.5 -113.5q0 -104 -61.5 -171t-147.5 -90.5t-195 -23.5q-176 0 -358 66z" />
<glyph unicode="t" horiz-adv-x="686" d="M27 758v180h155v250h232v-250h219v-180h-219v-531q0 -94 63.5 -145t190.5 -82l-62 -199q-184 47 -304 161t-120 284v512h-155z" />
<glyph unicode="u" horiz-adv-x="1069" d="M135 346v590h232v-600q0 -41 4 -68.5t16 -57.5t43 -45t76 -15q111 0 196 176v610h232v-737q0 -35 4 -68t11 -70.5t9 -60.5h-213l-36 123q-4 -4 -27 -30.5t-39 -42t-44 -37t-61.5 -32t-70.5 -10.5q-182 0 -257 98.5t-75 276.5z" />
<glyph unicode="v" horiz-adv-x="1099" d="M74 936h248l235 -664l227 664h242l-362 -936h-228z" />
<glyph unicode="w" horiz-adv-x="1632" d="M61 936h246l207 -653l207 571h227l197 -571l188 653h238l-309 -936h-242l-193 573l-213 -573h-243z" />
<glyph unicode="x" horiz-adv-x="1011" d="M47 0l338 473l-315 463h260l184 -293l193 293h241l-319 -449l336 -487h-260l-201 311l-213 -311h-244z" />
<glyph unicode="y" horiz-adv-x="1085" d="M74 936h248l239 -637l209 637h242l-391 -1086q-47 -129 -130 -216t-227 -136l-78 191q145 39 181 133l82 217z" />
<glyph unicode="z" horiz-adv-x="909" d="M53 190l543 568h-477v178h657l80 -191l-537 -567h504v-178h-690z" />
<glyph unicode="{" horiz-adv-x="798" d="M98 455v178q63 2 97 40t44.5 98t16.5 132t23.5 144.5t52.5 133t114.5 100.5t200.5 44v-178q-84 0 -125 -50t-50 -128t-16 -160t-44 -158t-113 -110q78 -29 116 -102.5t44 -156.5t15 -162t49 -131t124 -52v-179q-139 4 -223 56.5t-110.5 127t-42 163t-20.5 164t-42 128 t-111 58.5z" />
<glyph unicode="|" horiz-adv-x="552" d="M178 -340v1778h197v-1778h-197z" />
<glyph unicode="}" horiz-adv-x="798" d="M152 -63q84 0 123.5 52t49 131t15.5 162t44 156.5t116 102.5q-76 35 -113 110.5t-44 157.5t-16.5 160t-50 128t-124.5 50v178q121 -4 200.5 -44t114.5 -100.5t52.5 -133t23.5 -144.5t16 -132t44 -98t97 -40v-178q-74 -6 -110.5 -58.5t-41.5 -128t-20.5 -164t-42 -163 t-110.5 -127t-223 -56.5v179z" />
<glyph unicode="~" d="M59 420q0 109 74 182.5t205 73.5q88 0 173 -45t141.5 -90t72.5 -45q74 0 106.5 31.5t32.5 121.5l183 -98q0 -109 -75 -182.5t-208 -73.5q-80 0 -162 46t-140.5 92t-82.5 46q-72 0 -104.5 -33.5t-32.5 -123.5z" />
<glyph unicode="&#xa1;" horiz-adv-x="552" d="M154 1100v225h245v-225h-245zM162 0v952h229v-952h-229z" />
<glyph unicode="&#xa2;" horiz-adv-x="940" d="M88 461q0 207 92 336t273 157v193h186v-193q119 -18 223 -57l-80 -190q-72 37 -143 61v-602q59 16 152 63l79 -190q-63 -31 -231 -57v-187h-186v187q-178 29 -271.5 156.5t-93.5 322.5zM326 461q0 -229 127 -289v596q-127 -51 -127 -307z" />
<glyph unicode="&#xa3;" d="M90 612v179h154v12q0 131 35.5 230.5t91 157.5t142.5 99t165 58.5t184 29.5l68 -213q-199 -10 -271 -41q-158 -68 -157 -321v-12h309v-179h-309v-407h559v-205h-948v205h131v407h-154z" />
<glyph unicode="&#xa4;" d="M-2 428l63 199h142v88h-205l63 198h166q96 438 574 439q186 0 350 -54l-68 -211q-154 66 -282 66q-246 0 -307 -240h534l-63 -198h-496v-88h469l-63 -199h-388q25 -135 96.5 -201.5t204.5 -66.5q27 0 55.5 4t51.5 9t55 17l49 19l55 21l52 22v-242q-143 -49 -313 -49 q-487 0 -572 467h-223z" />
<glyph unicode="&#xa5;" d="M0 1325h287l274 -514l275 514h270l-381 -653h213v-176h-258v-105h258v-176h-258v-215h-258v215h-258v176h258v105h-258v176h211z" />
<glyph unicode="&#xa6;" horiz-adv-x="552" d="M178 -160v479h197v-479h-197zM178 735v479h197v-479h-197z" />
<glyph unicode="&#xa7;" horiz-adv-x="923" d="M72 682q0 150 114 213q-82 72 -82 178q0 279 398 279q119 0 301 -60l-80 -188q-6 2 -48 22.5t-56.5 25.5t-48 13.5t-66.5 8.5q-162 0 -162 -95q0 -41 52 -68.5t128 -49t151 -52t127 -98.5t52 -168q0 -133 -100 -207q59 -70 59 -184q0 -104 -60.5 -171t-145.5 -90.5 t-193 -23.5q-143 0 -328 66l80 190q16 -6 56 -25.5t61.5 -27.5t58.5 -16.5t76 -8.5q98 0 127.5 27t29.5 78q0 43 -51 70.5t-125.5 47t-148.5 49t-125 96.5t-51 169zM305 684q0 -23 13.5 -40t45 -31.5t56 -23.5t74.5 -25l73 -23q51 31 51 100q0 31 -16 53.5t-56 42t-70 30.5 t-93 30q-78 -27 -78 -113z" />
<glyph unicode="&#xa8;" horiz-adv-x="505" d="M-14 1135v190h209v-190h-209zM311 1135v190h209v-190h-209z" />
<glyph unicode="&#xa9;" horiz-adv-x="1474" d="M51 663.5q0 288.5 199 486.5t487 198q293 0 489.5 -197t196.5 -487q0 -289 -198.5 -486.5t-487 -197.5t-487.5 197.5t-199 486zM193 664q0 -227 158.5 -391t386 -164t386 163.5t158.5 391.5q0 229 -157.5 392t-387.5 163q-231 0 -387.5 -162t-156.5 -393zM375 659 q0 184 87 299t283 115q123 0 211 -31l-49 -131q-98 43 -162 43q-113 0 -161.5 -73.5t-48.5 -218.5q0 -152 47 -228t157 -76q61 0 179 50l47 -132q-104 -37 -224 -36q-366 -1 -366 419z" />
<glyph unicode="&#xaa;" d="M291 936q0 193 309 192h45v25q0 35 -15.5 53.5t-64.5 18.5q-106 0 -205 -45l-47 112q121 39 260 39q98 0 161 -42t63 -122v-209l22 -157h-143l-21 53q-78 -68 -145 -68q-219 0 -219 150zM440 942q0 -49 95 -49q68 0 112 57v78h-31q-98 0 -137 -19.5t-39 -66.5z" />
<glyph unicode="&#xab;" horiz-adv-x="839" d="M47 553l191 373h213l-199 -369l197 -369h-211zM391 553l191 373h213l-199 -369l197 -369h-211z" />
<glyph unicode="&#xac;" d="M61 537v176h973v-533h-196v357h-777z" />
<glyph unicode="&#xad;" horiz-adv-x="716" d="M55 365v192h607v-192h-607z" />
<glyph unicode="&#xae;" horiz-adv-x="1474" d="M51 663.5q0 288.5 199 486.5t487 198q293 0 489.5 -197t196.5 -487q0 -289 -198.5 -486.5t-487 -197.5t-487.5 197.5t-199 486zM193 664q0 -227 158.5 -391t386 -164t386 163.5t158.5 391.5q0 229 -157.5 392t-387.5 163q-231 0 -387.5 -162t-156.5 -393zM451 264v799 h297q115 0 192.5 -52.5t77.5 -181.5q0 -201 -197 -229l250 -336h-188l-244 332h-33v-332h-155zM606 715h150q51 0 77.5 31.5t26.5 82.5q0 111 -106 111h-148v-225z" />
<glyph unicode="&#xaf;" horiz-adv-x="505" d="M-12 1114v170h530v-170h-530z" />
<glyph unicode="&#xb0;" horiz-adv-x="880" d="M92 917.5q0 147.5 102.5 246t246 98.5t245.5 -98.5t102 -245.5q0 -145 -102 -241.5t-248 -96.5q-143 0 -244.5 95t-101.5 242.5zM242 918q0 -80 58 -138.5t138 -58.5t139.5 58.5t59.5 138.5q0 88 -55.5 145t-141.5 57t-142 -57t-56 -145z" />
<glyph unicode="&#xb1;" d="M92 0v176h922v-176h-922zM106 487v177h349v219h196v-219h348v-177h-348v-241h-196v241h-349z" />
<glyph unicode="&#xb2;" horiz-adv-x="747" d="M92 776l84 53q68 43 108 72t93 71t79.5 81t26.5 71q0 66 -33.5 87.5t-93.5 21.5q-80 0 -192 -55l-45 127q150 47 239 47q121 0 207 -52.5t86 -171.5q0 -41 -27.5 -87t-59.5 -78.5t-92 -76.5t-88 -62.5l-85 -53.5h354v-119h-518z" />
<glyph unicode="&#xb3;" horiz-adv-x="747" d="M100 662l45 126q78 -39 193 -38q63 0 102 26.5t39 67.5q0 68 -58.5 89t-180.5 21v113q119 0 170 17.5t51 74.5q0 74 -115 74q-72 0 -186 -51l-45 129q88 41 235 41q131 0 204 -48.5t73 -142.5q0 -66 -48.5 -103.5t-121.5 -45.5q76 -10 132 -52t56 -118q0 -78 -52 -127 t-116.5 -65.5t-142.5 -16.5q-142 0 -234 29z" />
<glyph unicode="&#xb4;" horiz-adv-x="505" d="M39 1085l197 240h231l-268 -240h-160z" />
<glyph unicode="&#xb5;" d="M154 -369v1305h231v-600q0 -41 4 -68.5t16.5 -57.5t43 -45t75.5 -15q63 0 108.5 53t88.5 143v590h231v-737q0 -35 4.5 -68t11.5 -70.5t9 -60.5h-213l-37 123q-4 -4 -26.5 -30.5t-39 -42t-44 -37t-61.5 -32t-71 -10.5q-61 0 -100 23v-363h-231z" />
<glyph unicode="&#x3bc;" d="M154 -369v1305h231v-600q0 -41 4 -68.5t16.5 -57.5t43 -45t75.5 -15q63 0 108.5 53t88.5 143v590h231v-737q0 -35 4.5 -68t11.5 -70.5t9 -60.5h-213l-37 123q-4 -4 -26.5 -30.5t-39 -42t-44 -37t-61.5 -32t-71 -10.5q-61 0 -100 23v-363h-231z" />
<glyph unicode="&#xb6;" d="M82 928q0 49 7 96t32.5 104.5t66.5 98.5t115 69.5t170 28.5h584v-1710h-197v1532h-205q-98 0 -160.5 -64.5t-62.5 -181.5q0 -90 62.5 -159.5t138.5 -90.5v-1036h-197v913q-180 29 -267 145t-87 255z" />
<glyph unicode="&#xb7;" horiz-adv-x="552" d="M164 442v228h225v-228h-225z" />
<glyph unicode="&#xb8;" horiz-adv-x="505" d="M0 -424l49 160q131 -16 154 -17q98 0 98 76q0 41 -30.5 57.5t-133.5 16.5l43 162h182l-20 -82q70 0 106.5 -47t36.5 -103q0 -113 -83 -176t-189 -63q-94 0 -213 16z" />
<glyph unicode="&#xb9;" horiz-adv-x="747" d="M160 1190l190 135h152v-684h-166v539l-129 -103z" />
<glyph unicode="&#xba;" d="M270 1081q0 117 72 194t213 77q145 0 215 -75t70 -196q0 -119 -72 -197.5t-213 -78.5q-143 0 -214 77.5t-71 198.5zM420 1081q0 -170 135 -170q133 0 133 170q0 90 -33.5 127t-99.5 37q-135 0 -135 -164z" />
<glyph unicode="&#xbb;" horiz-adv-x="839" d="M47 926h213l191 -373l-191 -365h-211l197 369zM391 926h213l191 -373l-191 -365h-211l197 369z" />
<glyph unicode="&#xbc;" horiz-adv-x="1699" d="M131 1190l191 135h167l-16 -684h-166v539l-129 -103zM291 0l741 1288h201l-744 -1288h-198zM868 295l334 389h178v-389h111v-119h-111v-176h-163v176h-297zM1006 295h211v244z" />
<glyph unicode="&#xbd;" horiz-adv-x="1699" d="M123 1190l190 135h166l-14 -684h-166v539l-129 -103zM281 0l757 1288h185l-744 -1288h-198zM995 125l84 53q68 43 108 72l93 70.5t79.5 80.5t26.5 72q0 66 -33.5 87.5t-92.5 21.5q-80 0 -193 -56l-45 127q150 47 240 47q121 0 206.5 -52t85.5 -171q0 -41 -27.5 -87 t-59 -78.5t-92 -77t-88 -62.5t-85.5 -53h354v-119h-518z" />
<glyph unicode="&#xbe;" horiz-adv-x="1699" d="M100 662l45 126q78 -39 193 -38q63 0 102 26.5t39 67.5q0 68 -58.5 89t-180.5 21v113q119 0 170 17.5t51 74.5q0 74 -115 74q-72 0 -186 -51l-45 129q88 41 235 41q131 0 204 -48.5t73 -142.5q0 -66 -48.5 -103.5t-121.5 -45.5q76 -10 132 -52t56 -118q0 -78 -52 -127 t-116.5 -65.5t-142.5 -16.5q-142 0 -234 29zM358 0l742 1288h200l-743 -1288h-199zM907 295l334 389h178v-389h111v-119h-111v-176h-164v176h-297zM1044 295h211v244z" />
<glyph unicode="&#xbf;" horiz-adv-x="942" d="M104 322q0 68 35 124t85 96l100 78q49 38 83.5 84t34.5 97v164h230v-174q0 -78 -33 -138.5t-80 -99.5t-94 -71.5t-80 -72.5t-33 -87q0 -76 36 -110t130 -34q59 0 164.5 22.5t159.5 49.5l37 -209q-68 -23 -178.5 -42t-182.5 -19q-61 0 -109.5 5t-108.5 25.5t-100 55 t-68 100.5t-28 156zM434 1100v225h246v-225h-246z" />
<glyph unicode="&#xc0;" horiz-adv-x="1394" d="M59 0l539 1325h238l499 -1325h-284l-119 354h-473l-125 -354h-275zM492 1657h231l197 -240h-160zM530 549h336l-161 489z" />
<glyph unicode="&#xc1;" horiz-adv-x="1394" d="M59 0l539 1325h238l499 -1325h-284l-119 354h-473l-125 -354h-275zM506 1417l199 240h229l-268 -240h-160zM530 549h336l-161 489z" />
<glyph unicode="&#xc2;" horiz-adv-x="1394" d="M59 0l539 1325h238l499 -1325h-284l-119 354h-473l-125 -354h-275zM430 1421l203 240h160l196 -240h-168l-108 131l-115 -131h-168zM530 549h336l-161 489z" />
<glyph unicode="&#xc3;" horiz-adv-x="1394" d="M59 0l539 1325h238l499 -1325h-284l-119 354h-473l-125 -354h-275zM389 1452q37 86 89 120t140 34q47 0 110 -46.5t91 -46.5q39 0 66.5 30t38.5 63l123 -58q-25 -76 -86.5 -121t-137.5 -45q-59 0 -119.5 46.5t-87.5 46.5q-78 0 -104 -80zM530 549h336l-161 489z" />
<glyph unicode="&#xc4;" horiz-adv-x="1394" d="M59 0l539 1325h238l499 -1325h-284l-119 354h-473l-125 -354h-275zM442 1384v191h209v-191h-209zM530 549h336l-161 489zM768 1384v191h209v-191h-209z" />
<glyph unicode="&#xc5;" horiz-adv-x="1394" d="M59 0l539 1325h238l499 -1325h-284l-119 354h-473l-125 -354h-275zM530 549h336l-161 489zM557 1542.5q0 69.5 49 118.5t121 49t121 -48t49 -120q0 -70 -49 -119t-121 -49q-70 0 -120 49.5t-50 119zM641 1544q0 -31 24.5 -58.5t61.5 -27.5q41 0 62.5 24.5t21.5 61.5 t-22.5 61.5t-61.5 24.5q-37 0 -61.5 -26.5t-24.5 -59.5z" />
<glyph unicode="&#xc6;" horiz-adv-x="2023" d="M59 0l752 1325h1001v-199h-684l56 -342h585v-198h-550l67 -387h545v-199h-766l-53 354h-467l-191 -354h-295zM649 549h334l-72 491z" />
<glyph unicode="&#xc7;" horiz-adv-x="1177" d="M121 662q0 145 31.5 265t100.5 218t192.5 153.5t293.5 55.5q180 0 351 -56l-80 -217q-172 74 -271 74q-188 0 -270 -125t-82 -366q0 -254 79 -380t261 -126q33 0 60.5 3t64.5 15l50 16.5t63.5 26t58.5 23.5l80 -217q-176 -63 -363 -66l-2 -10q70 0 110 -48t40 -102 q0 -113 -85 -176t-194 -63q-94 0 -213 16l49 162q131 -16 154 -17q98 0 98 74q0 41 -30.5 57.5t-132.5 16.5l28 106q-442 91 -442 687z" />
<glyph unicode="&#xc8;" horiz-adv-x="1189" d="M193 0v1325h786v-199h-528v-342h485v-198h-485v-387h546v-199h-804zM348 1657h232l196 -240h-160z" />
<glyph unicode="&#xc9;" horiz-adv-x="1189" d="M193 0v1325h786v-199h-528v-342h485v-198h-485v-387h546v-199h-804zM332 1386l196 240h232l-268 -240h-160z" />
<glyph unicode="&#xca;" horiz-adv-x="1189" d="M193 0v1325h786v-199h-528v-342h485v-198h-485v-387h546v-199h-804zM303 1417l203 240h160l196 -240h-168l-108 131l-115 -131h-168z" />
<glyph unicode="&#xcb;" horiz-adv-x="1189" d="M193 0v1325h786v-199h-528v-342h485v-198h-485v-387h546v-199h-804zM340 1384v191h209v-191h-209zM666 1384v191h208v-191h-208z" />
<glyph unicode="&#xcc;" horiz-adv-x="593" d="M31 1657h231l197 -240h-160zM168 0v1325h258v-1325h-258z" />
<glyph unicode="&#xcd;" horiz-adv-x="593" d="M94 1417l197 240h231l-268 -240h-160zM168 0v1325h258v-1325h-258z" />
<glyph unicode="&#xce;" horiz-adv-x="593" d="M18 1409l203 240h160l197 -240h-168l-109 131l-115 -131h-168zM168 0v1325h258v-1325h-258z" />
<glyph unicode="&#xcf;" horiz-adv-x="593" d="M35 1466v191h209v-191h-209zM168 0v1325h258v-1325h-258zM360 1466v191h209v-191h-209z" />
<glyph unicode="&#xd0;" horiz-adv-x="1378" d="M59 653v178h134v494h432q328 0 480 -151.5t152 -505.5q0 -360 -150.5 -514t-481.5 -154h-432v653h-134zM451 199h192q172 0 260 98t88 369q0 152 -26.5 248t-82 140t-112.5 58t-145 14h-174v-295h206v-178h-206v-454z" />
<glyph unicode="&#xd1;" horiz-adv-x="1488" d="M193 0v1325h382l467 -1020v1020h254v-1325h-387l-471 1020v-1020h-245zM416 1450q37 86 89 120t140 34q47 0 109.5 -46.5t91.5 -46.5q39 0 66.5 30t37.5 63l123 -58q-25 -76 -86 -121t-137 -45q-59 0 -119.5 46.5t-87.5 46.5q-78 0 -104 -80z" />
<glyph unicode="&#xd2;" horiz-adv-x="1484" d="M121 657q0 315 149.5 505t477.5 190q616 0 616 -695q0 -319 -146.5 -507.5t-472.5 -188.5q-624 0 -624 696zM387 657q0 -268 85 -382.5t273 -114.5q186 0 269.5 121.5t83.5 375.5q0 262 -85 379t-268 117q-184 0 -271 -119t-87 -377zM446 1657h232l196 -240h-159z" />
<glyph unicode="&#xd3;" horiz-adv-x="1484" d="M121 657q0 315 149.5 505t477.5 190q616 0 616 -695q0 -319 -146.5 -507.5t-472.5 -188.5q-624 0 -624 696zM387 657q0 -268 85 -382.5t273 -114.5q186 0 269.5 121.5t83.5 375.5q0 262 -85 379t-268 117q-184 0 -271 -119t-87 -377zM543 1417l196 240h232l-269 -240 h-159z" />
<glyph unicode="&#xd4;" horiz-adv-x="1484" d="M121 657q0 315 149.5 505t477.5 190q616 0 616 -695q0 -319 -146.5 -507.5t-472.5 -188.5q-624 0 -624 696zM387 657q0 -268 85 -382.5t273 -114.5q186 0 269.5 121.5t83.5 375.5q0 262 -85 379t-268 117q-184 0 -271 -119t-87 -377zM459 1417l203 240h159l197 -240h-168 l-109 131l-114 -131h-168z" />
<glyph unicode="&#xd5;" horiz-adv-x="1484" d="M121 657q0 315 149.5 505t477.5 190q616 0 616 -695q0 -319 -146.5 -507.5t-472.5 -188.5q-624 0 -624 696zM387 657q0 -268 85 -382.5t273 -114.5q186 0 269.5 121.5t83.5 375.5q0 262 -85 379t-268 117q-184 0 -271 -119t-87 -377zM428 1452q37 86 89 120t140 34 q47 0 109.5 -46.5t91.5 -46.5q39 0 66.5 30t38.5 63l122 -58q-25 -76 -86 -121t-137 -45q-59 0 -119.5 46.5t-87.5 46.5q-78 0 -104 -80z" />
<glyph unicode="&#xd6;" horiz-adv-x="1484" d="M121 657q0 315 149.5 505t477.5 190q616 0 616 -695q0 -319 -146.5 -507.5t-472.5 -188.5q-624 0 -624 696zM387 657q0 -268 85 -382.5t273 -114.5q186 0 269.5 121.5t83.5 375.5q0 262 -85 379t-268 117q-184 0 -271 -119t-87 -377zM479 1384v191h209v-191h-209z M805 1384v191h209v-191h-209z" />
<glyph unicode="&#xd7;" d="M92 193l324 323l-324 324l139 139l324 -324l324 324l139 -139l-324 -324l324 -323l-139 -140l-324 324l-324 -324z" />
<glyph unicode="&#xd8;" horiz-adv-x="1484" d="M33 -2l184 217q-96 164 -96 442q0 315 149.5 505t477.5 190q219 0 364 -90l152 178l168 -154l-162 -190q94 -162 94 -439q0 -319 -146.5 -507.5t-472.5 -188.5q-223 0 -368 90l-176 -207zM387 657q0 -129 19 -221l557 651q-80 66 -218 66q-184 0 -271 -119t-87 -377z M522 221q80 -61 223 -61q186 0 269.5 121.5t83.5 375.5q0 123 -19 215z" />
<glyph unicode="&#xd9;" horiz-adv-x="1480" d="M193 489v836h258v-815q0 -205 79.5 -277.5t223.5 -72.5q276 0 276 350v815h258v-840q0 -260 -137 -392t-397 -132q-561 0 -561 528zM446 1657h232l196 -240h-159z" />
<glyph unicode="&#xda;" horiz-adv-x="1480" d="M193 489v836h258v-815q0 -205 79.5 -277.5t223.5 -72.5q276 0 276 350v815h258v-840q0 -260 -137 -392t-397 -132q-561 0 -561 528zM578 1386l196 240h232l-269 -240h-159z" />
<glyph unicode="&#xdb;" horiz-adv-x="1480" d="M193 489v836h258v-815q0 -205 79.5 -277.5t223.5 -72.5q276 0 276 350v815h258v-840q0 -260 -137 -392t-397 -132q-561 0 -561 528zM463 1417l203 240h159l197 -240h-168l-109 131l-114 -131h-168z" />
<glyph unicode="&#xdc;" horiz-adv-x="1480" d="M193 489v836h258v-815q0 -205 79.5 -277.5t223.5 -72.5q276 0 276 350v815h258v-840q0 -260 -137 -392t-397 -132q-561 0 -561 528zM485 1384v191h209v-191h-209zM811 1384v191h209v-191h-209z" />
<glyph unicode="&#xdd;" horiz-adv-x="1267" d="M29 1325h293l321 -508l318 508h278l-477 -729v-596h-258v588zM354 1417l197 240h231l-268 -240h-160z" />
<glyph unicode="&#xde;" horiz-adv-x="1228" d="M193 0v1325h258v-248h206q469 0 469 -397q0 -410 -446 -410h-229v-270h-258zM451 469h213q201 0 200 211q0 123 -56 161t-155 38h-202v-410z" />
<glyph unicode="&#xdf;" horiz-adv-x="1099" d="M135 0v965q0 190 96.5 285.5t270.5 95.5q72 0 133 -14.5t120.5 -47.5t94.5 -99.5t35 -160.5q0 -66 -19.5 -119t-55.5 -90t-63.5 -58.5t-67.5 -43t-44 -25.5q6 -2 63.5 -23.5t84 -34t77.5 -49t77 -75.5t48.5 -104.5t22.5 -145.5q0 -98 -36 -177t-93.5 -129t-136 -84 t-159.5 -48.5t-169 -14.5l80 197q131 0 203.5 76t72.5 184q0 41 -6 77t-22 62l-28 48q-13 22 -40 40l-42 29q-15 10 -48 22.5t-45.5 16.5t-47 13.5t-40.5 11.5v182q111 72 149 125q47 66 47 143q0 63 -42 100t-103 37q-135 0 -135 -180v-987h-232z" />
<glyph unicode="&#xe0;" horiz-adv-x="1069" d="M88 246q0 342 514 342h78v45q0 68 -26.5 109.5t-106.5 41.5q-170 0 -342 -82l-80 191q193 70 434 70q162 0 258 -76t96 -223v-377q0 -43 17 -152l20 -135h-219l-35 94q-125 -121 -243 -121q-178 0 -271.5 70t-93.5 203zM227 1325h232l196 -240h-159zM330 256 q0 -104 166 -104q117 0 186 96v184h-51q-160 0 -230.5 -44t-70.5 -132z" />
<glyph unicode="&#xe1;" horiz-adv-x="1069" d="M88 246q0 342 514 342h78v45q0 68 -26.5 109.5t-106.5 41.5q-170 0 -342 -82l-80 191q193 70 434 70q162 0 258 -76t96 -223v-377q0 -43 17 -152l20 -135h-219l-35 94q-125 -121 -243 -121q-178 0 -271.5 70t-93.5 203zM317 1085l197 240h231l-268 -240h-160zM330 256 q0 -104 166 -104q117 0 186 96v184h-51q-160 0 -230.5 -44t-70.5 -132z" />
<glyph unicode="&#xe2;" horiz-adv-x="1069" d="M88 246q0 342 514 342h78v45q0 68 -26.5 109.5t-106.5 41.5q-170 0 -342 -82l-80 191q193 70 434 70q162 0 258 -76t96 -223v-377q0 -43 17 -152l20 -135h-219l-35 94q-125 -121 -243 -121q-178 0 -271.5 70t-93.5 203zM217 1085l203 240h160l196 -240h-168l-108 132 l-115 -132h-168zM330 256q0 -104 166 -104q117 0 186 96v184h-51q-160 0 -230.5 -44t-70.5 -132z" />
<glyph unicode="&#xe3;" horiz-adv-x="1069" d="M88 246q0 342 514 342h78v45q0 68 -26.5 109.5t-106.5 41.5q-170 0 -342 -82l-80 191q193 70 434 70q162 0 258 -76t96 -223v-377q0 -43 17 -152l20 -135h-219l-35 94q-125 -121 -243 -121q-178 0 -271.5 70t-93.5 203zM174 1120q37 86 89 120t140 34q47 0 109.5 -46 t91.5 -46q20 0 41 11t31 20.5t30.5 33t24.5 27.5l100 -57q-25 -76 -86 -121t-137 -45q-59 0 -119.5 46t-87.5 46q-78 0 -104 -80zM330 256q0 -104 166 -104q117 0 186 96v184h-51q-160 0 -230.5 -44t-70.5 -132z" />
<glyph unicode="&#xe4;" horiz-adv-x="1069" d="M88 246q0 342 514 342h78v45q0 68 -26.5 109.5t-106.5 41.5q-170 0 -342 -82l-80 191q193 70 434 70q162 0 258 -76t96 -223v-377q0 -43 17 -152l20 -135h-219l-35 94q-125 -121 -243 -121q-178 0 -271.5 70t-93.5 203zM254 1081v203h211v-203h-211zM330 256 q0 -104 166 -104q117 0 186 96v184h-51q-160 0 -230.5 -44t-70.5 -132zM584 1081v203h211v-203h-211z" />
<glyph unicode="&#xe5;" horiz-adv-x="1069" d="M88 246q0 342 514 342h78v45q0 68 -26.5 109.5t-106.5 41.5q-170 0 -342 -82l-80 191q193 70 434 70q162 0 258 -76t96 -223v-377q0 -43 17 -152l20 -135h-219l-35 94q-125 -121 -243 -121q-178 0 -271.5 70t-93.5 203zM330 256q0 -104 166 -104q117 0 186 96v184h-51 q-160 0 -230.5 -44t-70.5 -132zM340 1206.5q0 69.5 49 118.5t121 49t121 -48t49 -120q0 -70 -49 -119t-121 -49q-70 0 -120 49.5t-50 119zM424 1208q0 -31 24.5 -58.5t61.5 -27.5q41 0 62.5 24.5t21.5 61.5t-22.5 61.5t-61.5 24.5q-37 0 -61.5 -26.5t-24.5 -59.5z" />
<glyph unicode="&#xe6;" horiz-adv-x="1648" d="M88 246q0 342 514 342h78v45q0 68 -26.5 109.5t-106.5 41.5q-170 0 -342 -82l-80 191q193 70 434 70q172 0 275 -107q119 106 276 107q250 0 348 -141.5t98 -448.5h-643q29 -227 226 -228q127 0 286 80l76 -178q-162 -74 -379 -74q-123 0 -216 49.5t-126 120.5 q-147 -170 -327 -170q-178 0 -271.5 70t-93.5 203zM330 256q0 -104 166 -104q102 0 186 116v152h-51q-164 0 -232.5 -39t-68.5 -125zM913 545h412q-14 240 -213 239q-74 0 -133.5 -54t-65.5 -185z" />
<glyph unicode="&#xe7;" horiz-adv-x="940" d="M88 461q0 233 119 367.5t350 134.5q59 0 153.5 -21.5t151.5 -44.5l-80 -190q-156 78 -227 77q-119 0 -174 -73.5t-55 -249.5q0 -309 227 -309q86 0 238 77l79 -190q-96 -47 -272 -64l-8 -30q70 0 106.5 -46t36.5 -100q0 -113 -82 -176t-188 -63q-94 0 -213 16l49 154 q131 -16 154 -17q43 0 73.5 20.5t30.5 61.5t-32.5 57.5t-137.5 16.5l31 119q-162 37 -246 163t-84 310z" />
<glyph unicode="&#xe8;" horiz-adv-x="1067" d="M88 459q0 88 21.5 171t69.5 160.5t139.5 125t213.5 47.5q240 0 341.5 -141.5t101.5 -442.5h-643q14 -113 71.5 -173.5t153.5 -60.5q133 0 293 80l76 -178q-162 -74 -385 -74q-217 0 -335 139.5t-118 346.5zM252 1325h231l197 -240h-160zM332 545h420q-14 240 -222 239 q-74 0 -133 -54t-65 -185z" />
<glyph unicode="&#xe9;" horiz-adv-x="1067" d="M88 459q0 88 21.5 171t69.5 160.5t139.5 125t213.5 47.5q240 0 341.5 -141.5t101.5 -442.5h-643q14 -113 71.5 -173.5t153.5 -60.5q133 0 293 80l76 -178q-162 -74 -385 -74q-217 0 -335 139.5t-118 346.5zM332 545h420q-14 240 -222 239q-74 0 -133 -54t-65 -185z M379 1085l196 240h232l-268 -240h-160z" />
<glyph unicode="&#xea;" horiz-adv-x="1067" d="M88 459q0 88 21.5 171t69.5 160.5t139.5 125t213.5 47.5q240 0 341.5 -141.5t101.5 -442.5h-643q14 -113 71.5 -173.5t153.5 -60.5q133 0 293 80l76 -178q-162 -74 -385 -74q-217 0 -335 139.5t-118 346.5zM270 1085l203 240h160l196 -240h-167l-109 132l-115 -132h-168z M332 545h420q-14 240 -222 239q-74 0 -133 -54t-65 -185z" />
<glyph unicode="&#xeb;" horiz-adv-x="1067" d="M88 459q0 88 21.5 171t69.5 160.5t139.5 125t213.5 47.5q240 0 341.5 -141.5t101.5 -442.5h-643q14 -113 71.5 -173.5t153.5 -60.5q133 0 293 80l76 -178q-162 -74 -385 -74q-217 0 -335 139.5t-118 346.5zM285 1094v190h209v-190h-209zM332 545h420q-14 240 -222 239 q-74 0 -133 -54t-65 -185zM610 1094v190h209v-190h-209z" />
<glyph unicode="&#xec;" horiz-adv-x="505" d="M10 1325h232l196 -240h-159zM137 0v936h232v-936h-232z" />
<glyph unicode="&#xed;" horiz-adv-x="505" d="M37 1085l196 240h232l-268 -240h-160zM137 0v936h232v-936h-232z" />
<glyph unicode="&#xee;" horiz-adv-x="505" d="M-10 1085l203 240h159l197 -240h-168l-109 132l-114 -132h-168zM137 0v936h232v-936h-232z" />
<glyph unicode="&#xef;" horiz-adv-x="505" d="M-14 1141v190h209v-190h-209zM137 0v936h232v-936h-232zM311 1141v190h209v-190h-209z" />
<glyph unicode="&#xf0;" d="M94 377q0 219 105.5 335.5t316.5 116.5q61 0 139 -37.5t117 -113.5q0 297 -211 401l-160 -106l-161 94l116 80q-31 6 -104 6h-51l-76 211q258 -4 442 -72l127 90l158 -94l-119 -82q281 -184 281 -626q0 -614 -475 -615q-182 0 -313.5 116t-131.5 296zM352 377 q0 -109 52.5 -164t132.5 -55q106 0 161.5 67.5t55.5 257.5q-59 154 -219 154q-63 0 -103.5 -23.5t-56 -67.5t-19.5 -76t-4 -81v-12z" />
<glyph unicode="&#xf1;" horiz-adv-x="960" d="M111 936h213l36 -123q4 4 22.5 25.5t31 33t37 32t46 31.5t52.5 20.5t61 9.5q193 0 265.5 -97.5t72.5 -277.5v-590h-231v600q0 43 -4 69.5t-17.5 56.5t-44 45t-80.5 15q-119 0 -204 -176v-610h-232v737q0 35 -4 68t-11 70.5t-9 60.5zM203 1120q37 86 89 120t140 34 q47 0 109.5 -46t91.5 -46q37 0 61.5 25.5t24.5 54.5q0 2 -1 6t-1 6l143 -57q-25 -76 -86 -121t-137 -45q-59 0 -119.5 46t-87.5 46q-78 0 -104 -80z" />
<glyph unicode="&#xf2;" horiz-adv-x="1099" d="M88 473q0 215 113.5 353.5t349.5 138.5q240 0 350.5 -135.5t110.5 -356.5q0 -104 -25.5 -192t-78 -159t-144.5 -111t-213 -40q-238 0 -350.5 140.5t-112.5 361.5zM297 1325h231l197 -240h-160zM326 473q0 -324 225 -323q223 0 223 323q0 170 -52 241.5t-171 71.5 q-115 0 -170 -72.5t-55 -240.5z" />
<glyph unicode="&#xf3;" horiz-adv-x="1099" d="M88 473q0 215 113.5 353.5t349.5 138.5q240 0 350.5 -135.5t110.5 -356.5q0 -104 -25.5 -192t-78 -159t-144.5 -111t-213 -40q-238 0 -350.5 140.5t-112.5 361.5zM326 473q0 -324 225 -323q223 0 223 323q0 170 -52 241.5t-171 71.5q-115 0 -170 -72.5t-55 -240.5z M371 1085l196 240h232l-269 -240h-159z" />
<glyph unicode="&#xf4;" horiz-adv-x="1099" d="M88 473q0 215 113.5 353.5t349.5 138.5q240 0 350.5 -135.5t110.5 -356.5q0 -104 -25.5 -192t-78 -159t-144.5 -111t-213 -40q-238 0 -350.5 140.5t-112.5 361.5zM272 1085l203 240h160l196 -240h-167l-109 132l-115 -132h-168zM326 473q0 -324 225 -323q223 0 223 323 q0 170 -52 241.5t-171 71.5q-115 0 -170 -72.5t-55 -240.5z" />
<glyph unicode="&#xf5;" horiz-adv-x="1099" d="M88 473q0 215 113.5 353.5t349.5 138.5q240 0 350.5 -135.5t110.5 -356.5q0 -104 -25.5 -192t-78 -159t-144.5 -111t-213 -40q-238 0 -350.5 140.5t-112.5 361.5zM207 1120q37 86 89 120t140 34q47 0 109.5 -46t91.5 -46q39 0 66.5 29.5t37.5 62.5l123 -57 q-25 -76 -86 -121t-137 -45q-59 0 -119.5 46t-87.5 46q-78 0 -104 -80zM326 473q0 -324 225 -323q223 0 223 323q0 170 -52 241.5t-171 71.5q-115 0 -170 -72.5t-55 -240.5z" />
<glyph unicode="&#xf6;" horiz-adv-x="1099" d="M88 473q0 215 113.5 353.5t349.5 138.5q240 0 350.5 -135.5t110.5 -356.5q0 -104 -25.5 -192t-78 -159t-144.5 -111t-213 -40q-238 0 -350.5 140.5t-112.5 361.5zM289 1094v190h209v-190h-209zM326 473q0 -324 225 -323q223 0 223 323q0 170 -52 241.5t-171 71.5 q-115 0 -170 -72.5t-55 -240.5zM614 1094v190h209v-190h-209z" />
<glyph unicode="&#xf7;" d="M92 373v155h922v-155h-922zM430 16v226h246v-226h-246zM430 659v226h246v-226h-246z" />
<glyph unicode="&#xf8;" horiz-adv-x="1099" d="M33 70l112 125q-57 113 -57 278q0 215 113.5 353.5t349.5 138.5q145 0 250 -56l102 111l154 -150l-105 -114q59 -117 60 -283q0 -104 -25.5 -192t-78 -159t-144.5 -111t-213 -40q-156 0 -260 64l-105 -115zM326 473q0 -31 4 -80l338 369q-45 25 -117 24 q-115 0 -170 -72.5t-55 -240.5zM428 184q51 -35 123 -34q223 0 223 323q0 31 -4 84z" />
<glyph unicode="&#xf9;" horiz-adv-x="1069" d="M135 346v590h232v-600q0 -41 4 -68.5t16 -57.5t43 -45t76 -15q111 0 196 176v610h232v-737q0 -35 4 -68t11 -70.5t9 -60.5h-213l-36 123q-4 -4 -27 -30.5t-39 -42t-44 -37t-61.5 -32t-70.5 -10.5q-182 0 -257 98.5t-75 276.5zM264 1325h232l196 -240h-160z" />
<glyph unicode="&#xfa;" horiz-adv-x="1069" d="M135 346v590h232v-600q0 -41 4 -68.5t16 -57.5t43 -45t76 -15q111 0 196 176v610h232v-737q0 -35 4 -68t11 -70.5t9 -60.5h-213l-36 123q-4 -4 -27 -30.5t-39 -42t-44 -37t-61.5 -32t-70.5 -10.5q-182 0 -257 98.5t-75 276.5zM350 1085l197 240h231l-268 -240h-160z" />
<glyph unicode="&#xfb;" horiz-adv-x="1069" d="M135 346v590h232v-600q0 -41 4 -68.5t16 -57.5t43 -45t76 -15q111 0 196 176v610h232v-737q0 -35 4 -68t11 -70.5t9 -60.5h-213l-36 123q-4 -4 -27 -30.5t-39 -42t-44 -37t-61.5 -32t-70.5 -10.5q-182 0 -257 98.5t-75 276.5zM248 1085l203 240h159l197 -240h-168 l-109 132l-114 -132h-168z" />
<glyph unicode="&#xfc;" horiz-adv-x="1069" d="M135 346v590h232v-600q0 -41 4 -68.5t16 -57.5t43 -45t76 -15q111 0 196 176v610h232v-737q0 -35 4 -68t11 -70.5t9 -60.5h-213l-36 123q-4 -4 -27 -30.5t-39 -42t-44 -37t-61.5 -32t-70.5 -10.5q-182 0 -257 98.5t-75 276.5zM266 1094v190h209v-190h-209zM592 1094v190 h209v-190h-209z" />
<glyph unicode="&#xfd;" horiz-adv-x="1085" d="M74 936h248l239 -637l209 637h242l-391 -1086q-47 -129 -130 -216t-227 -136l-78 191q145 39 181 133l82 217zM328 1085l196 240h232l-269 -240h-159z" />
<glyph unicode="&#xfe;" horiz-adv-x="1087" d="M111 -412q10 74 17 326t7 373v1059h232v-533q109 150 245 150q199 0 293 -138.5t94 -351.5t-109.5 -356.5t-309.5 -143.5q-78 0 -134.5 38t-85.5 83l-36 -506h-213zM362 283q61 -131 181 -131q219 0 219 317q0 315 -193 315q-68 0 -113.5 -47t-93.5 -133v-321z" />
<glyph unicode="&#xff;" horiz-adv-x="1085" d="M74 936h248l239 -637l209 637h242l-391 -1086q-47 -129 -130 -216t-227 -136l-78 191q145 39 181 133l82 217zM299 1094v190h209v-190h-209zM625 1094v190h209v-190h-209z" />
<glyph unicode="&#x152;" horiz-adv-x="2078" d="M121 657q0 315 149.5 505t477.5 190q127 0 215 -27h905v-199h-629q84 -135 100 -342h486v-198h-484q-10 -238 -100 -387h645v-199h-889q-111 -39 -252 -39q-624 0 -624 696zM387 657q0 -268 85 -382.5t273 -114.5q184 0 258 119.5t74 377.5q0 266 -75.5 381t-256.5 115 q-184 0 -271 -119t-87 -377z" />
<glyph unicode="&#x153;" horiz-adv-x="1742" d="M88 473q0 215 113.5 353.5t349.5 138.5q223 0 342 -134q113 131 311 132q250 0 348.5 -141.5t98.5 -448.5h-643q29 -227 225 -228q127 0 287 80l75 -178q-162 -74 -378 -74q-203 0 -324 138q-119 -139 -342 -140q-238 0 -350.5 140.5t-112.5 361.5zM326 473 q0 -324 225 -323q223 0 223 323q0 170 -52 241.5t-171 71.5q-115 0 -170 -72.5t-55 -240.5zM1008 545h411q-14 240 -213 239q-74 0 -133 -54t-65 -185z" />
<glyph unicode="&#x178;" horiz-adv-x="1267" d="M29 1325h293l321 -508l318 508h278l-477 -729v-596h-258v588zM389 1462v195h205v-195h-205zM709 1462v195h206v-195h-206z" />
<glyph unicode="&#x2c6;" horiz-adv-x="505" d="M-27 1085l203 240h160l196 -240h-167l-109 132l-115 -132h-168z" />
<glyph unicode="&#x2dc;" horiz-adv-x="505" d="M-76 1120q37 86 89.5 120t140.5 34q47 0 109.5 -46t90.5 -46q39 0 67 29.5t38 62.5l123 -57q-25 -76 -86.5 -121t-137.5 -45q-59 0 -119.5 46t-86.5 46q-78 0 -105 -80z" />
<glyph unicode="&#x2013;" horiz-adv-x="1024" d="M-2 399v176h1028v-176h-1028z" />
<glyph unicode="&#x2014;" horiz-adv-x="2048" d="M-2 383v192h2052v-192h-2052z" />
<glyph unicode="&#x2018;" horiz-adv-x="552" d="M92 942l203 385h156l-175 -385h-184z" />
<glyph unicode="&#x2019;" horiz-adv-x="552" d="M92 942l174 385h185l-201 -385h-158z" />
<glyph unicode="&#x201a;" horiz-adv-x="552" d="M92 -180l174 385h185l-201 -385h-158z" />
<glyph unicode="&#x201c;" horiz-adv-x="839" d="M82 942l203 385h155l-174 -385h-184zM399 942l201 385h158l-174 -385h-185z" />
<glyph unicode="&#x201d;" horiz-adv-x="839" d="M82 942l174 385h184l-200 -385h-158zM399 942l174 385h185l-203 -385h-156z" />
<glyph unicode="&#x201e;" horiz-adv-x="839" d="M82 -180l174 385h184l-200 -385h-158zM399 -180l174 385h185l-203 -385h-156z" />
<glyph unicode="&#x2022;" d="M260 664q0 123 85 207.5t208 84.5t208 -85t85 -207.5t-85 -208.5t-208 -86q-125 0 -209 85t-84 210z" />
<glyph unicode="&#x2026;" horiz-adv-x="1658" d="M154 0v225h245v-225h-245zM707 0v225h245v-225h-245zM1260 0v225h245v-225h-245z" />
<glyph unicode="&#x2039;" horiz-adv-x="552" d="M86 553l190 373h213l-198 -369l196 -369h-211z" />
<glyph unicode="&#x203a;" horiz-adv-x="552" d="M86 926h213l190 -373l-190 -365h-211l197 369z" />
<glyph unicode="&#x2122;" horiz-adv-x="1894" d="M139 1214v111h592v-111h-219v-618h-154v618h-219zM825 596v729h254l203 -539l205 539h244v-729h-152v578l-223 -578h-160l-223 578v-578h-148z" />
<glyph unicode="&#xe000;" horiz-adv-x="935" d="M0 935h935v-935h-935v935z" />
<glyph unicode="&#xfb01;" d="M23 758v178h141v27q0 100 40 177t107.5 121t127 66.5t126.5 34.5l80 -191q-127 -20 -188.5 -61t-61.5 -129v-45h172v-178h-172v-758h-231v758h-141zM731 1124v201h244v-201h-244zM737 0v936h232v-936h-232z" />
<glyph unicode="&#xfb02;" d="M23 758v178h141v27q0 100 40 177t107.5 121t127 66.5t126.5 34.5l80 -191q-127 -20 -188.5 -61t-61.5 -129v-45h172v-178h-172v-758h-231v758h-141zM743 0v1346h232v-1346h-232z" />
<glyph unicode="&#xfb03;" horiz-adv-x="1873" d="M23 758v178h141v27q0 102 44 183t115.5 129t148.5 74.5t155 32.5l57 -190q-145 -14 -217 -63.5t-72 -147.5v-45h213v-178h-213v-758h-231v758h-141zM707 758v178h141v27q0 102 44 183t115.5 129t148.5 74.5t155 32.5l57 -190q-145 -14 -217 -63.5t-72 -147.5v-45h213 v-178h-213v-758h-231v758h-141zM1499 1124v201h244v-201h-244zM1505 0v936h232v-936h-232z" />
<glyph unicode="&#xfb04;" horiz-adv-x="1869" d="M23 758v178h141v27q0 102 44 183t115.5 129t148.5 74.5t155 32.5l57 -190q-145 -14 -217 -63.5t-72 -147.5v-45h213v-178h-213v-758h-231v758h-141zM707 758v178h141v27q0 102 44 183t115.5 129t148.5 74.5t155 32.5l57 -190q-145 -14 -217 -63.5t-72 -147.5v-45h213 v-178h-213v-758h-231v758h-141zM1503 0v1346h232v-1346h-232z" />
<glyph horiz-adv-x="499" />
</font>
</defs>
</svg>
