<?xml version="1.0" standalone="no"?>
<!DOCTYPE svg PUBLIC "-//W3C//DTD SVG 1.1//EN" "http://www.w3.org/Graphics/SVG/1.1/DTD/svg11.dtd" >
<svg xmlns="http://www.w3.org/2000/svg">
<metadata>
This is a custom SVG webfont generated by Font Squirrel.
Copyright   : Copyright c 2003 by This Font is designed by Ralph Oliver du Carrois All rights reserved
Foundry     : This Font is designed by Ralph Oliver du Carrois
</metadata>
<defs>
<font id="ColaborateThinRegular" horiz-adv-x="942" >
<font-face units-per-em="2048" ascent="1638" descent="-410" />
<missing-glyph horiz-adv-x="471" />
<glyph unicode=" "  horiz-adv-x="471" />
<glyph unicode="&#x09;" horiz-adv-x="471" />
<glyph unicode="&#xa0;" horiz-adv-x="471" />
<glyph unicode="!" horiz-adv-x="471" d="M176 0v145h121v-145h-121zM193 336v989h86v-989h-86z" />
<glyph unicode="&#x22;" horiz-adv-x="696" d="M164 1325h100l-16 -444h-68zM432 1325h100l-16 -444h-67z" />
<glyph unicode="#" d="M23 412v80h190l57 325h-168v80h183l75 428h91l-76 -428h258l76 428h90l-76 -428h197v-80h-211l-58 -325h189v-80h-203l-72 -412h-90l72 412h-258l-72 -412h-90l72 412h-176zM303 492h258l57 325h-258z" />
<glyph unicode="$" d="M96 25l37 86q68 -27 100.5 -37.5t84 -20.5t106.5 -10v610q-78 29 -123 51.5t-99.5 63.5t-80 100.5t-25.5 139.5q0 156 88 237.5t240 95.5v187h90v-182q137 -4 279 -52l-37 -86q-6 2 -23.5 10.5t-24 10.5t-21.5 8l-23 9q-8 3 -24.5 7l-28.5 7l-27 5q-16 3 -34 4t-36 1 v-543q76 -29 124 -53.5t101.5 -68.5t80 -108.5t26.5 -152.5q0 -168 -91 -258t-241 -113v-174h-90v168q-121 1 -328 58zM195 1008q0 -94 58 -148.5t171 -97.5v504q-229 -33 -229 -258zM514 55q100 23 167 92.5t67 192.5q0 111 -60.5 172t-173.5 106v-563z" />
<glyph unicode="%" horiz-adv-x="1413" d="M121 995q0 350 239 351q80 0 132.5 -30t74 -87.5t28.5 -107.5t7 -126q0 -59 -3 -101t-17.5 -95.5t-39 -86t-71.5 -56t-113 -23.5q-80 0 -131 31.5t-72.5 92t-27.5 111.5t-6 127zM190 995q0 -66 5.5 -111.5t20.5 -96t51 -76t91 -25.5q59 0 97.5 24.5t53.5 75t20.5 95.5 t5.5 114.5t-4.5 110.5t-19.5 90t-53 72.5t-98 23.5q-170 0 -170 -297zM285 0l741 1288h94l-741 -1288h-94zM811 342q0 350 240 350q80 0 132 -29.5t73.5 -87t28.5 -107.5t7 -126q0 -59 -3 -101t-17.5 -95.5t-39 -86t-71.5 -56t-112 -23.5q-80 0 -131.5 31.5t-73 92 t-27.5 111.5t-6 127zM881 342q0 -66 5 -112t20.5 -96t51 -75.5t91.5 -25.5q59 0 97 24.5t53 74.5t20.5 95t5.5 115t-4 111t-19.5 90t-53.5 72.5t-97 23.5q-170 0 -170 -297z" />
<glyph unicode="&#x26;" d="M94 346q0 266 254 385q-8 6 -49 35t-60.5 46t-48 49t-42 70t-13.5 83q0 338 301 338t301 -314q0 -121 -63.5 -194.5t-220.5 -141.5q-133 -57 -201 -130.5t-68 -221.5q0 -121 77 -215t233 -94q72 0 143.5 50t110.5 122v295h-228v67h311v-288q0 -49 17 -287h-68l-24 119 q-96 -145 -262 -146q-180 0 -290 98.5t-110 274.5zM227 1016q0 -31 11.5 -61.5t23.5 -51t38 -45t40 -35.5l44 -31q30 -22 36 -26q100 41 163.5 103.5t63.5 170.5q0 121 -49 182.5t-168 61.5q-203 0 -203 -268z" />
<glyph unicode="'" horiz-adv-x="471" d="M186 1325h101l-17 -444h-67z" />
<glyph unicode="(" horiz-adv-x="522" d="M121 520q0 266 46 432t161 373h78q-109 -199 -148 -371t-39 -434q0 -229 39 -398t158 -384h-78q-129 223 -173 386t-44 396z" />
<glyph unicode=")" horiz-adv-x="522" d="M106 -262q119 215 158 384t39 398q0 262 -39 434t-147 371h78q115 -207 160.5 -373t45.5 -432q0 -233 -44 -396t-173 -386h-78z" />
<glyph unicode="*" horiz-adv-x="757" d="M31 1036l32 97l273 -105l10 8l-14 289h98l-16 -293l10 -6l270 104l33 -96l-285 -69l-2 -11l185 -235l-78 -55l-160 245h-12l-162 -245l-80 57l186 233l-4 11z" />
<glyph unicode="+" d="M55 391v82h369v389h94v-389h369v-82h-369v-391h-94v391h-369z" />
<glyph unicode="," horiz-adv-x="471" d="M57 -211l123 365h113l-166 -365h-70z" />
<glyph unicode="-" horiz-adv-x="645" d="M61 475v82h523v-82h-523z" />
<glyph unicode="." horiz-adv-x="471" d="M178 0v141h115v-141h-115z" />
<glyph unicode="/" horiz-adv-x="471" d="M-29 -20l439 1368h90l-439 -1368h-90z" />
<glyph unicode="0" d="M76 631q0 96 7 174t31.5 168t65.5 150.5t115 101.5t174 41q109 0 185.5 -40t116.5 -95.5t62.5 -148.5t27.5 -168t5 -183q0 -90 -4 -153.5t-15 -148.5t-38 -141.5t-70 -109.5t-111.5 -80t-160.5 -27q-78 0 -139.5 22.5t-102.5 56.5t-69.5 90.5t-44 107.5t-23.5 126 t-10 128t-2 129zM174 631q0 -84 3 -144.5t12.5 -134t30 -124t51 -94.5t80.5 -66.5t116 -22.5q72 0 126 22.5t86 70.5t51.5 94.5t26.5 127t9 131t2 140.5q0 102 -4 169.5t-20.5 148.5t-47 129t-88 81t-139.5 33q-295 0 -295 -561z" />
<glyph unicode="1" d="M227 997l283 246h86v-1245h-94v1122l-238 -209z" />
<glyph unicode="2" d="M68 82q37 39 134 131t172 170t156.5 173t128 187.5t46.5 167.5q0 145 -70 214t-213 69q-18 0 -35.5 -1t-36 -5t-32 -6t-33.5 -10l-29 -10q-8 -3 -32 -13l-30 -13q-7 -3 -34 -16.5t-33 -15.5l-37 86q166 78 336 78q176 0 276.5 -86t100.5 -262q0 -88 -43 -183.5 t-123 -191.5t-150 -168l-169 -166l-136 -131h649v-80h-727z" />
<glyph unicode="3" d="M68 18l36 86l52 -18l50 -17q15 -5 45 -12.5t60.5 -9.5t69.5 -2q82 0 146.5 21.5t112.5 85t48 161.5q0 174 -103.5 239.5t-289.5 65.5v70q170 0 266 57.5t96 206.5q0 137 -68.5 189.5t-187.5 52.5q-94 0 -274 -88l-37 86q152 76 311 76q164 0 259.5 -77t95.5 -235 q0 -139 -76 -212.5t-195 -88.5q127 -20 214 -101t87 -243q0 -178 -115.5 -259t-295.5 -81q-106 0 -162.5 8t-144.5 39z" />
<glyph unicode="4" d="M78 436l549 807h78v-817h196v-76h-196v-350h-95v350h-495zM156 426h454v672z" />
<glyph unicode="5" d="M117 14l37 86q137 -55 278 -55q150 0 233 89t83 255q0 154 -71 240t-194 86q-100 0 -256 -78l-86 37v569h650v-74h-555v-432q20 4 63 18.5t87 23.5t95 9q180 0 270.5 -108.5t90.5 -294.5q0 -197 -107.5 -305.5t-304.5 -108.5q-182 0 -313 43z" />
<glyph unicode="6" d="M92 580q0 172 48 324.5t158 258t261 105.5q115 0 238 -33l-37 -86q-125 45 -191 45q-174 0 -282.5 -169t-108.5 -450q47 102 126 168t183 66q174 0 269.5 -111.5t95.5 -296.5q0 -176 -98.5 -303t-266.5 -127q-119 0 -200.5 50.5t-122.5 142.5t-56.5 190.5t-15.5 225.5z M197 504q0 -250 70.5 -354.5t221.5 -104.5q121 0 193 98.5t72 257.5q0 334 -262 334q-63 0 -118 -24.5t-89.5 -64.5t-54 -73.5t-33.5 -68.5z" />
<glyph unicode="7" d="M80 1165v78h700l37 -86l-479 -1157h-111l506 1165h-653z" />
<glyph unicode="8" d="M74 297q0 256 301 358q-2 0 -25.5 12.5t-38 18.5t-41 23.5t-45 33t-41 39t-36 48t-22.5 57.5t-9 67q0 156 97 235t261 79q362 0 363 -312q0 -68 -32 -125t-79 -93t-89 -56t-75 -29q305 -104 305 -356q0 -100 -38.5 -169t-104.5 -100.5t-127 -44t-133 -12.5 q-68 0 -129.5 13.5t-123.5 47.5t-100 101.5t-38 163.5zM168 297q0 -127 82 -190.5t215 -63.5q135 0 222 61.5t87 192.5q0 227 -303 319q-303 -86 -303 -319zM209 954q0 -96 83 -167.5t175 -98.5q96 18 187 94t91 174q0 240 -270 240q-266 0 -266 -242z" />
<glyph unicode="9" d="M90 838q0 176 98.5 303t266.5 127q119 0 200.5 -50.5t122.5 -142.5t56.5 -190.5t15.5 -225.5q0 -172 -48 -324.5t-157.5 -258t-261.5 -105.5q-115 0 -238 33l37 86q125 -45 191 -45q174 0 282.5 169t108.5 450q-47 -102 -126 -168t-183 -66q-174 0 -269.5 112t-95.5 296z M188 838q0 -334 263 -334q63 0 117.5 24.5t89 64.5t54 73.5t33.5 68.5q0 250 -70.5 354.5t-221.5 104.5q-121 0 -193 -98t-72 -258z" />
<glyph unicode=":" horiz-adv-x="471" d="M178 0v141h115v-141h-115zM178 784v142h115v-142h-115z" />
<glyph unicode=";" horiz-adv-x="471" d="M57 -211l113 365h123l-166 -365h-70zM170 784v142h115v-142h-115z" />
<glyph unicode="&#x3c;" d="M61 391v119l820 367v-101l-731 -327l731 -324v-100z" />
<glyph unicode="=" d="M61 229v88h820v-88h-820zM61 582v90h820v-90h-820z" />
<glyph unicode="&#x3e;" d="M61 25v100l732 328l-732 323v101l820 -367v-119z" />
<glyph unicode="?" horiz-adv-x="788" d="M104 1284q176 61 279 62q342 0 342 -302q0 -68 -34 -125t-82 -98l-96 -83q-48 -42 -82 -96t-34 -118v-200h-94v211q0 78 34 139t82 102l96 79q48 38 82 85t34 104q0 121 -60.5 173.5t-187.5 52.5q-98 0 -242 -72zM291 0v145h121v-145h-121z" />
<glyph unicode="@" horiz-adv-x="1658" d="M170 655.5q0 319.5 200.5 505t518.5 185.5q158 0 292 -61.5t221 -192.5t87 -310q0 -258 -159 -392t-421 -134q-176 0 -293.5 104.5t-117.5 292.5q0 164 108.5 280t274.5 116q74 0 151 -31v-438l86 14l31 -74l-193 -31v482q-31 10 -73 10q-135 0 -215 -87t-80 -235 q0 -164 87 -249.5t238 -85.5q225 0 355.5 113.5t130.5 342.5q0 244 -145.5 371t-364.5 127q-283 0 -456 -162t-173 -461q0 -301 170 -460.5t451 -159.5q129 0 220 16.5t214 61.5l31 -74q-188 -72 -472 -72q-328 0 -516 184.5t-188 504z" />
<glyph unicode="A" horiz-adv-x="1245" d="M72 0l538 1325h64l500 -1325h-107l-154 416h-581l-164 -416h-96zM360 487h529l-252 699z" />
<glyph unicode="B" horiz-adv-x="1140" d="M205 0v1325h305q109 0 183.5 -13.5t138 -48t94 -103t30.5 -173.5q0 -100 -57 -177t-154 -116q272 -66 273 -323q0 -111 -33 -185.5t-96.5 -113.5t-137 -55.5t-173.5 -16.5h-373zM299 76h266q178 0 265.5 58.5t87.5 236.5q0 162 -98.5 218t-276.5 56h-244v-569zM299 719 h240q141 0 230 64.5t89 201.5q0 164 -79 214t-269 50h-211v-530z" />
<glyph unicode="C" horiz-adv-x="1079" d="M133 662q0 115 16.5 213t54.5 186t98 150.5t153.5 98.5t214.5 36q166 0 309 -48l-37 -86q-133 57 -272 58q-438 0 -439 -606q0 -129 20.5 -235.5t68 -196t133.5 -139.5t204 -50q131 0 299 68l37 -86q-164 -57 -336 -58q-186 0 -306 93.5t-169 244t-49 357.5z" />
<glyph unicode="D" horiz-adv-x="1239" d="M205 0v1325h268q352 0 492.5 -148.5t140.5 -508.5q0 -358 -146.5 -513t-486.5 -155h-268zM299 76h193q268 0 392 148.5t124 441.5q0 317 -115 450t-420 133h-174v-1173z" />
<glyph unicode="E" horiz-adv-x="1050" d="M205 0v1325h704v-76h-610v-526h567v-76h-567v-571h629v-76h-723z" />
<glyph unicode="F" horiz-adv-x="1028" d="M205 0v1325h704v-78h-610v-532h586v-74h-586v-641h-94z" />
<glyph unicode="G" horiz-adv-x="1179" d="M133 664q0 682 547 682q113 0 293 -48l-37 -86q-131 57 -254 58q-236 0 -343.5 -153.5t-107.5 -452.5q0 -621 437 -621q113 0 293 96v412h-293v76h379v-547q-86 -41 -132.5 -60.5t-114.5 -35.5q-68 -17 -138 -17q-528 1 -529 697z" />
<glyph unicode="H" horiz-adv-x="1277" d="M205 0v1325h94v-602h680v602h94v-1325h-94v645h-680v-645h-94z" />
<glyph unicode="I" horiz-adv-x="454" d="M180 0v1325h94v-1325h-94z" />
<glyph unicode="J" horiz-adv-x="768" d="M41 0q14 2 56 10t60.5 12.5t56.5 14.5t57.5 19.5l51 25.5t49 35.5t39 47.5t32 60.5t18.5 76.5t8 95v928h94v-907q0 -84 -17.5 -152.5t-39 -116t-65.5 -86t-75.5 -59t-91 -41t-88 -28t-90.5 -19.5q-18 -4 -28 -6z" />
<glyph unicode="K" horiz-adv-x="1132" d="M205 0v1325h94v-625l637 625h100l-647 -631l709 -694h-127l-672 657v-657h-94z" />
<glyph unicode="L" horiz-adv-x="950" d="M205 0v1325h94v-1243h633v-82h-727z" />
<glyph unicode="M" horiz-adv-x="1624" d="M205 0v1325h129l483 -1186l483 1186h119v-1325h-90v1223l-491 -1223h-52l-499 1223v-1223h-82z" />
<glyph unicode="N" horiz-adv-x="1325" d="M205 0v1325h127l698 -1214v1214h90v-1325h-131l-702 1214v-1214h-82z" />
<glyph unicode="O" horiz-adv-x="1345" d="M133 657q0 317 129 503t416 186q152 0 258 -51.5t165.5 -147.5t85 -215t25.5 -275q0 -319 -127 -504.5t-409 -185.5q-295 0 -419 183t-124 507zM231 657q0 -287 99.5 -450.5t345.5 -163.5q127 0 216 46t136 133t66.5 192.5t19.5 242.5q0 293 -96 453t-342 160 q-129 0 -218 -45t-137.5 -131t-69 -192t-20.5 -245z" />
<glyph unicode="P" horiz-adv-x="1089" d="M205 0v1325h342q211 0 319.5 -87t108.5 -280q0 -379 -406 -378h-270v-580h-94zM299 655h254q170 0 247 65.5t77 237.5q0 164 -82 227.5t-252 63.5h-244v-594z" />
<glyph unicode="Q" horiz-adv-x="1345" d="M133 657q0 317 129 503t416 186q152 0 258 -51.5t165.5 -147.5t85 -215t25.5 -275q0 -319 -127 -504.5t-409 -185.5q-295 0 -419 183t-124 507zM231 657q0 -287 99.5 -450.5t345.5 -163.5q127 0 216 46t136 133t66.5 192.5t19.5 242.5q0 293 -96 453t-342 160 q-129 0 -218 -45t-137.5 -131t-69 -192t-20.5 -245zM643 -137l37 61l422 -35l-37 -88z" />
<glyph unicode="R" horiz-adv-x="1142" d="M205 0v1325h373q178 0 292.5 -81t114.5 -261q0 -369 -397 -369l461 -614h-115l-455 612h-180v-612h-94zM299 688h291q297 0 297 295q0 266 -299 266h-289v-561z" />
<glyph unicode="S" horiz-adv-x="1077" d="M143 25l37 86q180 -68 301 -68q141 0 244.5 66.5t103.5 224.5q0 55 -19 101t-46 76t-77 58.5t-88 42.5l-101 37q-66 23 -107 40.5t-93 48t-82 65.5t-51.5 89t-21.5 120q0 172 120 253t317 81q139 0 307 -58l-37 -86q-156 68 -283 68q-326 0 -325 -258q0 -57 22.5 -100.5 t68.5 -75t89 -50t113 -43.5q92 -33 144 -56t118.5 -69.5t98.5 -116t32 -163.5q0 -371 -449 -371q-125 1 -336 58z" />
<glyph unicode="T" horiz-adv-x="1019" d="M57 1247v78h906v-78h-406v-1247h-94v1247h-406z" />
<glyph unicode="U" horiz-adv-x="1341" d="M205 489v836h94v-815q0 -266 85 -366.5t300 -100.5q197 0 277.5 105.5t80.5 361.5v815h95v-840q0 -266 -108.5 -392t-344.5 -126q-258 0 -368.5 125t-110.5 397z" />
<glyph unicode="V" horiz-adv-x="1187" d="M63 1325h105l440 -1182l418 1182h98l-481 -1325h-78z" />
<glyph unicode="W" horiz-adv-x="1708" d="M76 1325h98l313 -1186l324 1131h98l320 -1135l315 1190h88l-360 -1325h-98l-320 1118l-324 -1118h-102z" />
<glyph unicode="X" horiz-adv-x="1128" d="M68 0l442 684l-387 641h110l336 -559l351 559h102l-408 -627l435 -698h-119l-369 616l-391 -616h-102z" />
<glyph unicode="Y" horiz-adv-x="1089" d="M35 1325h106l420 -645l400 645h94l-451 -729v-596h-94v588z" />
<glyph unicode="Z" horiz-adv-x="1079" d="M94 86l789 1161h-713v78h778l37 -86l-790 -1161h774v-78h-838z" />
<glyph unicode="[" horiz-adv-x="522" d="M172 -260v1644h256v-69h-162v-1499h162v-76h-256z" />
<glyph unicode="\" horiz-adv-x="471" d="M-29 1348h90l439 -1368h-90z" />
<glyph unicode="]" horiz-adv-x="522" d="M94 -180h162v1499h-162v70h256v-1645h-256v76z" />
<glyph unicode="^" d="M76 551l370 774h48l378 -774h-104l-297 618l-299 -618h-96z" />
<glyph unicode="_" horiz-adv-x="1024" d="M-2 -127h1028v-68h-1028v68z" />
<glyph unicode="`" horiz-adv-x="385" d="M39 1325h111l196 -240h-80z" />
<glyph unicode="a" horiz-adv-x="935" d="M100 246q0 156 107.5 234.5t388.5 78.5h96v86q0 244 -215 244q-141 0 -305 -80l-31 74q190 74 334 73q141 0 221 -75.5t80 -225.5v-368q0 -49 25 -287h-68q0 10 -15.5 56t-17.5 63q-37 -61 -108.5 -100t-163.5 -39q-135 0 -231.5 67.5t-96.5 198.5zM190 248 q0 -92 61.5 -146.5t176.5 -54.5q90 0 160.5 41t105.5 109v292h-69q-244 0 -339.5 -55t-95.5 -186z" />
<glyph unicode="b" horiz-adv-x="964" d="M131 0q16 158 16 287v1059h84v-558q35 63 111 115.5t170 52.5q180 0 266 -135t86 -348q0 -219 -87 -356t-275 -137q-82 0 -159 40.5t-118 98.5l-26 -119h-68zM227 203q96 -156 254 -156q293 0 293 422q0 213 -71.5 316.5t-196.5 103.5q-63 0 -115.5 -24.5t-85.5 -64.5 t-50 -67.5t-28 -54.5v-475z" />
<glyph unicode="c" horiz-adv-x="849" d="M100 461q0 496 396 495q117 0 268 -59l-31 -74q-131 66 -239 66q-303 0 -304 -428q0 -414 302 -414q119 0 245 66l31 -74q-51 -25 -136 -42t-143 -17q-199 0 -294 128t-95 353z" />
<glyph unicode="d" horiz-adv-x="964" d="M100 473q0 209 94.5 346t264.5 137q98 0 167.5 -51t106.5 -117v558h84v-1059q0 -129 17 -287h-68l-27 119q-41 -57 -115.5 -98t-156.5 -41h-4q-188 2 -275.5 138t-87.5 355zM190 469q0 -422 293 -422q158 0 254 156v475q-10 29 -27.5 57.5t-48 67.5t-82 62.5t-112.5 23.5 q-129 0 -203 -105.5t-74 -314.5z" />
<glyph unicode="e" horiz-adv-x="944" d="M100 459q0 88 18.5 170t58.5 158.5t115 122.5t177 46q111 0 185.5 -38.5t113.5 -112.5t54.5 -159t15.5 -197h-645q0 -401 296 -402q131 0 289 84l25 -76q-158 -76 -330 -75q-193 0 -283 133t-90 346zM190 516h566q0 188 -67.5 280.5t-219.5 92.5q-131 0 -200 -98.5 t-79 -274.5z" />
<glyph unicode="f" horiz-adv-x="481" d="M31 868v68h155v131q0 139 80 218t236 91l20 -73q-150 -14 -201 -70.5t-51 -159.5v-137h193v-68h-193v-868h-84v868h-155z" />
<glyph unicode="g" horiz-adv-x="964" d="M80 -147q0 80 64.5 134t140.5 70q-131 53 -131 148q0 31 14 60.5t26.5 43t41.5 41.5q-2 2 -12.5 13.5t-14.5 16.5l-15 18q-11 13 -16.5 24.5t-14.5 28t-15 32.5l-11 37q-6 20 -8 45t-2 49q0 47 15.5 100.5t51 111t109.5 94t174 36.5q102 0 156 -26q250 20 256 20l-31 -73 h-143q47 -33 83 -104t36 -152q0 -152 -85 -254.5t-268 -102.5q-45 0 -106.5 15.5t-85.5 31.5q-53 -57 -53 -100q0 -47 54 -72.5t224 -44.5q215 -23 300 -83t85 -150q0 -127 -114.5 -195.5t-290.5 -68.5q-414 0 -414 256zM170 -147q0 -188 324 -189q158 0 236.5 53.5 t78.5 143.5q0 57 -50 91t-138.5 50t-255.5 31q-92 -18 -143.5 -70.5t-51.5 -109.5zM217 610q0 -123 65.5 -200.5t200.5 -77.5t197.5 78.5t62.5 205.5q0 131 -68.5 202t-193.5 71q-139 0 -201.5 -82t-62.5 -197z" />
<glyph unicode="h" horiz-adv-x="960" d="M147 0v1346h84v-558q35 68 112 118t165 50q166 0 235.5 -98t69.5 -252v-606h-84v561q0 162 -49 245t-186 83q-98 0 -172 -72t-93 -139v-678h-82z" />
<glyph unicode="i" horiz-adv-x="385" d="M143 1186v139h99v-139h-99zM152 0v936h84v-936h-84z" />
<glyph unicode="j" horiz-adv-x="374" d="M-49 -211q106 23 148 68t42 137v942h84v-924q0 -123 -57 -193.5t-193 -105.5zM133 1186v139h98v-139h-98z" />
<glyph unicode="k" horiz-adv-x="856" d="M147 0v1346h84v-803l443 393h96l-467 -406l516 -530h-106l-482 500v-500h-84z" />
<glyph unicode="l" horiz-adv-x="378" d="M147 0v1346h84v-1346h-84z" />
<glyph unicode="m" horiz-adv-x="1536" d="M131 936h68l28 -148q115 168 273 168q217 0 280 -206q35 57 66 95t92 74.5t133 36.5q317 0 318 -358v-598h-84v594q0 61 -8.5 106t-32 91.5t-74.5 72t-127 25.5q-86 0 -156.5 -68.5t-101.5 -150.5v-670h-84v594q0 137 -59.5 216t-174.5 79q-86 0 -157.5 -64.5 t-98.5 -144.5v-680h-84v721q0 29 -16 215z" />
<glyph unicode="n" horiz-adv-x="960" d="M131 936h68l26 -148l15 19l20 28l24 26q17 19 30 29l36 24q23 15 44.5 22.5t50 13.5t59.5 6q309 0 309 -366v-590h-84v573q0 72 -9 123.5t-32.5 97.5t-73 70.5t-122.5 24.5q-92 0 -163 -66.5t-98 -142.5v-680h-84v737q0 43 -7 105.5t-9 93.5z" />
<glyph unicode="o" horiz-adv-x="976" d="M100 473q0 139 33 241.5t123 172t233 69.5q387 0 388 -483q0 -494 -388 -493q-389 -1 -389 493zM190 473q0 -426 299 -426q170 0 233.5 113.5t63.5 312.5q0 92 -13 163t-45 130t-92.5 91t-146.5 32q-158 0 -228.5 -114t-70.5 -302z" />
<glyph unicode="p" horiz-adv-x="964" d="M131 936h68l30 -150q102 170 277 170q190 0 274 -136t84 -357q0 -209 -91 -346t-261 -137q-182 0 -281 135v-484h-84v1028q0 148 -16 277zM229 199q4 -4 23.5 -29t30 -35t36 -30.5t48 -31t58.5 -18.5t75 -8q127 0 200.5 105.5t73.5 314.5q0 422 -285 422 q-90 0 -162.5 -65.5t-97.5 -145.5v-479z" />
<glyph unicode="q" horiz-adv-x="964" d="M100 463q0 215 90.5 354t272.5 139q84 0 157.5 -51t114.5 -119l31 150h68q-16 -129 -17 -277v-1028h-84v484q-98 -135 -280 -135q-172 0 -262.5 137t-90.5 346zM190 467q0 -209 74 -314.5t201 -105.5q49 0 89 9.5t70.5 31t45 33.5t39 44t26.5 34v479q-25 78 -98.5 144.5 t-163.5 66.5q-141 0 -212 -116t-71 -306z" />
<glyph unicode="r" horiz-adv-x="655" d="M131 936h68l26 -176q20 39 37 63.5t46.5 60.5t68.5 54t84 18q90 0 168 -45l-31 -73q-70 51 -152 51q-29 0 -56.5 -14.5t-45.5 -32t-38.5 -49t-31 -49t-26 -51.5t-17.5 -38v-655h-84v727q0 21 -16 209z" />
<glyph unicode="s" horiz-adv-x="811" d="M90 702q0 131 93 192.5t247 61.5q86 0 264 -61l-30 -74q-10 4 -36 16l-35 15q-9 4 -29.5 12t-34 11.5t-34 7.5t-40 5t-43.5 1q-102 0 -167 -43t-65 -137q0 -37 15.5 -65t51.5 -48.5t64.5 -31.5t83.5 -27l65.5 -20.5t60.5 -21t63 -28.5l48 -35q32 -23 44 -47.5t23.5 -59 t11.5 -75.5q0 -129 -89.5 -199.5t-228.5 -70.5q-186 0 -301 57l31 74q92 -39 142 -51.5t136 -12.5q100 0 160 52.5t60 148.5q0 47 -17.5 80.5t-59.5 57.5t-73 35l-94 32q-66 20 -107 36.5t-88 45t-69.5 70.5t-22.5 97z" />
<glyph unicode="t" horiz-adv-x="538" d="M31 868v68h141v233h84v-233h213v-68h-213v-643q0 -100 59.5 -156.5t192.5 -78.5l-23 -78q-158 29 -235.5 105.5t-77.5 207.5v643h-141z" />
<glyph unicode="u" horiz-adv-x="946" d="M147 346v590h84v-574q0 -150 47.5 -232.5t184.5 -82.5q92 0 158.5 65.5t93.5 143.5v680h84v-737q0 -43 7 -105.5t9 -93.5h-67l-27 147q-2 -2 -20.5 -27.5t-28.5 -36.5t-36 -34.5t-50.5 -36t-63.5 -22.5t-82 -10q-293 -1 -293 366z" />
<glyph unicode="v" horiz-adv-x="952" d="M86 936h90l307 -811l301 811h82l-358 -936h-59z" />
<glyph unicode="w" horiz-adv-x="1368" d="M86 936h88l246 -825l227 731h70l209 -725l276 819h80l-324 -936h-77l-207 702l-219 -702h-82z" />
<glyph unicode="x" horiz-adv-x="876" d="M53 0l336 473l-313 463h108l262 -391l269 391h92l-318 -449l334 -487h-112l-273 416l-291 -416h-94z" />
<glyph unicode="y" horiz-adv-x="950" d="M86 936l90 2l328 -803l278 801h82l-391 -1086q-39 -104 -88 -151t-162 -88l-24 78q145 39 180 133l82 217z" />
<glyph unicode="z" horiz-adv-x="802" d="M86 74l541 794h-500v68h559l31 -74l-539 -794h518v-68h-579z" />
<glyph unicode="{" horiz-adv-x="696" d="M98 506v76q72 2 108 57t39 136t15 175t34.5 176t101.5 138.5t210 60.5v-76q-129 0 -193.5 -60.5t-76.5 -153.5t-13 -189t-31 -183.5t-106 -121.5q78 -29 109 -113t34 -182.5t14 -192.5t73.5 -156.5t189.5 -62.5v-76q-129 4 -205.5 59.5t-99 136.5t-35 175t-16.5 176 t-41 138.5t-111 62.5z" />
<glyph unicode="|" horiz-adv-x="471" d="M195 -340v1778h81v-1778h-81z" />
<glyph unicode="}" horiz-adv-x="696" d="M90 1249v76q131 -4 210 -60.5t101.5 -138.5t35 -176t15.5 -175t38.5 -136t107.5 -57v-76q-74 -6 -110.5 -62.5t-41 -138.5t-16.5 -176t-34.5 -175t-99.5 -136.5t-206 -59.5v76q127 0 189.5 62.5t74 156.5t14.5 192.5t33.5 182.5t108.5 113q-76 35 -105.5 122t-30.5 183 t-13.5 189t-77 153.5t-193.5 60.5z" />
<glyph unicode="~" d="M49 358q0 96 62.5 145.5t154.5 49.5q72 0 205 -73.5t198.5 -73.5t104.5 38.5t39 102.5l80 -37q0 -94 -66.5 -144.5t-154.5 -50.5q-82 0 -215 75t-191 75q-137 0 -137 -143z" />
<glyph unicode="&#xa1;" horiz-adv-x="471" d="M176 1180v145h121v-145h-121zM195 0v989h86v-989h-86z" />
<glyph unicode="&#xa2;" horiz-adv-x="829" d="M100 461q0 459 338 493v187h80v-185q88 -4 225 -59l-30 -74q-111 55 -195 64v-838q90 10 199 64l31 -74q-94 -45 -230 -57v-185h-80v185q-338 33 -338 479zM190 461q0 -375 248 -410v834q-248 -37 -248 -424z" />
<glyph unicode="&#xa3;" d="M100 0v80h144v631h-144v80h144v73q0 84 17.5 152.5t39 116t65.5 86t75.5 59t91 41t88 28t90.5 19.5q18 4 28 6l27 -90q-14 -2 -56 -10t-60.5 -12.5t-56.5 -14.5t-57.5 -19t-51 -25.5t-49 -36t-39 -47t-32 -60.5t-18.5 -77t-8 -95v-94h381v-80h-381v-629h553v-82h-791z " />
<glyph unicode="&#xa4;" d="M0 508l20 76h166q-2 25 -2 78q0 63 2 94h-186l20 75h175q31 236 148.5 375.5t340.5 139.5q147 0 309 -56l-24 -92q-147 72 -285 72q-186 0 -275.5 -118t-115.5 -321h581l-20 -75h-569q-2 -31 -2 -92q0 -53 2 -80h524l-21 -76h-497q23 -217 108.5 -341t270.5 -124 q102 0 280 72v-101q-158 -47 -280 -47q-418 0 -477 541h-193z" />
<glyph unicode="&#xa5;" d="M18 1325h107l362 -635l342 635h95l-383 -709h309v-79h-320v-166h320v-80h-320v-291h-94v291h-315v80h315v166h-315v79h301z" />
<glyph unicode="&#xa6;" horiz-adv-x="471" d="M188 -160v479h95v-479h-95zM188 735v479h95v-479h-95z" />
<glyph unicode="&#xa7;" d="M147 676q0 168 150 227q-117 59 -117 184q0 129 92.5 194t227.5 65q117 0 254 -66l-31 -80q-66 39 -111 55.5t-110 16.5q-227 0 -228 -178q0 -59 53.5 -96t130.5 -57.5t153.5 -47.5t130 -87.5t53.5 -154.5q0 -74 -43 -129t-111 -78q121 -66 121 -206q0 -127 -91 -199 t-227 -72q-162 0 -284 58l30 79q63 -27 91 -37t71 -18t97 -8q100 0 159.5 49t59.5 146q0 76 -53.5 123t-130.5 69l-153 46q-77 24 -130.5 73t-53.5 129zM242 682q0 -43 31.5 -76t65.5 -46t106.5 -35.5t101.5 -32.5q154 41 153 157q0 45 -14 76t-49 51.5t-62.5 30.5t-85 25.5 t-83.5 25.5q-164 -20 -164 -176z" />
<glyph unicode="&#xa8;" horiz-adv-x="385" d="M-6 1196v129h96v-129h-96zM295 1196v129h96v-129h-96z" />
<glyph unicode="&#xa9;" horiz-adv-x="1474" d="M51 663.5q0 288.5 199 486.5t487 198q293 0 489.5 -197t196.5 -487q0 -289 -198.5 -486.5t-487 -197.5t-487.5 197.5t-199 486zM131 664q0 -252 177 -434.5t429 -182.5t429 182.5t177 434.5q0 256 -176 436t-430 180q-256 0 -431 -180t-175 -436zM383 659q0 182 83 296 t265 114q96 0 201 -33l-25 -65q-100 41 -176 41q-274 0 -274 -350q0 -360 266 -361q72 0 195 47l22 -65q-121 -39 -217 -39q-172 0 -256 113.5t-84 301.5z" />
<glyph unicode="&#xaa;" d="M256 936q0 86 65.5 132t233.5 46h57v35q0 66 -29.5 96.5t-99.5 30.5q-90 0 -184 -43l-18 53q113 39 200 39q86 0 138.5 -41t52.5 -123v-203q0 -27 16 -157h-51q0 4 -9.5 28.5t-11.5 34.5q-51 -76 -163 -76q-82 0 -139.5 37t-57.5 111zM324 936q0 -98 129 -98 q51 0 95 24.5t64 63.5v137h-41q-137 0 -192 -27.5t-55 -99.5z" />
<glyph unicode="&#xab;" horiz-adv-x="696" d="M78 553l190 373h90l-198 -369l196 -369h-88zM344 553l191 373h90l-199 -369l197 -369h-88z" />
<glyph unicode="&#xac;" d="M31 612v80h870v-450h-94v370h-776z" />
<glyph unicode="&#xad;" horiz-adv-x="645" d="M61 475v82h523v-82h-523z" />
<glyph unicode="&#xae;" horiz-adv-x="1474" d="M51 663.5q0 288.5 199 486.5t487 198q293 0 489.5 -197t196.5 -487q0 -289 -198.5 -486.5t-487 -197.5t-487.5 197.5t-199 486zM131 664q0 -252 177 -434.5t429 -182.5t429 182.5t177 434.5q0 256 -176 436t-430 180q-256 0 -431 -180t-175 -436zM500 264v797h241 q115 0 190 -50t75 -157q0 -98 -60.5 -161.5t-197.5 -63.5l299 -365h-86l-295 365h-97v-365h-69zM569 686h181q102 0 142 45t40 123t-44 112.5t-140 34.5h-179v-315z" />
<glyph unicode="&#xaf;" horiz-adv-x="385" d="M-31 1184v94h447v-94h-447z" />
<glyph unicode="&#xb0;" horiz-adv-x="757" d="M102 981q0 117 81 195.5t196 78.5t195.5 -78.5t80.5 -195.5t-81.5 -192.5t-196.5 -75.5t-195 75.5t-80 192.5zM195 981q0 -74 54 -128t128 -54t129 54t55 128q0 82 -51 135t-131 53t-132 -53t-52 -135z" />
<glyph unicode="&#xb1;" d="M55 514v82h369v266h94v-266h369v-82h-369v-268h-94v268h-369zM61 4v88h820v-88h-820z" />
<glyph unicode="&#xb2;" horiz-adv-x="645" d="M94 694q20 20 103.5 92t133.5 121t98 120t48 122q0 80 -41 111.5t-129 31.5q-76 0 -178 -49l-20 60q102 43 200 43q106 0 171 -51.5t65 -147.5q0 -59 -44 -128t-90 -113t-126 -112l-103 -89h371v-56h-436z" />
<glyph unicode="&#xb3;" horiz-adv-x="645" d="M102 657l23 60q102 -33 166 -33q184 0 184 135q0 94 -61.5 128t-173.5 34v51q104 0 160.5 29t56.5 110q0 74 -39 97.5t-115 23.5q-53 0 -164 -49l-22 60q92 43 186 43q98 0 160.5 -43t62.5 -129q0 -147 -161 -166q180 -27 180 -189q0 -96 -74 -141t-184 -45 q-107 -1 -185 24z" />
<glyph unicode="&#xb4;" horiz-adv-x="385" d="M39 1085l197 240h110l-227 -240h-80z" />
<glyph unicode="&#xb5;" d="M145 -369v1305h84v-574q0 -150 47.5 -232.5t184.5 -82.5q90 0 156.5 74t95.5 155v660h84v-737q0 -43 7 -105.5t9 -93.5h-68l-26 147l-19 -26q-20 -27 -30.5 -38t-36 -35.5t-47 -36t-56 -21.5t-71.5 -10q-154 0 -230 86v-435h-84z" />
<glyph unicode="&#x3bc;" d="M145 -369v1305h84v-574q0 -150 47.5 -232.5t184.5 -82.5q90 0 156.5 74t95.5 155v660h84v-737q0 -43 7 -105.5t9 -93.5h-68l-26 147l-19 -26q-20 -27 -30.5 -38t-36 -35.5t-47 -36t-56 -21.5t-71.5 -10q-154 0 -230 86v-435h-84z" />
<glyph unicode="&#xb6;" horiz-adv-x="1105" d="M207 1001q0 324 371 324h378v-1710h-94v1630h-207q-98 0 -159.5 -58.5t-61.5 -174.5q0 -86 59.5 -140.5t141.5 -76.5v-1180h-94v1077q-94 4 -162 34t-103.5 75t-52 95t-16.5 105z" />
<glyph unicode="&#xb7;" horiz-adv-x="471" d="M164 516v154h143v-154h-143z" />
<glyph unicode="&#xb8;" horiz-adv-x="385" d="M10 -326l29 78q115 -14 133 -14q41 0 69.5 16.5t28.5 49t-31.5 49t-132.5 16.5l44 162h79l-20 -97q70 0 109.5 -37.5t39.5 -89.5q0 -150 -176 -149q-53 0 -172 16z" />
<glyph unicode="&#xb9;" horiz-adv-x="645" d="M164 1190l168 135h63v-684h-67v604l-144 -115z" />
<glyph unicode="&#xba;" d="M240 1079q0 266 233 267q231 0 232 -267q0 -270 -232 -270q-233 0 -233 270zM303 1079q0 -104 38 -162.5t132 -58.5q168 0 168 221q0 104 -37 160.5t-131 56.5q-170 0 -170 -217z" />
<glyph unicode="&#xbb;" horiz-adv-x="696" d="M72 926h90l190 -373l-190 -365h-88l196 369zM338 926h90l190 -373l-190 -365h-88l197 369z" />
<glyph unicode="&#xbc;" horiz-adv-x="1413" d="M133 1190l168 135h64v-684h-68v604l-143 -115zM207 0l745 1288h90l-751 -1288h-84zM700 240l330 444h57v-444h109v-54h-109v-186h-67v186h-295zM760 240h260v352z" />
<glyph unicode="&#xbd;" horiz-adv-x="1413" d="M133 1190l168 135h64v-684h-68v604l-143 -115zM207 0l741 1288h94l-741 -1288h-94zM805 57q8 8 135 116t188.5 184.5t61.5 144.5q0 80 -41 111.5t-129 31.5q-72 0 -178 -51l-21 61q98 41 201 41q106 0 170.5 -50t64.5 -146q0 -59 -44 -128t-90 -114t-126 -114l-102 -89 h371v-55h-437z" />
<glyph unicode="&#xbe;" horiz-adv-x="1413" d="M92 657l23 60q102 -33 166 -33q184 0 184 135q0 94 -61.5 128t-174.5 34v51q104 0 160.5 29t56.5 110q0 74 -38.5 97.5t-114.5 23.5q-53 0 -164 -49l-23 60q94 43 187 43q98 0 160.5 -43t62.5 -129q0 -147 -162 -166q180 -27 181 -189q0 -96 -74 -141t-185 -45 q-106 -1 -184 24zM258 0l741 1288h95l-744 -1288h-92zM752 240l329 444h58v-444h108v-54h-108v-186h-68v186h-295zM811 240h260v352z" />
<glyph unicode="&#xbf;" horiz-adv-x="788" d="M104 281q0 68 34 125t82 98l96 83q48 42 82 96t34 118v200h94v-210q0 -78 -33.5 -139.5t-81.5 -102.5l-97 -79q-48 -38 -81.5 -85t-33.5 -104q0 -121 60 -173.5t187 -52.5q98 0 242 72l37 -86q-176 -61 -279 -61q-342 0 -342 301zM418 1180v145h121v-145h-121z" />
<glyph unicode="&#xc0;" horiz-adv-x="1245" d="M72 0l538 1325h64l500 -1325h-107l-154 416h-581l-164 -416h-96zM360 487h529l-252 699zM508 1634h110l197 -239h-80z" />
<glyph unicode="&#xc1;" horiz-adv-x="1245" d="M72 0l538 1325h64l500 -1325h-107l-154 416h-581l-164 -416h-96zM360 487h529l-252 699zM481 1386l197 240h110l-227 -240h-80z" />
<glyph unicode="&#xc2;" horiz-adv-x="1245" d="M72 0l538 1325h64l500 -1325h-107l-154 416h-581l-164 -416h-96zM360 487h529l-252 699zM418 1438l172 219h98l168 -219h-82l-135 151l-139 -151h-82z" />
<glyph unicode="&#xc3;" horiz-adv-x="1245" d="M72 0l538 1325h64l500 -1325h-107l-154 416h-581l-164 -416h-96zM360 487h529l-252 699zM391 1438q33 74 67 100.5t97 26.5q31 0 94.5 -34t89.5 -34q57 0 84 80l72 -31q-43 -121 -152 -121q-29 0 -93 37t-97 37q-66 0 -90 -92z" />
<glyph unicode="&#xc4;" horiz-adv-x="1245" d="M72 0l538 1325h64l500 -1325h-107l-154 416h-581l-164 -416h-96zM360 487h529l-252 699zM442 1425v129h97v-129h-97zM743 1425v129h97v-129h-97z" />
<glyph unicode="&#xc5;" horiz-adv-x="1245" d="M72 0l538 1325h64l500 -1325h-107l-154 416h-581l-164 -416h-96zM360 487h529l-252 699zM469 1542.5q0 69.5 49 118.5t121 49t121 -48t49 -120q0 -70 -49 -119t-121 -49q-70 0 -120 49.5t-50 119zM532 1544q0 -39 31 -72.5t76 -33.5q51 0 77.5 30.5t26.5 75.5t-28.5 76 t-75.5 31q-45 0 -76 -33t-31 -74z" />
<glyph unicode="&#xc6;" horiz-adv-x="1751" d="M72 0l751 1325h787v-76h-703l101 -526h559v-76h-543l104 -571h500v-76h-588l-75 416h-557l-234 -416h-102zM444 487h506l-125 691z" />
<glyph unicode="&#xc7;" horiz-adv-x="1079" d="M133 662q0 115 16.5 213t54.5 186t98 150.5t153.5 98.5t214.5 36q166 0 309 -48l-37 -86q-133 57 -272 58q-438 0 -439 -606q0 -129 20.5 -235.5t68 -196t133.5 -139.5t204 -50q131 0 299 68l37 -86q-141 -51 -295 -58l-6 -33q70 0 110 -37.5t40 -89.5q0 -150 -176 -149 q-53 0 -172 16l28 78q115 -14 133 -14q41 0 70 16.5t29 49t-32 49t-132 16.5l26 100q-252 14 -367.5 200t-115.5 493z" />
<glyph unicode="&#xc8;" horiz-adv-x="1050" d="M205 0v1325h704v-76h-610v-526h567v-76h-567v-571h629v-76h-723zM377 1636h110l197 -239h-80z" />
<glyph unicode="&#xc9;" horiz-adv-x="1050" d="M205 0v1325h704v-76h-610v-526h567v-76h-567v-571h629v-76h-723zM471 1386l197 240h110l-227 -240h-80z" />
<glyph unicode="&#xca;" horiz-adv-x="1050" d="M205 0v1325h704v-76h-610v-526h567v-76h-567v-571h629v-76h-723zM348 1407l172 219h98l168 -219h-81l-136 152l-139 -152h-82z" />
<glyph unicode="&#xcb;" horiz-adv-x="1050" d="M205 0v1325h704v-76h-610v-526h567v-76h-567v-571h629v-76h-723zM360 1425v129h97v-129h-97zM662 1425v129h96v-129h-96z" />
<glyph unicode="&#xcc;" horiz-adv-x="454" d="M76 1657h108l199 -240h-80zM184 0v1325h95v-1325h-95z" />
<glyph unicode="&#xcd;" horiz-adv-x="454" d="M78 1417l196 240h111l-227 -240h-80zM180 0v1325h94v-1325h-94z" />
<glyph unicode="&#xce;" horiz-adv-x="454" d="M8 1438l172 219h99l167 -219h-81l-136 151l-139 -151h-82zM180 0v1325h94v-1325h-94z" />
<glyph unicode="&#xcf;" horiz-adv-x="454" d="M29 1425v129h96v-129h-96zM182 0v1325h94v-1325h-94zM330 1425v129h96v-129h-96z" />
<glyph unicode="&#xd0;" horiz-adv-x="1239" d="M59 715v76h146v534h268q352 0 492.5 -148.5t140.5 -508.5q0 -358 -146.5 -513t-486.5 -155h-268v715h-146zM299 76h193q268 0 392 148.5t124 441.5q0 317 -115 450t-420 133h-174v-458h358v-76h-358v-639z" />
<glyph unicode="&#xd1;" horiz-adv-x="1325" d="M205 0v1325h127l698 -1214v1214h90v-1325h-131l-702 1214v-1214h-82zM375 1432q33 74 66.5 100.5t97.5 26.5q31 0 94 -34t90 -34q57 0 84 80l72 -31q-43 -121 -152 -121q-29 0 -93.5 37t-96.5 37q-66 0 -91 -92z" />
<glyph unicode="&#xd2;" horiz-adv-x="1345" d="M133 657q0 317 129 503t416 186q152 0 258 -51.5t165.5 -147.5t85 -215t25.5 -275q0 -319 -127 -504.5t-409 -185.5q-295 0 -419 183t-124 507zM231 657q0 -287 99.5 -450.5t345.5 -163.5q127 0 216 46t136 133t66.5 192.5t19.5 242.5q0 293 -96 453t-342 160 q-129 0 -218 -45t-137.5 -131t-69 -192t-20.5 -245zM479 1636h111l196 -239h-79z" />
<glyph unicode="&#xd3;" horiz-adv-x="1345" d="M133 657q0 317 129 503t416 186q152 0 258 -51.5t165.5 -147.5t85 -215t25.5 -275q0 -319 -127 -504.5t-409 -185.5q-295 0 -419 183t-124 507zM231 657q0 -287 99.5 -450.5t345.5 -163.5q127 0 216 46t136 133t66.5 192.5t19.5 242.5q0 293 -96 453t-342 160 q-129 0 -218 -45t-137.5 -131t-69 -192t-20.5 -245zM594 1386l197 240h110l-227 -240h-80z" />
<glyph unicode="&#xd4;" horiz-adv-x="1345" d="M133 657q0 317 129 503t416 186q152 0 258 -51.5t165.5 -147.5t85 -215t25.5 -275q0 -319 -127 -504.5t-409 -185.5q-295 0 -419 183t-124 507zM231 657q0 -287 99.5 -450.5t345.5 -163.5q127 0 216 46t136 133t66.5 192.5t19.5 242.5q0 293 -96 453t-342 160 q-129 0 -218 -45t-137.5 -131t-69 -192t-20.5 -245zM461 1407l172 219h98l168 -219h-82l-135 152l-139 -152h-82z" />
<glyph unicode="&#xd5;" horiz-adv-x="1345" d="M133 657q0 317 129 503t416 186q152 0 258 -51.5t165.5 -147.5t85 -215t25.5 -275q0 -319 -127 -504.5t-409 -185.5q-295 0 -419 183t-124 507zM231 657q0 -287 99.5 -450.5t345.5 -163.5q127 0 216 46t136 133t66.5 192.5t19.5 242.5q0 293 -96 453t-342 160 q-129 0 -218 -45t-137.5 -131t-69 -192t-20.5 -245zM416 1432q33 74 66.5 100.5t97.5 26.5q31 0 94 -34t90 -34q57 0 84 80l72 -31q-43 -121 -152 -121q-29 0 -93.5 37t-96.5 37q-66 0 -91 -92z" />
<glyph unicode="&#xd6;" horiz-adv-x="1345" d="M133 657q0 317 129 503t416 186q152 0 258 -51.5t165.5 -147.5t85 -215t25.5 -275q0 -319 -127 -504.5t-409 -185.5q-295 0 -419 183t-124 507zM231 657q0 -287 99.5 -450.5t345.5 -163.5q127 0 216 46t136 133t66.5 192.5t19.5 242.5q0 293 -96 453t-342 160 q-129 0 -218 -45t-137.5 -131t-69 -192t-20.5 -245zM477 1425v129h96v-129h-96zM778 1425v129h97v-129h-97z" />
<glyph unicode="&#xd7;" d="M104 131l306 303l-306 303l66 66l303 -305l303 305l66 -66l-305 -303l305 -303l-66 -65l-303 305l-303 -305z" />
<glyph unicode="&#xd8;" horiz-adv-x="1345" d="M33 -2l184 217q-84 162 -84 442q0 317 129 503t416 186q244 0 379 -142l166 197l63 -60l-176 -206q102 -168 102 -478q0 -319 -127 -504.5t-409 -185.5q-276 0 -410 172l-170 -200zM231 657q0 -225 54 -362l714 842q-106 133 -323 133q-129 0 -218 -45t-137.5 -131 t-69 -192t-20.5 -245zM328 211q109 -168 348 -168q127 0 216 46t136 133t66.5 192.5t19.5 242.5q0 260 -67 402z" />
<glyph unicode="&#xd9;" horiz-adv-x="1341" d="M205 489v836h94v-815q0 -266 85 -366.5t300 -100.5q197 0 277.5 105.5t80.5 361.5v815h95v-840q0 -266 -108.5 -392t-344.5 -126q-258 0 -368.5 125t-110.5 397zM500 1636h110l197 -239h-80z" />
<glyph unicode="&#xda;" horiz-adv-x="1341" d="M205 489v836h94v-815q0 -266 85 -366.5t300 -100.5q197 0 277.5 105.5t80.5 361.5v815h95v-840q0 -266 -108.5 -392t-344.5 -126q-258 0 -368.5 125t-110.5 397zM541 1393l196 239h111l-227 -239h-80z" />
<glyph unicode="&#xdb;" horiz-adv-x="1341" d="M205 489v836h94v-815q0 -266 85 -366.5t300 -100.5q197 0 277.5 105.5t80.5 361.5v815h95v-840q0 -266 -108.5 -392t-344.5 -126q-258 0 -368.5 125t-110.5 397zM444 1407l172 219h99l168 -219h-82l-135 152l-140 -152h-82z" />
<glyph unicode="&#xdc;" horiz-adv-x="1341" d="M205 489v836h94v-815q0 -266 85 -366.5t300 -100.5q197 0 277.5 105.5t80.5 361.5v815h95v-840q0 -266 -108.5 -392t-344.5 -126q-258 0 -368.5 125t-110.5 397zM483 1425v129h97v-129h-97zM784 1425v129h97v-129h-97z" />
<glyph unicode="&#xdd;" horiz-adv-x="1089" d="M35 1325h106l420 -645l400 645h94l-451 -729v-596h-94v588zM457 1417l196 240h111l-227 -240h-80z" />
<glyph unicode="&#xde;" d="M147 0v1329h95v-256h159q207 0 327 -89t120 -279q0 -203 -129 -295.5t-338 -92.5h-139v-317h-95zM242 403h127q78 0 138 11.5t120.5 41t93.5 93t33 156.5q0 289 -340 288h-172v-590z" />
<glyph unicode="&#xdf;" horiz-adv-x="966" d="M147 0v965q0 201 63.5 291t229.5 90q131 0 214 -75t83 -206q0 -47 -24.5 -96t-49 -81t-73.5 -73t-62 -49l-49 -33l83 -37q32 -14 96.5 -55t102.5 -83t69.5 -111.5t31.5 -149.5q0 -94 -25.5 -162.5t-66.5 -108.5t-102.5 -63.5t-121 -31t-132.5 -7.5l22 74q74 0 129.5 11 t108.5 42t80.5 93.5t27.5 156.5q0 80 -42 150.5t-106.5 117.5t-122.5 77t-110 44v72q252 162 252 309q0 109 -65.5 158t-147.5 49q-119 0 -164 -62.5t-45 -228.5v-987h-84z" />
<glyph unicode="&#xe0;" horiz-adv-x="935" d="M100 246q0 156 107.5 234.5t388.5 78.5h96v86q0 244 -215 244q-141 0 -305 -80l-31 74q190 74 334 73q141 0 221 -75.5t80 -225.5v-368q0 -49 25 -287h-68q0 10 -15.5 56t-17.5 63q-37 -61 -108.5 -100t-163.5 -39q-135 0 -231.5 67.5t-96.5 198.5zM190 248 q0 -92 61.5 -146.5t176.5 -54.5q90 0 160.5 41t105.5 109v292h-69q-244 0 -339.5 -55t-95.5 -186zM217 1325h111l196 -240h-80z" />
<glyph unicode="&#xe1;" horiz-adv-x="935" d="M100 246q0 156 107.5 234.5t388.5 78.5h96v86q0 244 -215 244q-141 0 -305 -80l-31 74q190 74 334 73q141 0 221 -75.5t80 -225.5v-368q0 -49 25 -287h-68q0 10 -15.5 56t-17.5 63q-37 -61 -108.5 -100t-163.5 -39q-135 0 -231.5 67.5t-96.5 198.5zM190 248 q0 -92 61.5 -146.5t176.5 -54.5q90 0 160.5 41t105.5 109v292h-69q-244 0 -339.5 -55t-95.5 -186zM358 1085l197 240h111l-228 -240h-80z" />
<glyph unicode="&#xe2;" horiz-adv-x="935" d="M100 246q0 156 107.5 234.5t388.5 78.5h96v86q0 244 -215 244q-141 0 -305 -80l-31 74q190 74 334 73q141 0 221 -75.5t80 -225.5v-368q0 -49 25 -287h-68q0 10 -15.5 56t-17.5 63q-37 -61 -108.5 -100t-163.5 -39q-135 0 -231.5 67.5t-96.5 198.5zM190 248 q0 -92 61.5 -146.5t176.5 -54.5q90 0 160.5 41t105.5 109v292h-69q-244 0 -339.5 -55t-95.5 -186zM223 1106l172 219h99l168 -219h-82l-136 151l-139 -151h-82z" />
<glyph unicode="&#xe3;" horiz-adv-x="935" d="M100 246q0 156 107.5 234.5t388.5 78.5h96v86q0 244 -215 244q-141 0 -305 -80l-31 74q190 74 334 73q141 0 221 -75.5t80 -225.5v-368q0 -49 25 -287h-68q0 10 -15.5 56t-17.5 63q-37 -61 -108.5 -100t-163.5 -39q-135 0 -231.5 67.5t-96.5 198.5zM186 1143 q33 74 67 100.5t97 26.5q31 0 94.5 -34t90.5 -34q57 0 83 80l72 -31q-43 -121 -151 -121q-29 0 -93.5 37t-97.5 37q-66 0 -90 -92zM190 248q0 -92 61.5 -146.5t176.5 -54.5q90 0 160.5 41t105.5 109v292h-69q-244 0 -339.5 -55t-95.5 -186z" />
<glyph unicode="&#xe4;" horiz-adv-x="935" d="M100 246q0 156 107.5 234.5t388.5 78.5h96v86q0 244 -215 244q-141 0 -305 -80l-31 74q190 74 334 73q141 0 221 -75.5t80 -225.5v-368q0 -49 25 -287h-68q0 10 -15.5 56t-17.5 63q-37 -61 -108.5 -100t-163.5 -39q-135 0 -231.5 67.5t-96.5 198.5zM190 248 q0 -92 61.5 -146.5t176.5 -54.5q90 0 160.5 41t105.5 109v292h-69q-244 0 -339.5 -55t-95.5 -186zM264 1126v138h98v-138h-98zM569 1126v138h97v-138h-97z" />
<glyph unicode="&#xe5;" horiz-adv-x="935" d="M100 246q0 156 107.5 234.5t388.5 78.5h96v86q0 244 -215 244q-141 0 -305 -80l-31 74q190 74 334 73q141 0 221 -75.5t80 -225.5v-368q0 -49 25 -287h-68q0 10 -15.5 56t-17.5 63q-37 -61 -108.5 -100t-163.5 -39q-135 0 -231.5 67.5t-96.5 198.5zM190 248 q0 -92 61.5 -146.5t176.5 -54.5q90 0 160.5 41t105.5 109v292h-69q-244 0 -339.5 -55t-95.5 -186zM281 1206.5q0 69.5 49 118.5t120.5 49t121 -48t49.5 -120q0 -70 -49.5 -119t-120.5 -49q-70 0 -120 49.5t-50 119zM344 1208q0 -39 31 -72.5t76 -33.5q51 0 77.5 30.5 t26.5 75.5t-28.5 76t-75.5 31q-45 0 -76 -33t-31 -74z" />
<glyph unicode="&#xe6;" horiz-adv-x="1533" d="M100 246q0 156 107.5 234.5t388.5 78.5h104v86q0 244 -223 244q-141 0 -305 -80l-31 74q190 74 334 73q229 0 285 -184q88 184 297 184q211 0 292 -135t81 -372h-648q0 -401 297 -402q129 0 279 80l24 -76q-150 -72 -319 -71q-221 0 -309 192q-61 -98 -137 -145t-189 -47 q-137 0 -232.5 65.5t-95.5 200.5zM190 248q0 -92 60.5 -146.5t177.5 -54.5q86 0 162 47t110 117v278h-75q-244 0 -339.5 -55t-95.5 -186zM780 516h566q0 188 -68 280.5t-219 92.5q-131 0 -200 -98.5t-79 -274.5z" />
<glyph unicode="&#xe7;" horiz-adv-x="829" d="M100 461q0 231 99.5 360t294.5 129q111 0 217 -43v-90q-92 70 -217 70q-162 0 -235 -116t-73 -310q0 -178 76 -295t230 -117q113 0 225 72v-96q-94 -33 -191 -43l-10 -48q70 0 110 -39.5t40 -87.5q0 -61 -43 -103t-134 -42q-84 0 -172 12v76q115 -14 162 -14 q41 0 72 18.5t31 48.5q0 33 -34 50.5t-134 17.5l30 111q-168 16 -256 144t-88 335z" />
<glyph unicode="&#xe8;" horiz-adv-x="944" d="M100 459q0 88 18.5 170t58.5 158.5t115 122.5t177 46q111 0 185.5 -38.5t113.5 -112.5t54.5 -159t15.5 -197h-645q0 -401 296 -402q131 0 289 84l25 -76q-158 -76 -330 -75q-193 0 -283 133t-90 346zM190 516h566q0 188 -67.5 280.5t-219.5 92.5q-131 0 -200 -98.5 t-79 -274.5zM252 1325h110l197 -240h-80z" />
<glyph unicode="&#xe9;" horiz-adv-x="944" d="M100 459q0 88 18.5 170t58.5 158.5t115 122.5t177 46q111 0 185.5 -38.5t113.5 -112.5t54.5 -159t15.5 -197h-645q0 -401 296 -402q131 0 289 84l25 -76q-158 -76 -330 -75q-193 0 -283 133t-90 346zM190 516h566q0 188 -67.5 280.5t-219.5 92.5q-131 0 -200 -98.5 t-79 -274.5zM326 1085l196 240h111l-227 -240h-80z" />
<glyph unicode="&#xea;" horiz-adv-x="944" d="M100 459q0 88 18.5 170t58.5 158.5t115 122.5t177 46q111 0 185.5 -38.5t113.5 -112.5t54.5 -159t15.5 -197h-645q0 -401 296 -402q131 0 289 84l25 -76q-158 -76 -330 -75q-193 0 -283 133t-90 346zM190 516h566q0 188 -67.5 280.5t-219.5 92.5q-131 0 -200 -98.5 t-79 -274.5zM240 1106l172 219h98l168 -219h-82l-135 151l-139 -151h-82z" />
<glyph unicode="&#xeb;" horiz-adv-x="944" d="M100 459q0 88 18.5 170t58.5 158.5t115 122.5t177 46q111 0 185.5 -38.5t113.5 -112.5t54.5 -159t15.5 -197h-645q0 -401 296 -402q131 0 289 84l25 -76q-158 -76 -330 -75q-193 0 -283 133t-90 346zM190 516h566q0 188 -67.5 280.5t-219.5 92.5q-131 0 -200 -98.5 t-79 -274.5zM281 1155v129h96v-129h-96zM582 1155v129h96v-129h-96z" />
<glyph unicode="&#xec;" horiz-adv-x="385" d="M37 1325h110l197 -240h-80zM152 0v936h84v-936h-84z" />
<glyph unicode="&#xed;" horiz-adv-x="385" d="M41 1085l197 240h110l-227 -240h-80zM152 0v936h84v-936h-84z" />
<glyph unicode="&#xee;" horiz-adv-x="385" d="M-27 1106l172 219h99l168 -219h-82l-135 151l-140 -151h-82zM147 0v936h84v-936h-84z" />
<glyph unicode="&#xef;" horiz-adv-x="385" d="M-6 1176v129h96v-129h-96zM154 0v936h84v-936h-84zM295 1176v129h96v-129h-96z" />
<glyph unicode="&#xf0;" d="M90 401q0 184 95.5 296t269.5 112q104 0 183 -65.5t126 -168.5q0 420 -234 584l-186 -125l-80 47l187 125q-90 43 -209 68l-41 94q201 -39 325 -111l170 115l80 -47l-174 -117q248 -188 248 -628q0 -127 -15.5 -225.5t-56.5 -190.5t-123 -142.5t-200 -50.5 q-168 0 -266.5 127t-98.5 303zM188 401q0 -160 72 -258t193 -98q152 0 222 104.5t70 354.5q-14 35 -33.5 68.5t-54 73.5t-89 64.5t-117.5 24.5q-263 0 -263 -334z" />
<glyph unicode="&#xf1;" horiz-adv-x="960" d="M131 936h68l26 -148l15 19l20 28l24 26q17 19 30 29l36 24q23 15 44.5 22.5t50 13.5t59.5 6q309 0 309 -366v-590h-84v573q0 72 -9 123.5t-32.5 97.5t-73 70.5t-122.5 24.5q-92 0 -163 -66.5t-98 -142.5v-680h-84v737q0 43 -7 105.5t-9 93.5zM244 1143q33 74 66.5 100.5 t97.5 26.5q31 0 94 -34t90 -34q57 0 84 80l72 -31q-43 -121 -152 -121q-29 0 -93.5 37t-96.5 37q-66 0 -91 -92z" />
<glyph unicode="&#xf2;" horiz-adv-x="976" d="M100 473q0 139 33 241.5t123 172t233 69.5q387 0 388 -483q0 -494 -388 -493q-389 -1 -389 493zM190 473q0 -426 299 -426q170 0 233.5 113.5t63.5 312.5q0 92 -13 163t-45 130t-92.5 91t-146.5 32q-158 0 -228.5 -114t-70.5 -302zM297 1325h111l196 -240h-80z" />
<glyph unicode="&#xf3;" horiz-adv-x="976" d="M100 473q0 139 33 241.5t123 172t233 69.5q387 0 388 -483q0 -494 -388 -493q-389 -1 -389 493zM190 473q0 -426 299 -426q170 0 233.5 113.5t63.5 312.5q0 92 -13 163t-45 130t-92.5 91t-146.5 32q-158 0 -228.5 -114t-70.5 -302zM350 1085l197 240h110l-227 -240h-80z " />
<glyph unicode="&#xf4;" horiz-adv-x="976" d="M100 473q0 139 33 241.5t123 172t233 69.5q387 0 388 -483q0 -494 -388 -493q-389 -1 -389 493zM190 473q0 -426 299 -426q170 0 233.5 113.5t63.5 312.5q0 92 -13 163t-45 130t-92.5 91t-146.5 32q-158 0 -228.5 -114t-70.5 -302zM272 1106l172 219h99l168 -219h-82 l-135 151l-140 -151h-82z" />
<glyph unicode="&#xf5;" horiz-adv-x="976" d="M100 473q0 139 33 241.5t123 172t233 69.5q387 0 388 -483q0 -494 -388 -493q-389 -1 -389 493zM190 473q0 -426 299 -426q170 0 233.5 113.5t63.5 312.5q0 92 -13 163t-45 130t-92.5 91t-146.5 32q-158 0 -228.5 -114t-70.5 -302zM211 1143q33 74 66.5 100.5t97.5 26.5 q31 0 94 -34t90 -34q57 0 84 80l72 -31q-43 -121 -152 -121q-29 0 -93.5 37t-96.5 37q-66 0 -90 -92z" />
<glyph unicode="&#xf6;" horiz-adv-x="976" d="M100 473q0 139 33 241.5t123 172t233 69.5q387 0 388 -483q0 -494 -388 -493q-389 -1 -389 493zM190 473q0 -426 299 -426q170 0 233.5 113.5t63.5 312.5q0 92 -13 163t-45 130t-92.5 91t-146.5 32q-158 0 -228.5 -114t-70.5 -302zM279 1155v129h96v-129h-96zM580 1155 v129h96v-129h-96z" />
<glyph unicode="&#xf7;" d="M61 401v88h820v-88h-820zM416 41v141h114v-141h-114zM416 743v142h114v-142h-114z" />
<glyph unicode="&#xf8;" horiz-adv-x="976" d="M25 18l137 144q-61 123 -62 311q0 139 33 241.5t123 172t233 69.5q197 0 293 -125l123 134l66 -62l-142 -151q47 -113 48 -279q0 -494 -388 -493q-176 0 -276 106l-123 -129zM190 473q0 -145 35 -244l500 541q-72 119 -236 119q-158 0 -228.5 -114t-70.5 -302zM268 145 q72 -98 221 -98q170 0 233.5 113.5t63.5 312.5q0 123 -22 207z" />
<glyph unicode="&#xf9;" horiz-adv-x="946" d="M147 346v590h84v-574q0 -150 47.5 -232.5t184.5 -82.5q92 0 158.5 65.5t93.5 143.5v680h84v-737q0 -43 7 -105.5t9 -93.5h-67l-27 147q-2 -2 -20.5 -27.5t-28.5 -36.5t-36 -34.5t-50.5 -36t-63.5 -22.5t-82 -10q-293 -1 -293 366zM285 1325h110l197 -240h-80z" />
<glyph unicode="&#xfa;" horiz-adv-x="946" d="M147 346v590h84v-574q0 -150 47.5 -232.5t184.5 -82.5q92 0 158.5 65.5t93.5 143.5v680h84v-737q0 -43 7 -105.5t9 -93.5h-67l-27 147q-2 -2 -20.5 -27.5t-28.5 -36.5t-36 -34.5t-50.5 -36t-63.5 -22.5t-82 -10q-293 -1 -293 366zM334 1085l196 240h111l-227 -240h-80z " />
<glyph unicode="&#xfb;" horiz-adv-x="946" d="M147 346v590h84v-574q0 -150 47.5 -232.5t184.5 -82.5q92 0 158.5 65.5t93.5 143.5v680h84v-737q0 -43 7 -105.5t9 -93.5h-67l-27 147q-2 -2 -20.5 -27.5t-28.5 -36.5t-36 -34.5t-50.5 -36t-63.5 -22.5t-82 -10q-293 -1 -293 366zM260 1106l172 219h98l168 -219h-82 l-135 151l-139 -151h-82z" />
<glyph unicode="&#xfc;" horiz-adv-x="946" d="M147 346v590h84v-574q0 -150 47.5 -232.5t184.5 -82.5q92 0 158.5 65.5t93.5 143.5v680h84v-737q0 -43 7 -105.5t9 -93.5h-67l-27 147q-2 -2 -20.5 -27.5t-28.5 -36.5t-36 -34.5t-50.5 -36t-63.5 -22.5t-82 -10q-293 -1 -293 366zM274 1155v129h97v-129h-97zM575 1155 v129h97v-129h-97z" />
<glyph unicode="&#xfd;" horiz-adv-x="950" d="M86 936l90 2l328 -803l278 801h82l-391 -1086q-39 -104 -88 -151t-162 -88l-24 78q145 39 180 133l82 217zM358 1085l197 240h111l-228 -240h-80z" />
<glyph unicode="&#xfe;" horiz-adv-x="964" d="M131 -369q16 158 16 656v1059h84v-558q35 63 111 115.5t170 52.5q180 0 266 -135t86 -348q0 -219 -87 -356t-275 -137q-82 0 -159 40.5t-118 98.5l-26 -488h-68zM227 203q96 -156 254 -156q293 0 293 422q0 213 -71.5 316.5t-196.5 103.5q-63 0 -115.5 -24.5t-85.5 -64.5 t-50 -67.5t-28 -54.5v-475z" />
<glyph unicode="&#xff;" horiz-adv-x="950" d="M86 936l90 2l328 -803l278 801h82l-391 -1086q-39 -104 -88 -151t-162 -88l-24 78q145 39 180 133l82 217zM287 1157v127h94v-127h-94zM584 1157v127h94v-127h-94z" />
<glyph unicode="&#x152;" horiz-adv-x="1837" d="M133 657q0 317 129 503t416 186q92 0 166 -21h852v-76h-701q178 -137 193 -526h465v-76h-463q0 -414 -189 -571h713v-76h-840q-94 -33 -198 -33q-295 0 -419 183t-124 507zM231 657q0 -287 99.5 -450.5t345.5 -163.5q125 0 209 46t129 134t62.5 191.5t17.5 242.5 q0 113 -10.5 200t-38 167t-73.5 132t-121 83t-175 31q-129 0 -218 -45t-137.5 -131t-69 -192t-20.5 -245z" />
<glyph unicode="&#x153;" horiz-adv-x="1626" d="M100 473q0 139 33 241.5t123 172t233 69.5q272 0 345 -245q78 246 315 245q211 0 292 -135t81 -372h-648q0 -401 297 -402q129 0 279 80l25 -76q-150 -72 -320 -71q-250 0 -326 241q-72 -242 -340 -241q-389 -1 -389 493zM190 473q0 -426 299 -426q170 0 233.5 113.5 t63.5 312.5q0 92 -13 163t-45 130t-92.5 91t-146.5 32q-158 0 -228.5 -114t-70.5 -302zM872 516h566q0 188 -67.5 280.5t-219.5 92.5q-131 0 -200 -98.5t-79 -274.5z" />
<glyph unicode="&#x178;" horiz-adv-x="1089" d="M35 1325h106l420 -645l400 645h94l-451 -729v-596h-94v588zM367 1466v129h96v-129h-96zM668 1466v129h96v-129h-96z" />
<glyph unicode="&#x2c6;" horiz-adv-x="385" d="M-27 1106l172 219h99l168 -219h-82l-135 151l-140 -151h-82z" />
<glyph unicode="&#x2dc;" horiz-adv-x="385" d="M-59 1143q33 74 66.5 100.5t96.5 26.5q31 0 94.5 -34t90.5 -34q57 0 84 80l71 -31q-43 -121 -151 -121q-29 0 -93.5 37t-97.5 37q-66 0 -90 -92z" />
<glyph unicode="&#x2013;" horiz-adv-x="1024" d="M-2 446v91h1028v-91h-1028z" />
<glyph unicode="&#x2014;" horiz-adv-x="2048" d="M-2 446v91h2052v-91h-2052z" />
<glyph unicode="&#x2018;" horiz-adv-x="471" d="M92 942l203 385h74l-174 -385h-103z" />
<glyph unicode="&#x2019;" horiz-adv-x="471" d="M102 940l170 385h107l-199 -385h-78z" />
<glyph unicode="&#x201a;" horiz-adv-x="471" d="M102 -180l170 385h107l-199 -385h-78z" />
<glyph unicode="&#x201c;" horiz-adv-x="696" d="M82 942l203 385h73l-174 -385h-102zM338 942l201 385h75l-174 -385h-102z" />
<glyph unicode="&#x201d;" horiz-adv-x="696" d="M82 940l174 385h102l-200 -385h-76zM334 940l174 385h106l-202 -385h-78z" />
<glyph unicode="&#x201e;" horiz-adv-x="696" d="M82 -180l174 385h102l-200 -385h-76zM334 -180l174 385h106l-202 -385h-78z" />
<glyph unicode="&#x2022;" d="M227 663.5q0 102.5 71 173t173 70.5t173 -70.5t71 -173t-71 -174t-173 -71.5t-173 71.5t-71 174z" />
<glyph unicode="&#x2026;" horiz-adv-x="1413" d="M178 0v141h115v-141h-115zM649 0v141h115v-141h-115zM1120 0v141h115v-141h-115z" />
<glyph unicode="&#x2039;" horiz-adv-x="471" d="M86 553l190 373h91l-199 -369l197 -369h-89z" />
<glyph unicode="&#x203a;" horiz-adv-x="471" d="M104 926h91l190 -373l-190 -365h-89l197 369z" />
<glyph unicode="&#x2122;" horiz-adv-x="1822" d="M184 1270v55h543v-55h-240v-674h-65v674h-238zM834 598v727h84l290 -639l291 639h78v-727h-61v659l-295 -659h-31l-299 659v-659h-57z" />
<glyph unicode="&#xe000;" horiz-adv-x="935" d="M0 935h935v-935h-935v935z" />
<glyph unicode="&#xfb01;" horiz-adv-x="819" d="M35 868v68h141v139q0 236 254 287l25 -76q-109 -23 -152 -66.5t-43 -138.5v-145h172v-68h-172v-868h-84v868h-141zM580 1186v139h96v-139h-96zM586 0v936h84v-936h-84z" />
<glyph unicode="&#xfb02;" horiz-adv-x="819" d="M35 868v68h141v139q0 236 254 287l25 -76q-109 -23 -152 -66.5t-43 -138.5v-145h172v-68h-172v-868h-84v868h-141zM588 0v1346h84v-1346h-84z" />
<glyph unicode="&#xfb03;" horiz-adv-x="1347" d="M31 868v68h155v131q0 139 80 218t236 91l20 -73q-150 -14 -201 -70.5t-51 -159.5v-137h193v-68h-193v-868h-84v868h-155zM512 868v68h156v131q0 139 79.5 218t235.5 91l21 -73q-150 -14 -201 -70.5t-51 -159.5v-137h192v-68h-192v-868h-84v868h-156zM1106 1186v139h98 v-139h-98zM1114 0v936h84v-936h-84z" />
<glyph unicode="&#xfb04;" horiz-adv-x="1341" d="M31 868v68h155v131q0 139 80 218t236 91l20 -73q-150 -14 -201 -70.5t-51 -159.5v-137h193v-68h-193v-868h-84v868h-155zM512 868v68h156v131q0 139 79.5 218t235.5 91l21 -73q-150 -14 -201 -70.5t-51 -159.5v-137h192v-68h-192v-868h-84v868h-156zM1110 0v1346h84 v-1346h-84z" />
<glyph horiz-adv-x="471" />
</font>
</defs>
</svg>
