<?xml version="1.0" encoding="UTF-8" standalone="no"?>
<!-- Generator: Adobe Illustrator 16.0.4, SVG Export Plug-In . SVG Version: 6.00 Build 0)  -->

<svg
   xmlns:dc="http://purl.org/dc/elements/1.1/"
   xmlns:cc="http://creativecommons.org/ns#"
   xmlns:rdf="http://www.w3.org/1999/02/22-rdf-syntax-ns#"
   xmlns:svg="http://www.w3.org/2000/svg"
   xmlns="http://www.w3.org/2000/svg"
   xmlns:sodipodi="http://sodipodi.sourceforge.net/DTD/sodipodi-0.dtd"
   xmlns:inkscape="http://www.inkscape.org/namespaces/inkscape"
   version="1.1"
   id="Ebene_1"
   x="0px"
   y="0px"
   width="44.375"
   height="44.380001"
   viewBox="0 0 44.375 44.380001"
   enable-background="new 0 0 44.375 37.125"
   xml:space="preserve"
   inkscape:version="0.48.3.1 r9886"
   sodipodi:docname="discussion.svg"><metadata
   id="metadata2999"><rdf:RDF><cc:Work
       rdf:about=""><dc:format>image/svg+xml</dc:format><dc:type
         rdf:resource="http://purl.org/dc/dcmitype/StillImage" /></cc:Work></rdf:RDF></metadata><defs
   id="defs2997">
	
</defs><sodipodi:namedview
   pagecolor="#ffffff"
   bordercolor="#666666"
   borderopacity="1"
   objecttolerance="10"
   gridtolerance="10"
   guidetolerance="10"
   inkscape:pageopacity="0"
   inkscape:pageshadow="2"
   inkscape:window-width="1440"
   inkscape:window-height="880"
   id="namedview2995"
   showgrid="false"
   inkscape:zoom="6.3569024"
   inkscape:cx="1.5013247"
   inkscape:cy="18.5625"
   inkscape:window-x="0"
   inkscape:window-y="20"
   inkscape:window-maximized="1"
   inkscape:current-layer="Ebene_1" />
<path
   style="fill:#000000"
   inkscape:connector-curvature="0"
   id="path2993"
   d="m 0,16.910621 c 0,-1.828 0.472,-3.536 1.417,-5.125 0.945,-1.589 2.227,-2.9749997 3.847,-4.1579997 1.62,-1.182 3.513,-2.119 5.678,-2.81 2.165,-0.691 4.492,-1.037 6.979,-1.037 2.487,0 4.817,0.346 6.991,1.037 2.173,0.691 4.069,1.628 5.689,2.81 1.62,1.183 2.898,2.5679997 3.835,4.1579997 0.937,1.59 1.405,3.298 1.405,5.125 0,1.796 -0.469,3.494 -1.405,5.09 -0.937,1.598 -2.215,2.987 -3.835,4.169 -1.62,1.184 -3.517,2.12 -5.689,2.811 -2.174,0.691 -4.504,1.037 -6.991,1.037 -0.568,0 -1.133,-0.023 -1.693,-0.069 -0.56,-0.046 -1.109,-0.1 -1.646,-0.161 -2.258,1.735 -4.837,2.925 -7.74,3.57 -0.308,0.062 -0.618,0.119 -0.933,0.173 -0.315,0.054 -0.649,0.111 -1.002,0.173 -0.184,0.03 -0.349,-0.02 -0.495,-0.15 -0.146,-0.13 -0.25,-0.272 -0.311,-0.426 v -0.046 c -0.062,-0.185 -0.039,-0.335 0.068,-0.45 0.107,-0.115 0.245,-0.25 0.415,-0.403 0.276,-0.276 0.541,-0.557 0.794,-0.841 0.253,-0.284 0.48,-0.606 0.68,-0.968 0.199,-0.36 0.388,-0.786 0.564,-1.278 0.176,-0.491 0.326,-1.098 0.449,-1.819 -2.166,-1.198 -3.885,-2.699 -5.16,-4.503 -1.274,-1.805 -1.911,-3.775 -1.911,-5.909 z m 14.949,17.022 c 0.093,-0.061 0.196,-0.122 0.312,-0.184 0.116,-0.062 0.219,-0.123 0.311,-0.185 0.783,0.092 1.566,0.139 2.35,0.139 3.025,0 5.858,-0.435 8.5,-1.302 2.641,-0.867 4.929,-2.058 6.864,-3.57 1.935,-1.513 3.459,-3.29 4.572,-5.333 1.113,-2.042 1.67,-4.238 1.67,-6.587 0,-0.629 -0.046,-1.274 -0.139,-1.935 1.475,1.198 2.638,2.542 3.49,4.031 0.853,1.489 1.278,3.087 1.278,4.791 0,2.135 -0.638,4.104 -1.912,5.908 -1.274,1.805 -2.994,3.306 -5.159,4.503 0.122,0.723 0.269,1.329 0.438,1.82 0.169,0.491 0.364,0.918 0.587,1.278 0.223,0.361 0.453,0.684 0.691,0.968 0.238,0.284 0.495,0.564 0.771,0.841 0.153,0.153 0.288,0.296 0.403,0.426 0.115,0.131 0.142,0.272 0.081,0.426 v 0.047 c -0.031,0.184 -0.127,0.334 -0.288,0.448 -0.161,0.115 -0.334,0.158 -0.519,0.127 -0.354,-0.062 -0.688,-0.119 -1.002,-0.173 -0.315,-0.054 -0.626,-0.111 -0.933,-0.173 -1.475,-0.307 -2.856,-0.768 -4.146,-1.382 -1.29,-0.614 -2.488,-1.344 -3.594,-2.188 -0.537,0.062 -1.086,0.115 -1.646,0.161 -0.561,0.047 -1.125,0.069 -1.693,0.069 -2.165,0 -4.2,-0.269 -6.104,-0.806 -1.904,-0.537 -3.632,-1.259 -5.183,-2.165 z" />
</svg>