<?xml version="1.0" encoding="UTF-8" standalone="no"?>
<!-- Generator: Adobe Illustrator 16.0.4, SVG Export Plug-In . SVG Version: 6.00 Build 0)  -->

<svg
   xmlns:dc="http://purl.org/dc/elements/1.1/"
   xmlns:cc="http://creativecommons.org/ns#"
   xmlns:rdf="http://www.w3.org/1999/02/22-rdf-syntax-ns#"
   xmlns:svg="http://www.w3.org/2000/svg"
   xmlns="http://www.w3.org/2000/svg"
   xmlns:sodipodi="http://sodipodi.sourceforge.net/DTD/sodipodi-0.dtd"
   xmlns:inkscape="http://www.inkscape.org/namespaces/inkscape"
   version="1.1"
   id="Ebene_1"
   x="0px"
   y="0px"
   width="38.209999"
   height="38.209999"
   viewBox="0 0 38.209999 38.209999"
   enable-background="new 0 0 30 38.209"
   xml:space="preserve"
   inkscape:version="0.48.3.1 r9886"
   sodipodi:docname="documents.svg"><metadata
   id="metadata13"><rdf:RDF><cc:Work
       rdf:about=""><dc:format>image/svg+xml</dc:format><dc:type
         rdf:resource="http://purl.org/dc/dcmitype/StillImage" /></cc:Work></rdf:RDF></metadata><defs
   id="defs11">
	
	
</defs><sodipodi:namedview
   pagecolor="#ffffff"
   bordercolor="#666666"
   borderopacity="1"
   objecttolerance="10"
   gridtolerance="10"
   guidetolerance="10"
   inkscape:pageopacity="0"
   inkscape:pageshadow="2"
   inkscape:window-width="1440"
   inkscape:window-height="880"
   id="namedview9"
   showgrid="false"
   inkscape:zoom="6.1765553"
   inkscape:cx="-6.2901843"
   inkscape:cy="19.1045"
   inkscape:window-x="0"
   inkscape:window-y="20"
   inkscape:window-maximized="1"
   inkscape:current-layer="Ebene_1" />
<path
   style="fill:#000000"
   d="m 12.776875,0.00100129 c -0.995,0 -1.84375,0.83825001 -1.84375,1.90625001 l 0,3.34375 8.90625,0 c 0.446,0 0.831499,0.09625 1.1875,0.28125 0.213,0.11 0.5345,0.28675 0.8125,0.59375 l 6.75,7.3437497 0,0.03125 0.03125,0.03125 c 0.167,0.201 0.28825,0.43175 0.40625,0.71875 0.155,0.351 0.25,0.7305 0.25,1.1875 l 0,15.40625 3.031249,0 c 0.996,0 1.78125,-0.923 1.78125,-2 l 0,-19.5937497 c 0,-0.176 -0.0255,-0.36725 -0.0625,-0.53125 l -6.218749,0 c -0.639,0 -1.28125,-0.58325 -1.28125,-1.28125 l 0,-7.18750001 c -0.047,-0.029 -0.10625,-0.06775 -0.15625,-0.09375 -0.234001,-0.12 -0.477,-0.15625 -0.75,-0.15625 l -12.84375,0 z M 5.9331245,7.3760013 c -0.997,-0.001 -1.8125,0.83825 -1.8125,1.90625 l 0,26.9374997 c 0,1.076 0.8165,2 1.8125,2 l 19.5312505,0 c 0.995999,0 1.78125,-0.924 1.78125,-2 l 0,-3.40625 0,-16.21875 c 0,-0.167 7.5e-4,-0.31275 -0.03125,-0.46875 l -6.3125,0 c -0.641,0 -1.28125,-0.6155 -1.28125,-1.3125 l 0,-7.2499997 c -0.021,-0.013 -0.0385,-0.01925 -0.0625,-0.03125 -0.232,-0.121 -0.50725,-0.15625 -0.78125,-0.15625 l -8.8750005,0 -3.96875,0 z"
   id="path5"
   inkscape:connector-curvature="0" />
</svg>