<?xml version="1.0" encoding="UTF-8" standalone="no"?>
<!-- Generator: Adobe Illustrator 16.0.4, SVG Export Plug-In . SVG Version: 6.00 Build 0)  -->

<svg
   xmlns:dc="http://purl.org/dc/elements/1.1/"
   xmlns:cc="http://creativecommons.org/ns#"
   xmlns:rdf="http://www.w3.org/1999/02/22-rdf-syntax-ns#"
   xmlns:svg="http://www.w3.org/2000/svg"
   xmlns="http://www.w3.org/2000/svg"
   xmlns:sodipodi="http://sodipodi.sourceforge.net/DTD/sodipodi-0.dtd"
   xmlns:inkscape="http://www.inkscape.org/namespaces/inkscape"
   version="1.1"
   id="Ebene_1"
   x="0px"
   y="0px"
   width="30px"
   height="38.209px"
   viewBox="0 0 30 38.209"
   enable-background="new 0 0 30 38.209"
   xml:space="preserve"
   inkscape:version="0.48.3.1 r9886"
   sodipodi:docname="absatzweise_dokumente.svg"><metadata
   id="metadata13"><rdf:RDF><cc:Work
       rdf:about=""><dc:format>image/svg+xml</dc:format><dc:type
         rdf:resource="http://purl.org/dc/dcmitype/StillImage" /></cc:Work></rdf:RDF></metadata><defs
   id="defs11">
	
	
</defs><sodipodi:namedview
   pagecolor="#ffffff"
   bordercolor="#666666"
   borderopacity="1"
   objecttolerance="10"
   gridtolerance="10"
   guidetolerance="10"
   inkscape:pageopacity="0"
   inkscape:pageshadow="2"
   inkscape:window-width="1440"
   inkscape:window-height="880"
   id="namedview9"
   showgrid="false"
   inkscape:zoom="6.1765553"
   inkscape:cx="15.323805"
   inkscape:cy="19.1045"
   inkscape:window-x="0"
   inkscape:window-y="20"
   inkscape:window-maximized="1"
   inkscape:current-layer="Ebene_1" />
<path
   style="fill:#000000"
   d="M 8.65625 0 C 7.66125 0 6.8125 0.83825001 6.8125 1.90625 L 6.8125 5.25 L 15.71875 5.25 C 16.16475 5.25 16.55025 5.34625 16.90625 5.53125 C 17.11925 5.64125 17.44075 5.818 17.71875 6.125 L 24.46875 13.46875 L 24.46875 13.5 L 24.5 13.53125 C 24.667 13.73225 24.78825 13.963 24.90625 14.25 C 25.06125 14.601 25.15625 14.9805 25.15625 15.4375 L 25.15625 30.84375 L 28.1875 30.84375 C 29.1835 30.84375 29.96875 29.92075 29.96875 28.84375 L 29.96875 9.25 C 29.96875 9.074 29.94325 8.88275 29.90625 8.71875 L 23.6875 8.71875 C 23.0485 8.71875 22.40625 8.1355 22.40625 7.4375 L 22.40625 0.25 C 22.35925 0.221 22.3 0.18225 22.25 0.15625 C 22.016 0.036250001 21.773 0 21.5 0 L 8.65625 0 z M 1.8125 7.375 C 0.81550001 7.374 -1.4802974e-16 8.21325 0 9.28125 L 0 36.21875 C 0 37.29475 0.81650001 38.21875 1.8125 38.21875 L 21.34375 38.21875 C 22.33975 38.21875 23.125 37.29475 23.125 36.21875 L 23.125 32.8125 L 23.125 16.59375 C 23.125 16.42675 23.12575 16.281 23.09375 16.125 L 16.78125 16.125 C 16.14025 16.125 15.5 15.5095 15.5 14.8125 L 15.5 7.5625 C 15.479 7.5495 15.4615 7.54325 15.4375 7.53125 C 15.2055 7.41025 14.93025 7.375 14.65625 7.375 L 5.78125 7.375 L 1.8125 7.375 z "
   id="path5" />
</svg>