<?xml version="1.0" encoding="UTF-8" standalone="no"?>
<!-- Generator: Adobe Illustrator 17.0.1, SVG Export Plug-In . SVG Version: 6.00 Build 0)  -->

<svg
   xmlns:dc="http://purl.org/dc/elements/1.1/"
   xmlns:cc="http://creativecommons.org/ns#"
   xmlns:rdf="http://www.w3.org/1999/02/22-rdf-syntax-ns#"
   xmlns:svg="http://www.w3.org/2000/svg"
   xmlns="http://www.w3.org/2000/svg"
   xmlns:sodipodi="http://sodipodi.sourceforge.net/DTD/sodipodi-0.dtd"
   xmlns:inkscape="http://www.inkscape.org/namespaces/inkscape"
   version="1.1"
   id="Ebene_1"
   x="0px"
   y="0px"
   width="512px"
   height="512px"
   viewBox="0 0 512 512"
   enable-background="new 0 0 512 512"
   xml:space="preserve"
   inkscape:version="0.48.3.1 r9886"
   sodipodi:docname="event-milestone.svg"><metadata
   id="metadata3308"><rdf:RDF><cc:Work
       rdf:about=""><dc:format>image/svg+xml</dc:format><dc:type
         rdf:resource="http://purl.org/dc/dcmitype/StillImage" /></cc:Work></rdf:RDF></metadata><defs
   id="defs3306" /><sodipodi:namedview
   pagecolor="#ffffff"
   bordercolor="#666666"
   borderopacity="1"
   objecttolerance="10"
   gridtolerance="10"
   guidetolerance="10"
   inkscape:pageopacity="0"
   inkscape:pageshadow="2"
   inkscape:window-width="1440"
   inkscape:window-height="880"
   id="namedview3304"
   showgrid="false"
   inkscape:zoom="0.16296602"
   inkscape:cx="59.93378"
   inkscape:cy="429.02485"
   inkscape:window-x="0"
   inkscape:window-y="20"
   inkscape:window-maximized="1"
   inkscape:current-layer="Ebene_1" />
<path
   style="fill:#000000"
   d="M 190.25 97.90625 C 178.3878 97.90625 168.78125 107.5128 168.78125 119.375 L 168.78125 141.84375 C 168.78125 153.69475 178.3878 163.3125 190.25 163.3125 C 202.0996 163.3125 211.71875 153.69475 211.71875 141.84375 L 211.71875 119.375 C 211.71875 107.5128 202.1136 97.90625 190.25 97.90625 z M 321.0625 97.90625 C 309.2017 97.90625 299.625 107.5128 299.625 119.375 L 299.625 141.84375 C 299.625 153.69475 309.2017 163.3125 321.0625 163.3125 C 332.9289 163.3125 342.5625 153.69475 342.5625 141.84375 L 342.5625 119.375 C 342.5625 107.5128 332.9289 97.90625 321.0625 97.90625 z M 136.0625 130.625 C 124.0253 130.625 114.25 140.3891 114.25 152.4375 L 114.25 392.28125 C 114.25 404.31565 124.0253 414.09375 136.0625 414.09375 L 375.9375 414.09375 C 387.9747 414.09375 397.751 404.31565 397.75 392.28125 L 397.75 152.4375 C 397.75 140.3891 387.9747 130.625 375.9375 130.625 L 354.125 130.625 L 354.125 141.53125 C 354.125 159.59685 339.46345 174.21875 321.40625 174.21875 C 303.35185 174.21875 288.71875 159.59685 288.71875 141.53125 L 288.71875 130.625 L 223.28125 130.625 L 223.28125 141.53125 C 223.28125 159.59685 208.64815 174.21875 190.59375 174.21875 C 172.52675 174.21875 157.875 159.59685 157.875 141.53125 L 157.875 130.625 L 136.0625 130.625 z M 136.0625 206.9375 L 375.9375 206.9375 L 375.9375 392.28125 L 136.0625 392.28125 L 136.0625 206.9375 z "
   id="path3302" />
</svg>