<?xml version="1.0" encoding="UTF-8" standalone="no"?>
<!-- Generator: Adobe Illustrator 17.0.1, SVG Export Plug-In . SVG Version: 6.00 Build 0)  -->

<svg
   xmlns:dc="http://purl.org/dc/elements/1.1/"
   xmlns:cc="http://creativecommons.org/ns#"
   xmlns:rdf="http://www.w3.org/1999/02/22-rdf-syntax-ns#"
   xmlns:svg="http://www.w3.org/2000/svg"
   xmlns="http://www.w3.org/2000/svg"
   xmlns:sodipodi="http://sodipodi.sourceforge.net/DTD/sodipodi-0.dtd"
   xmlns:inkscape="http://www.inkscape.org/namespaces/inkscape"
   version="1.1"
   id="Ebene_1"
   x="0px"
   y="0px"
   width="512px"
   height="512px"
   viewBox="0 0 512 512"
   enable-background="new 0 0 512 512"
   xml:space="preserve"
   inkscape:version="0.48.3.1 r9886"
   sodipodi:docname="event-instance.svg"><metadata
   id="metadata3282"><rdf:RDF><cc:Work
       rdf:about=""><dc:format>image/svg+xml</dc:format><dc:type
         rdf:resource="http://purl.org/dc/dcmitype/StillImage" /></cc:Work></rdf:RDF></metadata><defs
   id="defs3280">
	
	
</defs><sodipodi:namedview
   pagecolor="#ffffff"
   bordercolor="#666666"
   borderopacity="1"
   objecttolerance="10"
   gridtolerance="10"
   guidetolerance="10"
   inkscape:pageopacity="0"
   inkscape:pageshadow="2"
   inkscape:window-width="1440"
   inkscape:window-height="880"
   id="namedview3278"
   showgrid="false"
   inkscape:zoom="0.4609375"
   inkscape:cx="-96.542376"
   inkscape:cy="256"
   inkscape:window-x="0"
   inkscape:window-y="20"
   inkscape:window-maximized="1"
   inkscape:current-layer="Ebene_1" />
<g
   id="g3378"
   style="fill:#000000"
   transform="matrix(1.4,0,0,1.4,-108.1152,-104.7504)"><path
     d="m 377.505,180.827 c -1.488,-0.826 -3.432,-0.578 -5.829,0.744 -9.344,5.624 -17.901,9.24 -25.673,10.853 -7.772,1.612 -14.553,2.253 -20.34,1.922 -6.78,-0.329 -12.774,-1.693 -17.982,-4.093 -4.3,-2.232 -8.435,-4.36 -12.402,-6.387 -3.969,-2.025 -8.062,-3.802 -12.278,-5.333 -4.218,-1.529 -8.662,-2.748 -13.332,-3.659 -4.673,-0.909 -9.82,-1.364 -15.441,-1.364 -4.465,0.167 -9.593,0.911 -15.378,2.232 -4.962,1.159 -10.914,3.02 -17.86,5.582 -6.945,2.563 -14.717,6.119 -23.316,10.666 -2.399,1.323 -4.403,3.348 -6.016,6.077 -1.611,2.729 -2.418,5.457 -2.418,8.186 v 92.398 c 0,2.729 0.807,4.587 2.418,5.579 1.613,0.992 3.616,0.827 6.016,-0.495 8.599,-4.714 16.39,-8.351 23.378,-10.914 6.986,-2.562 12.918,-4.424 17.798,-5.58 5.705,-1.322 10.831,-2.066 15.378,-2.233 5.621,0 10.769,0.454 15.441,1.364 4.67,0.911 9.114,2.131 13.332,3.659 4.217,1.531 8.328,3.308 12.34,5.332 4.009,2.028 8.124,4.155 12.341,6.387 5.208,2.4 11.202,3.765 17.982,4.093 5.787,0.332 12.567,-0.311 20.34,-1.922 7.771,-1.611 16.329,-5.228 25.673,-10.852 2.314,-1.322 4.236,-3.368 5.768,-6.141 1.528,-2.769 2.294,-5.435 2.294,-7.998 v -92.77 c -0.002,-2.729 -0.746,-4.506 -2.234,-5.333 z"
     id="path3274"
     inkscape:connector-curvature="0"
     style="fill:#000000" /><path
     d="m 175.224,188.073 h -9.674 c -1.321,0 -2.438,0.475 -3.349,1.427 -0.909,0.948 -1.364,2.087 -1.364,3.411 v 2.178 148.137 2.179 c 0,1.323 0.434,2.463 1.302,3.41 0.869,0.952 1.963,1.427 3.287,1.427 h 9.673 c 1.322,0 2.438,-0.475 3.349,-1.427 0.91,-0.947 1.364,-2.087 1.364,-3.41 v -2.179 -148.137 -2.178 c 0,-1.324 -0.435,-2.463 -1.302,-3.411 -0.868,-0.952 -1.963,-1.427 -3.286,-1.427 z"
     id="path3276"
     inkscape:connector-curvature="0"
     style="fill:#000000" /></g>
</svg>