<?xml version="1.0" encoding="UTF-8" standalone="no"?>
<!-- Generator: Adobe Illustrator 17.0.1, SVG Export Plug-In . SVG Version: 6.00 Build 0)  -->

<svg
   xmlns:dc="http://purl.org/dc/elements/1.1/"
   xmlns:cc="http://creativecommons.org/ns#"
   xmlns:rdf="http://www.w3.org/1999/02/22-rdf-syntax-ns#"
   xmlns:svg="http://www.w3.org/2000/svg"
   xmlns="http://www.w3.org/2000/svg"
   xmlns:sodipodi="http://sodipodi.sourceforge.net/DTD/sodipodi-0.dtd"
   xmlns:inkscape="http://www.inkscape.org/namespaces/inkscape"
   version="1.1"
   id="Ebene_1"
   x="0px"
   y="0px"
   width="512px"
   height="512px"
   viewBox="0 0 512 512"
   enable-background="new 0 0 512 512"
   xml:space="preserve"
   inkscape:version="0.48.3.1 r9886"
   sodipodi:docname="event-message.svg"><metadata
   id="metadata17"><rdf:RDF><cc:Work
       rdf:about=""><dc:format>image/svg+xml</dc:format><dc:type
         rdf:resource="http://purl.org/dc/dcmitype/StillImage" /></cc:Work></rdf:RDF></metadata><defs
   id="defs15">
	
	
</defs><sodipodi:namedview
   pagecolor="#ffffff"
   bordercolor="#666666"
   borderopacity="1"
   objecttolerance="10"
   gridtolerance="10"
   guidetolerance="10"
   inkscape:pageopacity="0"
   inkscape:pageshadow="2"
   inkscape:window-width="1440"
   inkscape:window-height="880"
   id="namedview13"
   showgrid="false"
   inkscape:zoom="0.4609375"
   inkscape:cx="-386.16949"
   inkscape:cy="256"
   inkscape:window-x="0"
   inkscape:window-y="20"
   inkscape:window-maximized="1"
   inkscape:current-layer="Ebene_1" />
<g
   id="g9"
   style="fill:#000000"
   transform="matrix(1.4,0,0,1.4,-78.9731,-71.0673)">
		<path
   style="fill:#000000"
   inkscape:connector-curvature="0"
   id="path11"
   d="m 152.569,295.056 v -85.145 c 0.627,0.627 1.27,1.179 1.929,1.644 0.658,0.477 1.301,0.959 1.929,1.461 8.091,6.021 16.12,12.024 24.085,18.021 7.966,5.984 15.869,12.117 23.709,18.389 2.446,1.945 5.018,3.901 7.714,5.884 2.698,1.971 5.489,3.764 8.374,5.355 2.885,1.606 5.911,2.885 9.079,3.864 3.168,0.966 6.414,1.456 9.737,1.456 3.451,0 6.743,-0.49 9.88,-1.456 3.136,-0.979 6.146,-2.232 9.031,-3.764 2.885,-1.543 5.677,-3.299 8.374,-5.269 2.696,-1.98 5.331,-4 7.902,-6.071 7.84,-6.272 15.743,-12.405 23.709,-18.389 7.966,-5.996 15.994,-11.999 24.086,-18.021 0.627,-0.502 1.266,-0.985 1.931,-1.461 0.652,-0.465 1.299,-1.017 1.926,-1.644 v 85.145 c 0,2.948 -1.047,5.488 -3.154,7.621 -2.096,2.132 -4.623,3.199 -7.57,3.199 H 163.388 c -2.947,0 -5.488,-1.067 -7.62,-3.199 -2.133,-2.132 -3.199,-4.672 -3.199,-7.62 z m 0.188,-124.095 c 0,-2.572 1.129,-4.816 3.388,-6.724 2.257,-1.919 4.672,-2.873 7.243,-2.873 h 151.851 c 2.571,0 4.974,0.954 7.194,2.873 2.232,1.908 3.343,4.152 3.343,6.724 0,1.944 -0.583,4.108 -1.738,6.492 -1.166,2.384 -2.571,4.735 -4.239,7.056 -1.656,2.321 -3.45,4.441 -5.356,6.349 -1.92,1.918 -3.595,3.437 -5.036,4.565 -7.716,5.771 -15.286,11.491 -22.725,17.173 -7.427,5.67 -14.94,11.396 -22.529,17.167 -1.569,1.129 -3.371,2.541 -5.411,4.234 -2.038,1.694 -4.154,3.311 -6.35,4.842 -2.195,1.542 -4.422,2.861 -6.68,3.953 -2.257,1.104 -4.327,1.65 -6.208,1.65 h -0.189 -0.189 c -1.942,0 -4.044,-0.546 -6.302,-1.65 -2.258,-1.092 -4.469,-2.41 -6.633,-3.953 -2.164,-1.531 -4.281,-3.147 -6.35,-4.842 -2.069,-1.693 -3.889,-3.104 -5.458,-4.234 -7.589,-5.771 -15.1,-11.478 -22.533,-17.123 -7.432,-5.645 -15.006,-11.384 -22.721,-17.217 -1.443,-1.129 -3.12,-2.647 -5.033,-4.565 -1.913,-1.908 -3.701,-4.027 -5.363,-6.349 -1.662,-2.32 -3.073,-4.672 -4.233,-7.056 -1.163,-2.384 -1.743,-4.548 -1.743,-6.492 z" />
	</g>
</svg>