<?xml version="1.0" encoding="UTF-8" standalone="no"?>
<!-- Generator: Adobe Illustrator 17.0.1, SVG Export Plug-In . SVG Version: 6.00 Build 0)  -->

<svg
   xmlns:dc="http://purl.org/dc/elements/1.1/"
   xmlns:cc="http://creativecommons.org/ns#"
   xmlns:rdf="http://www.w3.org/1999/02/22-rdf-syntax-ns#"
   xmlns:svg="http://www.w3.org/2000/svg"
   xmlns="http://www.w3.org/2000/svg"
   xmlns:sodipodi="http://sodipodi.sourceforge.net/DTD/sodipodi-0.dtd"
   xmlns:inkscape="http://www.inkscape.org/namespaces/inkscape"
   version="1.1"
   id="Ebene_1"
   x="0px"
   y="0px"
   width="512px"
   height="512px"
   viewBox="0 0 512 512"
   enable-background="new 0 0 512 512"
   xml:space="preserve"
   inkscape:version="0.48.3.1 r9886"
   sodipodi:docname="event-milestone.svg"><metadata
   id="metadata3308"><rdf:RDF><cc:Work
       rdf:about=""><dc:format>image/svg+xml</dc:format><dc:type
         rdf:resource="http://purl.org/dc/dcmitype/StillImage" /></cc:Work></rdf:RDF></metadata><defs
   id="defs3306" /><sodipodi:namedview
   pagecolor="#ffffff"
   bordercolor="#666666"
   borderopacity="1"
   objecttolerance="10"
   gridtolerance="10"
   guidetolerance="10"
   inkscape:pageopacity="0"
   inkscape:pageshadow="2"
   inkscape:window-width="1440"
   inkscape:window-height="880"
   id="namedview3304"
   showgrid="false"
   inkscape:zoom="0.4609375"
   inkscape:cx="-251.30038"
   inkscape:cy="112.922"
   inkscape:window-x="0"
   inkscape:window-y="20"
   inkscape:window-maximized="1"
   inkscape:current-layer="Ebene_1" />
<path
   d="M 375.9328,414.0908 H 136.068 c -12.0372,0 -21.8064,-9.7692 -21.8064,-21.8036 V 152.4224 c 0,-12.0484 9.7692,-21.8064 21.8064,-21.8064 h 21.805 v 10.9046 c 0,18.0656 14.6426,32.7082 32.7096,32.7082 18.0544,0 32.7082,-14.6426 32.7082,-32.7082 V 130.616 h 65.4178 v 10.9046 c 0,18.0656 14.6538,32.7082 32.7082,32.7082 18.0572,0 32.7082,-14.6426 32.7082,-32.7082 V 130.616 h 21.8064 c 12.0372,0 21.805,9.758 21.805,21.8064 v 239.8648 c 0.001,12.0344 -9.7664,21.8036 -21.8036,21.8036 z m 0,-207.1538 H 136.068 v 185.3502 h 239.8648 l 0,-185.3502 0,0 z M 190.5826,261.4516 H 157.873 V 228.742 h 32.7096 v 32.7096 z m 0,54.5146 H 157.873 v -32.7096 h 32.7096 v 32.7096 z m 0,54.5146 H 157.873 v -32.7096 h 32.7096 v 32.7096 z M 245.0972,261.4516 H 212.3904 V 228.742 h 32.7082 v 32.7096 h -0.001 z m 0,54.5146 h -32.7068 v -32.7096 h 32.7082 v 32.7096 h -0.001 z m 0,54.5146 h -32.7068 v -32.7096 h 32.7082 v 32.7096 h -0.001 z M 299.6118,261.4516 H 266.9022 V 228.742 h 32.7096 v 32.7096 z m 0,54.5146 h -32.7096 v -32.7096 h 32.7096 v 32.7096 z m 0,54.5146 h -32.7096 v -32.7096 h 32.7096 v 32.7096 z M 354.1264,261.4516 H 321.4182 V 228.742 h 32.7082 v 32.7096 z m 0,54.5146 h -32.7082 v -32.7096 h 32.7082 v 32.7096 z m 0,54.5146 h -32.7082 v -32.7096 h 32.7082 v 32.7096 z M 321.078,163.3256 c -11.8608,0 -21.4662,-9.6166 -21.4662,-21.4676 v -22.4812 c 0,-11.8622 9.6054,-21.4676 21.4662,-21.4676 11.8664,0 21.4704,9.6054 21.4704,21.4676 v 22.4812 c 0,11.851 -9.604,21.4676 -21.4704,21.4676 z m -130.8328,0 c -11.8622,0 -21.4676,-9.6166 -21.4676,-21.4676 v -22.4812 c 0,-11.8622 9.6054,-21.4676 21.4676,-21.4676 11.8636,0 21.4676,9.6054 21.4676,21.4676 v 22.4812 c 0,11.851 -9.618,21.4676 -21.4676,21.4676 z"
   id="path3302"
   style="fill:#000000"
   inkscape:connector-curvature="0" />
</svg>