<?xml version="1.0" encoding="UTF-8" standalone="no"?>
<!-- Generator: Adobe Illustrator 17.0.1, SVG Export Plug-In . SVG Version: 6.00 Build 0)  -->

<svg
   xmlns:dc="http://purl.org/dc/elements/1.1/"
   xmlns:cc="http://creativecommons.org/ns#"
   xmlns:rdf="http://www.w3.org/1999/02/22-rdf-syntax-ns#"
   xmlns:svg="http://www.w3.org/2000/svg"
   xmlns="http://www.w3.org/2000/svg"
   xmlns:sodipodi="http://sodipodi.sourceforge.net/DTD/sodipodi-0.dtd"
   xmlns:inkscape="http://www.inkscape.org/namespaces/inkscape"
   version="1.1"
   id="Ebene_1"
   x="0px"
   y="0px"
   width="512px"
   height="512px"
   viewBox="0 0 512 512"
   enable-background="new 0 0 512 512"
   xml:space="preserve"
   inkscape:version="0.48.3.1 r9886"
   sodipodi:docname="event-delegate-in.svg"><metadata
   id="metadata3256"><rdf:RDF><cc:Work
       rdf:about=""><dc:format>image/svg+xml</dc:format><dc:type
         rdf:resource="http://purl.org/dc/dcmitype/StillImage" /></cc:Work></rdf:RDF></metadata><defs
   id="defs3254">
	
	
</defs><sodipodi:namedview
   pagecolor="#ffffff"
   bordercolor="#666666"
   borderopacity="1"
   objecttolerance="10"
   gridtolerance="10"
   guidetolerance="10"
   inkscape:pageopacity="0"
   inkscape:pageshadow="2"
   inkscape:window-width="1440"
   inkscape:window-height="880"
   id="namedview3252"
   showgrid="false"
   inkscape:zoom="0.4609375"
   inkscape:cx="-96.542376"
   inkscape:cy="256"
   inkscape:window-x="0"
   inkscape:window-y="20"
   inkscape:window-maximized="1"
   inkscape:current-layer="Ebene_1" />
<path
   style="fill:#000000"
   d="m 302.15715,93.74375 c -9.898,0 -19.229,1.90785 -28,5.73125 -8.771,3.8234 -16.47765,9.05135 -23.05625,15.61875 -6.5786,6.5884 -11.7215,14.2212 -15.4875,22.925 -3.7674,8.7262 -5.64375,18.0187 -5.64375,27.9125 0,12.2584 2.9022,23.7468 8.75,34.475 5.8464,10.7506 13.93525,19.4404 24.28125,26.075 -3.0352,0.4494 -7.37135,1.03285 -12.99375,1.70625 -5.621,0.6748 -11.47055,1.4007 -17.54375,2.1875 -6.0732,0.7868 -11.73375,1.617 -17.01875,2.45 -5.2836,0.854 -9.1007,1.6016 -11.4625,2.275 -3.9354,1.1256 -7.9072,3.4895 -11.9,7.0875 -0.9282,0.8442 -1.77135,1.8123 -2.66875,2.7125 13.4484,1.9558 25.9399,4.8013 37.1875,8.8375 21.3052,7.6454 39.31025,18.28365 53.50625,31.63125 14.3094,13.4484 25.12195,29.44235 32.06875,47.46875 3.1304,8.1186 5.4656,16.5424 7.175,25.2 l 98.175,0 c 3.9354,0 6.902,-1.1837 8.925,-3.5875 2.0244,-2.4304 4.5745,-4.41875 7.6125,-5.99375 l 0,-65.275 c 0,-4.165 -1.071,-8.81195 -3.15,-13.86875 -2.0804,-5.061 -4.77715,-9.87245 -8.09375,-14.48125 -3.318,-4.6102 -6.9748,-8.75735 -11.025,-12.46875 -4.0474,-3.71 -8.0521,-6.1369 -11.9875,-7.2625 -2.0244,-0.6748 -5.75645,-1.421 -11.15625,-2.275 -5.3984,-0.833 -11.15345,-1.6632 -17.28125,-2.45 -6.1306,-0.7868 -12.00885,-1.5127 -17.63125,-2.1875 -5.6224,-0.6734 -9.95715,-1.25685 -12.99375,-1.70625 10.3432,-6.6346 18.5087,-15.24145 24.4125,-25.85625 5.9038,-10.6386 8.8375,-22.21135 8.8375,-34.69375 0,-9.8938 -1.90925,-19.1863 -5.73125,-27.9125 -3.8234,-8.7038 -8.97855,-16.3352 -15.44375,-22.925 -6.468,-6.5674 -14.0364,-11.79535 -22.75,-15.61875 -8.7136,-3.8234 -18.0201,-5.73125 -27.9125,-5.73125 z M 144.7009,202.375 c -2.66478,0.0718 -5.7309,1.8361 -9.1875,5.29375 l -66.106252,65.975 c -3.0324,2.8112 -4.4898,6.4337 -4.375,10.9375 0,4.382 1.4546,7.99365 4.375,10.80625 l 66.150002,65.93125 c 4.6088,4.613 8.47805,6.2181 11.68125,4.8125 3.206,-1.407 4.8125,-5.3158 4.8125,-11.725 l 0,-43.8375 c 23.2764,0 43.76015,2.4297 61.46875,7.2625 17.71,4.8356 32.6879,11.37955 44.8875,19.64375 12.1996,8.2656 21.74165,18.05545 28.65625,29.35625 6.916,11.3022 11.28365,23.42305 13.08125,36.35625 0.448,3.0338 2.212,4.50625 5.25,4.50625 2.8112,0 4.40685,-1.47245 4.85625,-4.50625 0.4494,-2.5886 0.7,-4.9854 0.7,-7.175 l 0,-6.34375 c 0,-18.6676 -3.1843,-36.24775 -9.5375,-52.71875 -6.3546,-16.4766 -16.08145,-30.86965 -29.18125,-43.18125 -13.0984,-12.3158 -29.57745,-22.04125 -49.48125,-29.18125 -19.9038,-7.1414 -43.4868,-10.801 -70.7,-11.025 l 0,-38.98125 c 0,-6.4092 -1.6065,-10.3208 -4.8125,-11.725 -0.8008,-0.35175 -1.64924,-0.50518 -2.5375,-0.48125 z"
   id="path3248"
   inkscape:connector-curvature="0" />
</svg>