<?xml version="1.0" encoding="UTF-8" standalone="no"?>
<!-- Generator: Adobe Illustrator 17.0.1, SVG Export Plug-In . SVG Version: 6.00 Build 0)  -->

<svg
   xmlns:dc="http://purl.org/dc/elements/1.1/"
   xmlns:cc="http://creativecommons.org/ns#"
   xmlns:rdf="http://www.w3.org/1999/02/22-rdf-syntax-ns#"
   xmlns:svg="http://www.w3.org/2000/svg"
   xmlns="http://www.w3.org/2000/svg"
   xmlns:sodipodi="http://sodipodi.sourceforge.net/DTD/sodipodi-0.dtd"
   xmlns:inkscape="http://www.inkscape.org/namespaces/inkscape"
   version="1.1"
   id="Ebene_1"
   x="0px"
   y="0px"
   width="512px"
   height="512px"
   viewBox="0 0 512 512"
   enable-background="new 0 0 512 512"
   xml:space="preserve"
   inkscape:version="0.48.3.1 r9886"
   sodipodi:docname="event-delegate-out.svg"><metadata
   id="metadata3269"><rdf:RDF><cc:Work
       rdf:about=""><dc:format>image/svg+xml</dc:format><dc:type
         rdf:resource="http://purl.org/dc/dcmitype/StillImage" /></cc:Work></rdf:RDF></metadata><defs
   id="defs3267">
	
	
</defs><sodipodi:namedview
   pagecolor="#ffffff"
   bordercolor="#666666"
   borderopacity="1"
   objecttolerance="10"
   gridtolerance="10"
   guidetolerance="10"
   inkscape:pageopacity="0"
   inkscape:pageshadow="2"
   inkscape:window-width="1440"
   inkscape:window-height="880"
   id="namedview3265"
   showgrid="false"
   inkscape:zoom="0.4609375"
   inkscape:cx="-96.542376"
   inkscape:cy="256"
   inkscape:window-x="0"
   inkscape:window-y="20"
   inkscape:window-maximized="1"
   inkscape:current-layer="Ebene_1" />
<path
   style="fill:#000000"
   d="m 209.83662,93.74375 c -9.8938,0 -19.1975,1.90785 -27.9125,5.73125 -8.7136,3.8234 -16.282,9.05135 -22.75,15.61875 -6.4652,6.5898 -11.61895,14.2212 -15.44375,22.925 -3.822,8.7262 -5.73125,18.0187 -5.73125,27.9125 0,12.4824 2.9337,24.05515 8.8375,34.69375 5.9052,10.6148 14.0679,19.22165 24.4125,25.85625 -3.0366,0.4494 -7.37135,1.03285 -12.99375,1.70625 -5.6224,0.6748 -11.50205,1.4007 -17.63125,2.1875 -6.1292,0.7868 -11.88285,1.617 -17.28125,2.45 -5.3984,0.854 -9.13185,1.6002 -11.15625,2.275 -3.9354,1.1256 -7.9415,3.5525 -11.9875,7.2625 -4.048798,3.7114 -7.708398,7.85855 -11.024998,12.46875 -3.3166,4.6088 -6.01335,9.42025 -8.09375,14.48125 -2.0804,5.0568 -3.10625,9.70375 -3.10625,13.86875 l 0,65.275 c 3.038,1.575 5.54435,3.56335 7.56875,5.99375 2.0244,2.4038 4.9896,3.5875 8.925,3.5875 l 98.174998,0 c 1.7094,-8.6576 4.0446,-17.0814 7.175,-25.2 6.9468,-18.0264 17.75935,-34.02035 32.06875,-47.46875 14.196,-13.3476 32.20245,-23.98585 53.50625,-31.63125 11.2476,-4.0362 23.7391,-6.8817 37.1875,-8.8375 -0.8974,-0.9002 -1.74055,-1.8683 -2.66875,-2.7125 -3.9928,-3.598 -7.9646,-5.9619 -11.9,-7.0875 -2.3618,-0.6734 -6.1789,-1.421 -11.4625,-2.275 -5.285,-0.833 -10.94555,-1.6632 -17.01875,-2.45 -6.0732,-0.7868 -11.92275,-1.5127 -17.54375,-2.1875 -5.6224,-0.6734 -9.95715,-1.25685 -12.99375,-1.70625 10.346,-6.6346 18.43485,-15.3244 24.28125,-26.075 5.8478,-10.7282 8.75,-22.2166 8.75,-34.475 0,-9.8938 -1.87635,-19.1863 -5.64375,-27.9125 -3.766,-8.7038 -8.9089,-16.3366 -15.4875,-22.925 -6.5786,-6.5674 -14.28525,-11.79535 -23.05625,-15.61875 -8.7696,-3.8234 -18.1034,-5.73125 -28,-5.73125 z m 156.8,108.63125 c -0.64978,0.0525 -1.28065,0.21743 -1.88125,0.48125 -3.206,1.4042 -4.8125,5.3158 -4.8125,11.725 l 0,38.98125 c -27.2132,0.224 -50.7962,3.8836 -70.7,11.025 -19.9038,7.14 -36.38145,16.86545 -49.48125,29.18125 -13.0998,12.3116 -22.82665,26.70465 -29.18125,43.18125 -6.3532,16.471 -9.5375,34.05115 -9.5375,52.71875 l 0,6.34375 c 0,2.1896 0.2506,4.5864 0.7,7.175 0.4494,3.0338 2.04505,4.50625 4.85625,4.50625 3.0366,0 4.802,-1.47245 5.25,-4.50625 1.799,-12.9332 6.16525,-25.05405 13.08125,-36.35625 6.9146,-11.3008 16.45665,-21.09065 28.65625,-29.35625 12.1996,-8.2642 27.1775,-14.80815 44.8875,-19.64375 17.7086,-4.8328 38.19235,-7.2625 61.46875,-7.2625 l 0,43.8375 c 0,6.4092 1.6065,10.318 4.8125,11.725 3.2032,1.4056 7.1162,-0.1995 11.725,-4.8125 l 66.10625,-65.93125 c 2.9204,-2.8126 4.375,-6.42425 4.375,-10.80625 0.1134,-4.5038 -1.3426,-8.1263 -4.375,-10.9375 l -66.10625,-65.975 c -3.74465,-3.74578 -7.02805,-5.52129 -9.84375,-5.29375 z"
   id="path3261"
   inkscape:connector-curvature="0" />
</svg>