<?xml version="1.0" encoding="UTF-8" standalone="no"?>
<!-- Generator: Adobe Illustrator 17.0.1, SVG Export Plug-In . SVG Version: 6.00 Build 0)  -->

<svg
   xmlns:dc="http://purl.org/dc/elements/1.1/"
   xmlns:cc="http://creativecommons.org/ns#"
   xmlns:rdf="http://www.w3.org/1999/02/22-rdf-syntax-ns#"
   xmlns:svg="http://www.w3.org/2000/svg"
   xmlns="http://www.w3.org/2000/svg"
   xmlns:sodipodi="http://sodipodi.sourceforge.net/DTD/sodipodi-0.dtd"
   xmlns:inkscape="http://www.inkscape.org/namespaces/inkscape"
   version="1.1"
   id="Ebene_1"
   x="0px"
   y="0px"
   width="512px"
   height="512px"
   viewBox="0 0 512 512"
   enable-background="new 0 0 512 512"
   xml:space="preserve"
   inkscape:version="0.48.3.1 r9886"
   sodipodi:docname="event-vote.svg"><metadata
   id="metadata17"><rdf:RDF><cc:Work
       rdf:about=""><dc:format>image/svg+xml</dc:format><dc:type
         rdf:resource="http://purl.org/dc/dcmitype/StillImage" /></cc:Work></rdf:RDF></metadata><defs
   id="defs15">
	
	

		
	
		
	</defs><sodipodi:namedview
   pagecolor="#ffffff"
   bordercolor="#666666"
   borderopacity="1"
   objecttolerance="10"
   gridtolerance="10"
   guidetolerance="10"
   inkscape:pageopacity="0"
   inkscape:pageshadow="2"
   inkscape:window-width="1440"
   inkscape:window-height="880"
   id="namedview13"
   showgrid="false"
   inkscape:zoom="0.4609375"
   inkscape:cx="-743.05085"
   inkscape:cy="256"
   inkscape:window-x="0"
   inkscape:window-y="20"
   inkscape:window-maximized="1"
   inkscape:current-layer="Ebene_1" />
<path
   style="fill:#000000"
   d="m 153.94,123.28582 c -3.23001,0 -6.44868,1.21181 -8.89875,3.66188 l -14.05688,14.05687 c -4.90013,4.90014 -4.90013,12.93674 0,17.83688 l 93.20063,93.16125 -91.46813,91.46812 c -4.90014,4.90014 -4.90014,12.93674 0,17.83688 l 13.93875,13.97812 c 4.90014,4.90014 12.93674,4.90014 17.83688,0 l 91.46813,-91.46812 93.20062,93.20062 c 4.90014,4.90014 12.89736,4.90014 17.7975,0 l 14.05687,-14.05687 c 4.90014,-4.90014 4.90014,-12.93674 0,-17.83688 L 287.815,251.92395 379.28313,160.45582 c 4.90013,-4.90014 4.90013,-12.89736 0,-17.7975 L 365.34438,128.6802 c -4.90014,-4.90014 -12.93674,-4.90014 -17.83688,0 l -91.46813,91.46812 -93.20062,-93.20062 c -2.45007,-2.45007 -5.66874,-3.66188 -8.89875,-3.66188 z"
   id="path7"
   inkscape:connector-curvature="0" />
</svg>