<?xml version="1.0" encoding="UTF-8" standalone="no"?>
<!-- Generator: Adobe Illustrator 17.0.1, SVG Export Plug-In . SVG Version: 6.00 Build 0)  -->

<svg
   xmlns:dc="http://purl.org/dc/elements/1.1/"
   xmlns:cc="http://creativecommons.org/ns#"
   xmlns:rdf="http://www.w3.org/1999/02/22-rdf-syntax-ns#"
   xmlns:svg="http://www.w3.org/2000/svg"
   xmlns="http://www.w3.org/2000/svg"
   xmlns:sodipodi="http://sodipodi.sourceforge.net/DTD/sodipodi-0.dtd"
   xmlns:inkscape="http://www.inkscape.org/namespaces/inkscape"
   version="1.1"
   id="Ebene_1"
   x="0px"
   y="0px"
   width="512px"
   height="512px"
   viewBox="0 0 512 512"
   enable-background="new 0 0 512 512"
   xml:space="preserve"
   inkscape:version="0.48.3.1 r9886"
   sodipodi:docname="event-amendment.svg"><metadata
   id="metadata15"><rdf:RDF><cc:Work
       rdf:about=""><dc:format>image/svg+xml</dc:format><dc:type
         rdf:resource="http://purl.org/dc/dcmitype/StillImage" /></cc:Work></rdf:RDF></metadata><defs
   id="defs13">
	
	
</defs><sodipodi:namedview
   pagecolor="#ffffff"
   bordercolor="#666666"
   borderopacity="1"
   objecttolerance="10"
   gridtolerance="10"
   guidetolerance="10"
   inkscape:pageopacity="0"
   inkscape:pageshadow="2"
   inkscape:window-width="1440"
   inkscape:window-height="880"
   id="namedview11"
   showgrid="false"
   inkscape:zoom="0.4609375"
   inkscape:cx="-752.56134"
   inkscape:cy="324.8556"
   inkscape:window-x="0"
   inkscape:window-y="20"
   inkscape:window-maximized="1"
   inkscape:current-layer="Ebene_1" />
<path
   d="m 210.32513,115.28853 -67.43756,67.43756 67.43756,0 0,-33.69712 0,-33.74044 z m 16.84856,0 0,8.44594 0,25.2945 0,42.14306 c 0,4.65281 -3.74012,8.44594 -8.40262,8.44594 l -67.48088,0 -8.40262,0 0,177.01819 c 0,4.6625 3.7415,8.44593 8.40262,8.44593 l 100.485,0 0,-8.70581 c 0,-4.13588 -3.31387,-7.44975 -7.44975,-7.44975 l -63.97256,0 c -10.18427,0 -18.58107,-8.39679 -18.58107,-18.58106 l 0,-38.63475 c 0,-10.18427 8.3968,-18.58106 18.58107,-18.58106 l 63.97256,0 c 4.13588,0 7.44975,-3.35718 7.44975,-7.49307 l 0,-65.70506 c 0,-10.18427 8.3968,-18.58106 18.58106,-18.58106 l 38.63475,0 c 10.18427,0 18.58106,8.39679 18.58106,18.58106 l 0,65.70506 c 0,4.13589 3.31387,7.49307 7.44975,7.49307 l 10.22175,0 0,-169.39519 c 0,-4.65419 -3.78343,-8.44594 -8.44593,-8.44594 l -109.62395,0 z m 43.18256,97.14994 c -4.13589,0 -7.49307,3.35718 -7.49307,7.49306 l 0,65.70506 c 0,10.18428 -8.35347,18.58107 -18.53774,18.58107 l -63.97256,0 c -4.13589,0 -7.49307,3.35718 -7.49307,7.49306 l 0,38.63475 c 0,4.13588 3.35718,7.49306 7.49307,7.49306 l 63.97256,0 c 10.18427,0 18.53774,8.35348 18.53774,18.53775 l 0,65.74838 c 0,4.13588 3.35718,7.49306 7.49307,7.49306 l 38.63475,0 c 4.13589,0 7.49306,-3.35718 7.49306,-7.49306 l 0,-65.74838 c 0,-10.18427 8.35348,-18.53775 18.53776,-18.53775 l 63.97256,0 c 4.13588,0 7.49306,-3.35718 7.49306,-7.49306 l 0,-38.63475 c 0,-4.13588 -3.35718,-7.49306 -7.49306,-7.49306 l -63.97256,0 c -10.18428,0 -18.53776,-8.39679 -18.53776,-18.58107 l 0,-65.70506 c 0,-4.13588 -3.35717,-7.49306 -7.49306,-7.49306 l -38.63475,0 z m 64.66557,156.48806 c -4.13589,0 -7.44975,3.31387 -7.44975,7.44975 l 0,8.70581 9.22556,0 c 4.6625,0 8.44594,-3.78204 8.44594,-8.44593 l 0,-7.70963 -10.22175,0 z"
   id="path3"
   inkscape:connector-curvature="0" />

</svg>