<?xml version="1.0" encoding="UTF-8" standalone="no"?>
<!-- Generator: Adobe Illustrator 17.0.1, SVG Export Plug-In . SVG Version: 6.00 Build 0)  -->

<svg
   xmlns:dc="http://purl.org/dc/elements/1.1/"
   xmlns:cc="http://creativecommons.org/ns#"
   xmlns:rdf="http://www.w3.org/1999/02/22-rdf-syntax-ns#"
   xmlns:svg="http://www.w3.org/2000/svg"
   xmlns="http://www.w3.org/2000/svg"
   xmlns:sodipodi="http://sodipodi.sourceforge.net/DTD/sodipodi-0.dtd"
   xmlns:inkscape="http://www.inkscape.org/namespaces/inkscape"
   version="1.1"
   id="Ebene_1"
   x="0px"
   y="0px"
   width="512px"
   height="512px"
   viewBox="0 0 512 512"
   enable-background="new 0 0 512 512"
   xml:space="preserve"
   inkscape:version="0.48.3.1 r9886"
   sodipodi:docname="event-massmessage.svg"><metadata
   id="metadata3299"><rdf:RDF><cc:Work
       rdf:about=""><dc:format>image/svg+xml</dc:format><dc:type
         rdf:resource="http://purl.org/dc/dcmitype/StillImage" /></cc:Work></rdf:RDF></metadata><defs
   id="defs3297">
	
	

		
	
		
	</defs><sodipodi:namedview
   pagecolor="#ffffff"
   bordercolor="#666666"
   borderopacity="1"
   objecttolerance="10"
   gridtolerance="10"
   guidetolerance="10"
   inkscape:pageopacity="0"
   inkscape:pageshadow="2"
   inkscape:window-width="1440"
   inkscape:window-height="880"
   id="namedview3295"
   showgrid="false"
   inkscape:zoom="0.4609375"
   inkscape:cx="-96.542376"
   inkscape:cy="256"
   inkscape:window-x="0"
   inkscape:window-y="20"
   inkscape:window-maximized="1"
   inkscape:current-layer="Ebene_1" />
<path
   style="fill:#000000"
   d="m 124.125,123.525 c -3.5994,0 -6.94645,1.3384 -10.10625,4.025 -3.1626,2.6712 -4.76875,5.80545 -4.76875,9.40625 0,2.7216 0.8218,5.71865 2.45,9.05625 1.624,3.3376 3.57945,6.6395 5.90625,9.8875 2.3268,3.2508 4.8468,6.21005 7.525,8.88125 2.6782,2.6852 5.02355,4.85065 7.04375,6.43125 10.801,8.1662 21.40145,16.1595 31.80625,24.0625 10.4062,7.903 20.91915,15.8956 31.54375,23.975 2.1966,1.582 4.75965,3.5798 7.65625,5.95 2.8966,2.373 5.85165,4.63785 8.88125,6.78125 3.0296,2.1602 6.1138,3.9837 9.275,5.5125 3.1612,1.5456 6.1187,2.31875 8.8375,2.31875 l 0.2625,0 0.2625,0 c 2.6334,0 5.54645,-0.77315 8.70625,-2.31875 3.1612,-1.5288 6.2895,-3.3537 9.3625,-5.5125 3.0744,-2.1434 6.02805,-4.40965 8.88125,-6.78125 2.856,-2.3702 5.37215,-4.3694 7.56875,-5.95 10.6246,-8.0794 21.14595,-16.08075 31.54375,-24.01875 10.4146,-7.9548 21.00385,-15.93935 31.80625,-24.01875 2.0174,-1.5792 4.35575,-3.74605 7.04375,-6.43125 2.6684,-2.6712 5.2066,-5.63185 7.525,-8.88125 2.3352,-3.2494 4.27385,-6.5499 5.90625,-9.8875 1.617,-3.3376 2.45,-6.33465 2.45,-9.05625 0,-3.6008 -1.55645,-6.73505 -4.68125,-9.40625 -3.108,-2.6866 -6.4631,-4.025 -10.0625,-4.025 l -212.625,0 z m 244.9125,67.1125 0,119.30625 c 0,18.8468 -15.32195,34.2125 -34.16875,34.2125 l -159.11875,0 0,28.48125 c 0,8.7654 7.0735,15.8375 15.8375,15.8375 l 206.54375,0 c 8.764,0 15.88125,-7.0721 15.88125,-15.8375 l 0,-166.11875 c 0,-8.764 -7.11865,-15.88125 -15.88125,-15.88125 l -29.09375,0 z m -260.05,0.83125 0,119.21875 c 0,4.1272 1.52005,7.6902 4.50625,10.675 2.9848,2.9848 6.50545,4.4625 10.63125,4.4625 l 212.625,0 c 4.1258,0 7.6531,-1.4777 10.5875,-4.4625 2.9498,-2.9862 4.41875,-6.5478 4.41875,-10.675 l 0,-119.21875 c -0.8778,0.8778 -1.7997,1.66775 -2.7125,2.31875 -0.931,0.6664 -1.8347,1.3097 -2.7125,2.0125 -11.3288,8.4308 -22.5351,16.84935 -33.6875,25.24375 -11.1524,8.3776 -22.23025,16.98795 -33.20625,25.76875 -3.5994,2.8994 -7.29435,5.7155 -11.06875,8.4875 -3.7758,2.758 -7.686,5.1898 -11.725,7.35 -4.039,2.1448 -8.25335,3.92315 -12.64375,5.29375 -4.3918,1.3524 -8.9936,2.05625 -13.825,2.05625 -4.6522,0 -9.2148,-0.70385 -13.65,-2.05625 -4.4352,-1.3706 -8.6485,-3.1766 -12.6875,-5.425 -4.039,-2.2274 -7.9478,-4.72185 -11.725,-7.48125 -3.7744,-2.7762 -7.38185,-5.502 -10.80625,-8.225 -10.976,-8.7808 -22.05385,-17.39115 -33.20625,-25.76875 -11.151,-8.3958 -22.3601,-16.7706 -33.6875,-25.2 -0.8792,-0.7028 -1.7913,-1.38845 -2.7125,-2.05625 -0.9226,-0.651 -1.8347,-1.44095 -2.7125,-2.31875 z"
   id="path3289"
   inkscape:connector-curvature="0" />
</svg>