<?xml version="1.0" encoding="UTF-8" standalone="no"?>
<!-- Generator: Adobe Illustrator 17.0.1, SVG Export Plug-In . SVG Version: 6.00 Build 0)  -->

<svg
   xmlns:dc="http://purl.org/dc/elements/1.1/"
   xmlns:cc="http://creativecommons.org/ns#"
   xmlns:rdf="http://www.w3.org/1999/02/22-rdf-syntax-ns#"
   xmlns:svg="http://www.w3.org/2000/svg"
   xmlns="http://www.w3.org/2000/svg"
   xmlns:sodipodi="http://sodipodi.sourceforge.net/DTD/sodipodi-0.dtd"
   xmlns:inkscape="http://www.inkscape.org/namespaces/inkscape"
   version="1.1"
   id="Ebene_1"
   x="0px"
   y="0px"
   width="512px"
   height="512px"
   viewBox="0 0 512 512"
   enable-background="new 0 0 512 512"
   xml:space="preserve"
   inkscape:version="0.48.3.1 r9886"
   sodipodi:docname="event-proposal.svg"><metadata
   id="metadata9"><rdf:RDF><cc:Work
       rdf:about=""><dc:format>image/svg+xml</dc:format><dc:type
         rdf:resource="http://purl.org/dc/dcmitype/StillImage" /></cc:Work></rdf:RDF></metadata><defs
   id="defs7" /><sodipodi:namedview
   pagecolor="#ffffff"
   bordercolor="#666666"
   borderopacity="1"
   objecttolerance="10"
   gridtolerance="10"
   guidetolerance="10"
   inkscape:pageopacity="0"
   inkscape:pageshadow="2"
   inkscape:window-width="1440"
   inkscape:window-height="880"
   id="namedview5"
   showgrid="false"
   inkscape:zoom="0.4609375"
   inkscape:cx="-29.288136"
   inkscape:cy="256"
   inkscape:window-x="0"
   inkscape:window-y="20"
   inkscape:window-maximized="1"
   inkscape:current-layer="Ebene_1" />
<path
   d="m 257.443,105.667 c -59.614,0 -90.903,47.017 -90.903,89.793 0,47.993 44.663,78.171 44.663,156.656 h 45.229 c 0,0 42.477,0.199 43.765,0.199 1.287,-79.061 45.263,-110.161 45.263,-157.233 0.013,-40.169 -28.403,-89.415 -88.017,-89.415 z m 37.116,258.057 h -77.693 c -3.063,0 -5.55,2.485 -5.55,5.55 0,3.063 2.486,5.55 5.55,5.55 h 77.693 c 3.053,0 5.551,-2.486 5.551,-5.55 -0.001,-3.064 -2.499,-5.55 -5.551,-5.55 z m 0,22.199 h -77.693 c -3.063,0 -5.55,2.486 -5.55,5.551 0,3.063 2.486,5.55 5.55,5.55 h 77.693 c 3.053,0 5.551,-2.486 5.551,-5.55 -0.001,-3.065 -2.499,-5.551 -5.551,-5.551 z m -72.145,22.199 c 0,0 0,4.961 0,11.1 0,6.127 4.961,11.1 11.099,11.1 h 44.553 c 6.138,0 11.1,-4.973 11.1,-11.1 0,-6.139 0,-11.1 0,-11.1 h -66.752 z"
   id="path3"
   inkscape:connector-curvature="0"
   style="fill:#000000" />
</svg>