<?xml version="1.0" encoding="UTF-8" standalone="no"?>
<!-- Generator: Adobe Illustrator 17.0.1, SVG Export Plug-In . SVG Version: 6.00 Build 0)  -->

<svg
   xmlns:dc="http://purl.org/dc/elements/1.1/"
   xmlns:cc="http://creativecommons.org/ns#"
   xmlns:rdf="http://www.w3.org/1999/02/22-rdf-syntax-ns#"
   xmlns:svg="http://www.w3.org/2000/svg"
   xmlns="http://www.w3.org/2000/svg"
   xmlns:sodipodi="http://sodipodi.sourceforge.net/DTD/sodipodi-0.dtd"
   xmlns:inkscape="http://www.inkscape.org/namespaces/inkscape"
   version="1.1"
   id="Ebene_1"
   x="0px"
   y="0px"
   width="512px"
   height="512px"
   viewBox="0 0 512 512"
   enable-background="new 0 0 512 512"
   xml:space="preserve"
   inkscape:version="0.48.3.1 r9886"
   sodipodi:docname="event-argument.svg"><metadata
   id="metadata13"><rdf:RDF><cc:Work
       rdf:about=""><dc:format>image/svg+xml</dc:format><dc:type
         rdf:resource="http://purl.org/dc/dcmitype/StillImage" /></cc:Work></rdf:RDF></metadata><defs
   id="defs11">
	
	
</defs><sodipodi:namedview
   pagecolor="#ffffff"
   bordercolor="#666666"
   borderopacity="1"
   objecttolerance="10"
   gridtolerance="10"
   guidetolerance="10"
   inkscape:pageopacity="0"
   inkscape:pageshadow="2"
   inkscape:window-width="1440"
   inkscape:window-height="880"
   id="namedview9"
   showgrid="false"
   inkscape:zoom="0.4609375"
   inkscape:cx="-92.203396"
   inkscape:cy="256"
   inkscape:window-x="0"
   inkscape:window-y="20"
   inkscape:window-maximized="1"
   inkscape:current-layer="Ebene_1" />
<path
   style="fill:#000000"
   d="m 106.6375,111.625 c -14.0798,0 -25.4625,11.3813 -25.4625,25.4625 l 0,136.15 c 0,14.0812 11.3827,25.50625 25.4625,25.50625 l 50.4875,0 0,19.775 0,46.50625 64.75,-66.28125 108.63125,0 c 14.0798,0 25.50625,-11.42505 25.50625,-25.50625 l 0,-0.525 0,-98.04375 0,-37.58125 c 0,-14.0826 -11.42645,-25.4625 -25.50625,-25.4625 l -223.86875,0 z m 261.14375,63.04375 0,98.04375 c 0,20.5548 -16.7174,37.275 -37.275,37.275 l -103.64375,0 -25.85625,26.46875 106.96875,0 47.73125,63.91875 -0.0875,-63.91875 49.74375,0 c 14.0798,0 25.4625,-11.42365 25.4625,-25.50625 l 0,-110.775 c -0.001,-14.0812 -11.3841,-25.50625 -25.4625,-25.50625 l -37.58125,0 z"
   id="path5"
   inkscape:connector-curvature="0" />
</svg>