<?xml version="1.0" encoding="UTF-8" standalone="no"?>
<!-- Generator: Adobe Illustrator 17.0.1, SVG Export Plug-In . SVG Version: 6.00 Build 0)  -->

<svg
   xmlns:dc="http://purl.org/dc/elements/1.1/"
   xmlns:cc="http://creativecommons.org/ns#"
   xmlns:rdf="http://www.w3.org/1999/02/22-rdf-syntax-ns#"
   xmlns:svg="http://www.w3.org/2000/svg"
   xmlns="http://www.w3.org/2000/svg"
   xmlns:sodipodi="http://sodipodi.sourceforge.net/DTD/sodipodi-0.dtd"
   xmlns:inkscape="http://www.inkscape.org/namespaces/inkscape"
   version="1.1"
   id="Ebene_1"
   x="0px"
   y="0px"
   width="512px"
   height="512px"
   viewBox="0 0 512 512"
   enable-background="new 0 0 512 512"
   xml:space="preserve"
   inkscape:version="0.48.3.1 r9886"
   sodipodi:docname="event-profile.svg"><metadata
   id="metadata6253"><rdf:RDF><cc:Work
       rdf:about=""><dc:format>image/svg+xml</dc:format><dc:type
         rdf:resource="http://purl.org/dc/dcmitype/StillImage" /></cc:Work></rdf:RDF></metadata><defs
   id="defs6251">
	
	
</defs><sodipodi:namedview
   pagecolor="#ffffff"
   bordercolor="#666666"
   borderopacity="1"
   objecttolerance="10"
   gridtolerance="10"
   guidetolerance="10"
   inkscape:pageopacity="0"
   inkscape:pageshadow="2"
   inkscape:window-width="720"
   inkscape:window-height="880"
   id="namedview6249"
   showgrid="false"
   inkscape:zoom="0.4609375"
   inkscape:cx="313.43306"
   inkscape:cy="256"
   inkscape:window-x="721"
   inkscape:window-y="20"
   inkscape:window-maximized="0"
   inkscape:current-layer="Ebene_1" />
<path
   style="fill:#000000"
   inkscape:connector-curvature="0"
   id="path6245"
   d="m 391.73791,301.68872 c -2.1868,-5.32378 -5.05582,-10.46738 -8.60244,-15.43696 -3.55124,-4.96804 -7.42434,-9.34318 -11.627,-13.12696 -4.1965,-3.7884 -8.36374,-6.27396 -12.50942,-7.4536 -2.48094,-0.71302 -6.50188,-1.51074 -12.06282,-2.3947 -5.5594,-0.89012 -11.52998,-1.75098 -17.9179,-2.57796 -6.38792,-0.82698 -12.54022,-1.5939 -18.4569,-2.30384 -5.91668,-0.70994 -10.47046,-1.30284 -13.66442,-1.77562 10.88318,-6.97774 19.40246,-16.11764 25.55322,-27.41354 6.14922,-11.29744 9.22922,-23.39106 9.22922,-36.28548 0,-10.40886 -1.9866,-20.19864 -5.94594,-29.36626 -3.96242,-9.16608 -9.40478,-17.2095 -16.32708,-24.13026 -6.91922,-6.92076 -14.99036,-12.39084 -24.22112,-16.41178 -9.21998,-4.02402 -19.04056,-6.03372 -29.45096,-6.03372 -10.40886,0 -20.19864,2.0097 -29.3678,6.03372 -9.16762,4.02094 -17.15406,9.49256 -23.95008,16.41178 -6.80526,6.92076 -12.21836,14.96418 -16.2393,24.13026 -4.02094,9.16916 -6.03372,18.9574 -6.03372,29.36626 0,13.13004 3.10618,25.28526 9.31546,36.46258 6.21082,11.17886 14.75936,20.26024 25.63792,27.23798 -3.19396,0.47278 -7.7462,1.06568 -13.6598,1.77562 -5.91514,0.70994 -12.0967,1.47686 -18.5416,2.30384 -6.44798,0.82698 -12.51096,1.68784 -18.1874,2.57796 -5.67952,0.88242 -9.58188,1.68168 -11.7117,2.3947 -4.13952,1.17964 -8.3391,3.7268 -12.5972,7.62916 -4.2581,3.90236 -8.13274,8.27904 -11.62392,13.13158 -3.48964,4.84792 -6.32786,9.933 -8.51774,15.25678 -0.42812,1.04104 -0.8008,2.0559 -1.14422,3.05998 -0.0493,0.14168 -0.1001,0.28644 -0.14784,0.42658 -0.32494,0.98098 -0.6083,1.9404 -0.8547,2.88442 -0.0293,0.1155 -0.0585,0.231 -0.0862,0.34804 -0.50512,2.02048 -0.8316,3.96088 -0.96558,5.8212 0,0.001 0,0.004 0,0.008 l 0,0 c -0.0493,0.67606 -0.0816,1.34442 -0.0816,2.00046 v 68.66706 c 3.19396,1.65858 5.85508,3.75914 7.9849,6.30322 2.12982,2.54408 5.26372,3.81304 9.40324,3.81304 h 243.09054 c 1.06414,0 2.36698,-0.40964 3.90236,-1.24278 1.54,-0.82544 3.1647,-1.80026 4.8818,-2.926 1.71556,-1.12266 3.311,-2.27766 4.7894,-3.46038 1.47994,-1.18426 2.8105,-2.01124 3.99322,-2.48556 v -68.66706 c -0.001,-4.3813 -1.09494,-9.22768 -3.28482,-14.55146 z" />
</svg>